<?xml version="1.0" encoding="UTF-8"?>
<svg xmlns="http://www.w3.org/2000/svg" xmlns:xlink="http://www.w3.org/1999/xlink" viewBox="0 0 500 543.68">
  <defs>
    <style>
      .cls-1 {
        fill: #f66;
      }

      .cls-1, .cls-2, .cls-3, .cls-4, .cls-5, .cls-6, .cls-7, .cls-8, .cls-9, .cls-10, .cls-11, .cls-12, .cls-13, .cls-14, .cls-15, .cls-16, .cls-17, .cls-18, .cls-19, .cls-20, .cls-21, .cls-22, .cls-23, .cls-24, .cls-25, .cls-26, .cls-27, .cls-28, .cls-29, .cls-30, .cls-31, .cls-32, .cls-33, .cls-34, .cls-35, .cls-36, .cls-37, .cls-38, .cls-39, .cls-40, .cls-41 {
        stroke-width: 0px;
      }

      .cls-2 {
        fill: #c6c3e2;
      }

      .cls-3 {
        fill: #bf654e;
      }

      .cls-4 {
        fill: #ffc3a9;
      }

      .cls-5 {
        fill: #002833;
      }

      .cls-6 {
        fill: #cfcfff;
      }

      .cls-7 {
        fill: #1e2d72;
      }

      .cls-8 {
        fill: #375a64;
      }

      .cls-9 {
        fill: #ff6473;
      }

      .cls-10 {
        fill: #273350;
      }

      .cls-11 {
        fill: #706593;
      }

      .cls-42 {
        isolation: isolate;
      }

      .cls-13 {
        fill: #6fd888;
      }

      .cls-14 {
        fill: #032f4f;
      }

      .cls-15 {
        fill: #777;
      }

      .cls-16 {
        opacity: .22;
      }

      .cls-16, .cls-20, .cls-43 {
        fill: #fff;
      }

      .cls-17 {
        fill: #1a2e35;
      }

      .cls-18 {
        fill: url(#linear-gradient);
        opacity: .61;
      }

      .cls-19 {
        fill: #9fb3e9;
        mix-blend-mode: hue;
        opacity: .77;
      }

      .cls-21 {
        fill: #44b767;
      }

      .cls-22 {
        fill: #d69532;
      }

      .cls-23 {
        fill: #5e9aa8;
      }

      .cls-24 {
        fill: #f56;
      }

      .cls-25 {
        fill: #002c44;
      }

      .cls-26 {
        fill: #578e9b;
      }

      .cls-27 {
        fill: #f46060;
      }

      .cls-28 {
        fill: #ffceb8;
      }

      .cls-29 {
        fill: #fcbebe;
      }

      .cls-30 {
        fill: #ff8f8f;
      }

      .cls-31 {
        fill: #ffa37b;
      }

      .cls-32 {
        fill: #cac7e2;
      }

      .cls-43 {
        stroke: #f46060;
        stroke-miterlimit: 10;
        stroke-width: .5px;
      }

      .cls-33 {
        fill: #e6e7f7;
      }

      .cls-34 {
        fill: #ff4f5b;
      }

      .cls-35 {
        fill: #ffbf9d;
      }

      .cls-36 {
        fill: #a15525;
      }

      .cls-37 {
        fill: #4a5c85;
      }

      .cls-38 {
        fill: #636363;
      }

      .cls-39 {
        fill: #827d93;
      }

      .cls-40 {
        fill: #faae3a;
      }

      .cls-41 {
        fill: #bd642c;
      }
    </style>
    <linearGradient id="linear-gradient" x1="162.67" y1="307.26" x2="181.74" y2="307.26" gradientUnits="userSpaceOnUse">
      <stop offset="0" stop-color="#e50028"/>
      <stop offset=".87" stop-color="#375a64" stop-opacity="0"/>
    </linearGradient>
  </defs>
  <g class="cls-42">
    <g id="OBJECTS">
      <g>
        <path class="cls-22" d="M350.69,350.52h55.65v119.44c0,.42-.34.76-.76.76h-54.13c-.42,0-.76-.34-.76-.76v-119.44h0Z"/>
        <rect class="cls-40" x="355.68" y="354.72" width="45.67" height="25.15"/>
        <rect class="cls-41" x="369.18" y="358.66" width="21.29" height="2.69"/>
        <rect class="cls-40" x="355.68" y="385.47" width="45.67" height="25.15"/>
        <rect class="cls-41" x="369.18" y="389.42" width="21.29" height="2.69"/>
        <rect class="cls-40" x="355.68" y="416.22" width="45.67" height="25.15"/>
        <rect class="cls-41" x="369.18" y="420.17" width="21.29" height="2.69"/>
        <path class="cls-41" d="M291.11,350.52h58.82c.42,0,.76.34.76.76v119.44h-60.34v-119.44c0-.42.34-.76.76-.76Z" transform="translate(641.04 821.24) rotate(180)"/>
        <polygon class="cls-36" points="290.35 350.52 290.35 415.22 291.24 416.08 350.69 353.19 350.5 350.52 290.35 350.52"/>
      </g>
      <g>
        <path class="cls-11" d="M211.56,403.29h-39.17c0,2.09,1.69,3.78,3.78,3.78h26.31v40.41h9.09v-40.41h37.47c2.09,0,3.78-1.69,3.78-3.78h-41.25Z"/>
        <g>
          <rect class="cls-39" x="198.14" y="427.66" width="17.76" height="23.5"/>
          <g>
            <path class="cls-39" d="M249.35,463.23h-5.03v-4.78c0-3.93-3.2-7.13-7.13-7.13h-57.67c-3.93,0-7.13,3.2-7.13,7.13v4.78h-5.03v-4.78c0-6.71,5.46-12.17,12.17-12.17h57.67c6.71,0,12.17,5.46,12.17,12.17v4.78Z"/>
            <path class="cls-12" d="M176.2,462.85c0,3.89-3.15,7.04-7.04,7.04s-7.04-3.15-7.04-7.04,3.15-7.04,7.04-7.04,7.04,3.15,7.04,7.04Z"/>
            <path class="cls-12" d="M254.43,462.85c0,3.89-3.15,7.04-7.04,7.04s-7.04-3.15-7.04-7.04,3.15-7.04,7.04-7.04,7.04,3.15,7.04,7.04Z"/>
          </g>
        </g>
      </g>
      <path class="cls-26" d="M151.21,284.97h65.55c5.99,0,11.15,4.23,12.31,10.11l21.51,108.22h-83.27c-4.36,0-8.06-3.2-8.68-7.52l-14.79-102.29c-.65-4.49,2.83-8.51,7.37-8.51Z"/>
      <path class="cls-8" d="M192.32,383.85h80.17c5.9,0,10.69,4.79,10.69,10.69v8.75h-90.86v-19.44Z"/>
      <path class="cls-8" d="M143.84,293.48l14.79,102.29c.62,4.32,4.32,7.52,8.68,7.52h50.13v-5.55c0-7.67-6.22-13.9-13.9-13.9h-30.47l-14.51-92.59c-.57-3.62-3.69-6.29-7.35-6.29h0c-4.54,0-8.02,4.02-7.37,8.51Z"/>
      <path class="cls-35" d="M266.51,305.07c6.76,9.59,10.1,17.76,13.51,24.68,3.56,7.22-3.16,10.86-12.26,10.86-4.37,0-6.12-1.94-10.54-8.66l-20.65-32.78c-2.13-3.38-5.09-9.6-4.38-13.4,1.54-8.2,6.68-11.42,6.68-11.42,4.63,2.31,18.88,18.32,27.63,30.73Z"/>
      <path class="cls-34" d="M263.67,301.18c-8.72-11.64-20.63-24.76-24.79-26.84,0,0-5.14,3.22-6.68,11.42-.72,3.8,2.25,10.02,4.38,13.4l8.26,13.1c3.66-3.07,10.19-7.79,18.85-11.09Z"/>
      <path class="cls-2" d="M263.99,298.93c-.29-.38-.78-.58-1.26-.5-12.36,2-18.58,8.74-21.48,13.44l.27.42,2.02,3.21c.52.83,1.72.81,2.23-.03,3.55-5.88,12.06-9.54,19.6-11.77.87-.26,1.22-1.3.68-2.03-.67-.9-1.36-1.81-2.06-2.73Z"/>
      <path class="cls-35" d="M260.98,337.6c-2.53-5.75.7-14.37,11.94-19.56,11.9-5.5,30.89-6.48,30.89-6.48l3.31,6.72s-2.78,5.37-16.77,14.24c-14.63,9.27-27.31,10-29.37,5.08Z"/>
      <g>
        <path class="cls-28" d="M286.24,320.77s-2.33,3.5-8.1,2c-5.77-1.49,9.78-8.69,9.78-8.69l-1.68,6.69Z"/>
        <path class="cls-28" d="M311.5,316.36c-1.81-3.09-6.09-5.13-10.39-5.1l-6.73.05s0,.01,0,.02c-3.2.15-6.04,1.16-7.7,3.65-4.24,7.79-.62,15.88,1.4,16.23,2.96.52,4.25-10.21,5.05-12.36-.64,2.16-.1,10.69,2.97,11.81,3.16,1.07,2.94-6.82,3.33-9.9.12,2.52,2.21,9.7,5.24,10.27,2.75.44,1.91-10.19,2.02-10.14-.11-.04,1.95,7.3,5.18,8.26,3.03.87,1.78-4.98,1.73-6.51,0,0-.16-2.97-2.11-6.29Z"/>
      </g>
      <path class="cls-5" d="M290.46,361.92c-8.07-8.53-80.79-10.15-80.79-10.15,0,0-4.15,16.23-.97,24.35,2.81,7.16,45.45,7.16,61.14,7.43-.82,1.12-6.7,9.79-4.08,23.7l13.03,55.03,10.1-.38,7.24-84.09c.57-4.34-.09-10.01-5.67-15.9Z"/>
      <polygon class="cls-6" points="278.8 462.29 278.8 462.29 288.9 461.91 290.72 440.7 274.54 444.31 278.8 462.29"/>
      <path class="cls-25" d="M274.83,452.34c-.09-.58.82-.89,1.26-.43.74.78,1.58,1.49,2.84,1.71,4.02.7,5.79-4.12,9.16-5.75,3.37-1.63,6.91,4.81,6.91,4.81.3-.02.61-.04.93-.07,0,.02,0,.04,0,.07,6.15-1.4,15.75-2.32,21.81,4.01,2.21,2.31,3.32,7.61,2.71,11.91,0,0-26.95,6.38-43.15-1.93-1.08-.56-1.84-1.44-1.99-2.47l-.46-11.85Z"/>
      <path class="cls-17" d="M269.1,365.4c-7.53-9.01-80.02-15.95-80.02-15.95,0,0-9.35,18.92-1.74,30.15,5.42,8,32.98,9.53,55.69,9.26,0,0,0,.03,0,.03,0,0-6.31,10.99-5.35,21.22l4.98,55.49h10.1l19.22-82.33c.87-5.22,2.28-11.69-2.89-17.87Z"/>
      <polygon class="cls-20" points="241.06 447.64 242.68 465.61 252.78 465.61 257.67 444.66 241.06 447.64"/>
      <path class="cls-14" d="M241.04,452.34c-.09-.58.82-.89,1.26-.43.74.78,1.58,1.49,2.84,1.71,4.02.7,5.79-4.12,9.16-5.75s6.91,4.81,6.91,4.81c.3-.02.61-.04.93-.07,0,.02,0,.04,0,.07,6.15-1.4,15.75-2.32,21.81,4.01,2.21,2.31,3.32,7.61,2.71,11.91,0,0-26.95,6.38-43.15-1.93-1.08-.56-1.84-1.44-1.99-2.47l-.46-11.85Z"/>
      <path class="cls-9" d="M245.41,301.93l-2.03-20.35c-.22-3.71-2.59-6.95-6.07-8.26-7.03-2.66-16.38-5.83-20.99-5.83s-13.96,3.17-20.99,5.83c-3.51,1.33-5.89,4.6-6.08,8.42l-1.19,46.75-2.3,25.25,2.42.7c.87.25,21.55,6.16,37.97,6.16h0c10.74,0,17.32-2.5,20.14-7.63l.38-.68v-24.8c.01-8.51-.41-17.11-1.26-25.56Z"/>
      <path class="cls-31" d="M209.02,262.98l1.78-11.96,16.44,3.94.4,10.49c.11,2.78,1.93,5.19,4.56,6.09l.04.02c2.73,5.36,6.26,14.63-.5,16.84-10.49,3.44-12.08-11.47-29.62-17.25v-.27c3.63-1.21,6.33-4.12,6.9-7.9Z"/>
      <path class="cls-34" d="M246.41,316.06c-8.19,5.24-16.41,7.65-24.07,7.82-11.26.26-20.52-8.85-20.78-20.1l-.4-17.51-11.99-1.3-.51,20.03h0l-.6,23.5-2.3,25.25,2.42.7c.87.25,21.55,6.16,37.97,6.16h0c10.74,0,17.32-2.5,20.14-7.63l.38-.68v-24.8c.01-3.8-.09-7.62-.26-11.43Z"/>
      <path class="cls-34" d="M233.87,296.62h9.05v7.92c0,2.5-2.03,4.52-4.52,4.52h0c-2.5,0-4.52-2.03-4.52-4.52v-7.92Z"/>
      <path class="cls-35" d="M153.17,342.99c-.83-6.23,4.66-13.61,16.9-15.48,12.96-1.98,40.22-2.01,40.22-2.01l-1.99,12.6s-17.81,4.46-27.68,9.21c-15.61,7.51-26.85.97-27.46-4.32Z"/>
      <g>
        <path class="cls-28" d="M222.76,326.4c1.39.65,2.95,1.08,4.48,1.52,2.39-.9,6.93-2.76,8.98-4.53,1.96-1.68.94-4,.94-4,0,0-7.43,1.18-12.76,2.05-.63.1-1.26.13-1.88.13.51,1.57.64,3.24.24,4.83Z"/>
        <path class="cls-28" d="M241.33,335.61c1.24-1-1.79-8.31-9.28-13.83-.99-.63-1.98-1.01-2.96-1.19-.12-.03-.29-.05-.47-.06-1.01-.12-2-.03-2.97.22-2.72.27-9.21,2.24-9.24,2.25-4.77,1.08-7.35,3.37-9.83,5-6.73,4.41-3.43,8.68-3.43,8.68,5.81,7.81,12.61-1.04,12.61-1.04.84,1.38,4.15,7.86,5.82,6.05,1.76-1.96-.37-7.92-.43-7.84.05-.08,4.76,9.23,6.48,7.91,1.83-1.53,0-8.2-1.37-10.49,2.05,2.62,5.63,9.28,7.28,7.26,1.55-2.04-2.17-9.38-3.87-11.1,1.8,1.65,9.86,9.66,11.67,8.19Z"/>
      </g>
      <path class="cls-35" d="M153.09,339.58c-.37,2.68,9.31,4.9,9.31,4.9l15.23-13.49s15.28-20.61,18.96-28.29c1.73-3.62,5.25-11.32,4.78-15.3-.43-3.6-3.16-13.6-6.78-13.75-1.57-.06-10.15,7.03-11.9,8.84-12.14,12.61-26.11,32.05-29.59,57.09Z"/>
      <path class="cls-24" d="M196.58,302.7c1.73-3.62,5.25-11.32,4.78-15.3-.43-3.6-3.16-13.6-6.78-13.75-1.57-.06-10.15,7.03-11.9,8.84-4.54,4.72-9.34,10.39-13.75,16.96,5.29.56,13.23,3.2,22.35,12.12,2.29-3.48,4.26-6.69,5.3-8.87Z"/>
      <path class="cls-32" d="M195.51,306.38c-5.63-6.86-15.24-10.87-23.1-13.12-.99-.29-2.06.07-2.67.9-.34.46-.67.92-1,1.39-1.02,1.42-.27,3.44,1.44,3.83,5.57,1.29,12.77,4.51,20.84,11.8,1.14,1.03,2.93.8,3.76-.49.31-.49.62-.98.92-1.45.56-.89.49-2.05-.17-2.86Z"/>
      <path class="cls-17" d="M193.89,261.79c-3.93-1.22-8.04-3.1-10.07-6.82-1.8-3.3-1.6-7.37-1.1-11.14.2-1.56.45-3.16.1-4.69-.24-1.05-.74-2.02-1.31-2.91-2.12-3.31-5.25-5.86-7.13-9.33-2.18-4.03-2.44-9.05-1.09-13.46,1.35-4.41,4.21-8.23,7.73-11.05,3.53-2.83,7.83-4.85,10.29-8.72,1.61-2.53,2.26-5.6,3.69-8.23,1.87-3.43,5.39-6.1,9.16-5.89,3.58.21,6.57,2.84,9.97,4.03,6.1,2.14,12.65-.51,18.96-1.81,5.62-1.16,11.57-1.22,16.97.8,5.4,2.02,10.18,6.3,12.1,11.95.92,2.71,1.17,5.61,1.4,8.47.6,7.46.88,15.78-3.74,21.5-3.35,4.15-8.56,5.98-13.5,7.64-7.87,2.64-16.08,5.55-21.73,11.86-2.77,3.1-4.76,6.86-6.72,10.58,0,1.76-2.92,5.83-3.9,7.35-.96,1.49-1.8,2.29-3.53,2.54-5.18.76-11.65-1.14-16.58-2.67Z"/>
      <path class="cls-35" d="M243.37,236.95c-3.03,5.79-1.76,12.43,2.83,14.83,4.59,2.4,10.77-.35,13.8-6.14,3.03-5.79,1.76-12.43-2.83-14.83-4.59-2.4-10.77.35-13.8,6.14Z"/>
      <path class="cls-35" d="M196.92,236.95c3.03,5.79,1.76,12.43-2.83,14.83-4.59,2.4-10.77-.35-13.8-6.14-3.03-5.79-1.76-12.43,2.83-14.83,4.59-2.4,10.77.35,13.8,6.14Z"/>
      <path class="cls-4" d="M244.92,225.13c-3.19-3.96-8.28-11.17-13.78-22.48,0,0-29.8,4.16-37.78,21.6-.61,1.32-1.13,2.69-1.47,4.13v11.32l.09,2c0,16.92,12.56,30.63,28.06,30.63s28.06-13.72,28.06-30.63l.22-5.08v-1.94c0-3.49-1.2-6.85-3.39-9.57Z"/>
      <g>
        <ellipse class="cls-17" cx="207.26" cy="233.64" rx="1.66" ry="3.99"/>
        <path class="cls-17" d="M199.05,229.32s9.11-5.24,14.01-5.91c0,0,.68-7.98-5.83-5.05-6.52,2.93-8.18,10.97-8.18,10.97Z"/>
      </g>
      <g>
        <ellipse class="cls-17" cx="232.81" cy="233.64" rx="1.66" ry="3.99"/>
        <path class="cls-17" d="M241.49,229.27s-9.16-5.15-14.07-5.78c0,0-.23-8.01,6.31-5.15,6.54,2.87,7.76,10.92,7.76,10.92Z"/>
      </g>
      <path class="cls-30" d="M216.32,243.06c0,2.16,1.66,3.92,3.71,3.92s3.71-1.75,3.71-3.92-1.66-7.93-3.71-7.93-3.71,5.77-3.71,7.93Z"/>
      <path class="cls-17" d="M224.83,254.85c.15.09.28.18.4.28.14.11.11.42-.06.68-.17.26-.42.38-.56.27-.11-.09-2.69-2.14-5.39,1.48-.19.25-.43.33-.55.19-.12-.14-.06-.46.12-.71,2.36-3.17,4.79-2.92,6.04-2.19Z"/>
      <g>
        <g>
          <path class="cls-1" d="M236.8,247.17c.11,0,.22-.02.32-.07.37-.18.52-.62.34-.98l-2.33-4.81c-.18-.37-.62-.52-.98-.34-.37.18-.52.62-.34.98l2.33,4.81c.13.26.39.42.66.42Z"/>
          <path class="cls-1" d="M241.45,247.17c.11,0,.22-.02.32-.07.37-.18.52-.62.34-.98l-2.33-4.81c-.18-.37-.62-.52-.98-.34-.37.18-.52.62-.34.98l2.33,4.81c.13.26.39.42.66.42Z"/>
        </g>
        <g>
          <path class="cls-1" d="M203.71,247.17c.27,0,.54-.15.66-.42l2.32-4.81c.18-.37.02-.81-.34-.98-.37-.17-.81-.02-.98.34l-2.33,4.81c-.18.37-.02.81.34.98.1.05.21.07.32.07Z"/>
          <path class="cls-1" d="M199.06,247.17c.27,0,.54-.15.66-.42l2.33-4.81c.18-.37.02-.81-.34-.98-.37-.17-.81-.02-.98.34l-2.33,4.81c-.18.37-.02.81.34.98.1.05.21.07.32.07Z"/>
        </g>
      </g>
      <g>
        <g>
          <g>
            <circle class="cls-19" cx="205.59" cy="236.12" r="11.17" transform="translate(-60.5 401.08) rotate(-80.75)"/>
            <path class="cls-16" d="M215.9,231.8l-17.12,13.16c1.89,1.46,4.24,2.33,6.81,2.33,6.17,0,11.17-5,11.17-11.17,0-1.53-.31-2.99-.87-4.32Z"/>
            <path class="cls-16" d="M206.35,224.98l-11.27,7.38c-.42,1.18-.66,2.44-.66,3.76,0,.44.03.88.08,1.31l15.58-11.53c-1.15-.51-2.41-.82-3.73-.91Z"/>
            <path class="cls-7" d="M205.59,224.94c6.17,0,11.17,5,11.17,11.17s-5,11.17-11.17,11.17-11.17-5-11.17-11.17,5-11.17,11.17-11.17M205.59,223.98c-6.69,0-12.14,5.44-12.14,12.14s5.44,12.14,12.14,12.14,12.14-5.45,12.14-12.14-5.44-12.14-12.14-12.14h0Z"/>
          </g>
          <g>
            <path class="cls-19" d="M245.04,236.12c0,6.17-5,11.17-11.17,11.17s-11.17-5-11.17-11.17,5-11.17,11.17-11.17,11.17,5,11.17,11.17Z"/>
            <path class="cls-16" d="M240.14,226.87l-15.21,15.93c1.31,1.75,3.12,3.1,5.23,3.84l14.23-14.26c-.8-2.26-2.3-4.18-4.24-5.51Z"/>
            <path class="cls-7" d="M233.87,224.94c6.17,0,11.17,5,11.17,11.17s-5,11.17-11.17,11.17-11.17-5-11.17-11.17,5-11.17,11.17-11.17M233.87,223.98c-6.69,0-12.14,5.44-12.14,12.14s5.44,12.14,12.14,12.14,12.14-5.45,12.14-12.14-5.44-12.14-12.14-12.14h0Z"/>
          </g>
        </g>
        <path class="cls-7" d="M215.98,231.62l-.65-.71s3.45-3.07,7.89-.59l-.47.84c-3.83-2.14-6.74.44-6.77.46Z"/>
        <path class="cls-7" d="M191.89,235.13c-.16,0-.31-.08-.4-.22-.15-.22-.08-.52.14-.67l2.37-1.55c.22-.15.52-.08.67.14.15.22.08.52-.14.67l-2.37,1.55c-.08.05-.17.08-.26.08Z"/>
        <path class="cls-7" d="M248.31,235.13c-.08,0-.16-.02-.24-.06l-3.27-1.85c-.23-.13-.31-.42-.18-.66.13-.23.43-.31.66-.18l3.27,1.85c.23.13.31.42.18.66-.09.16-.25.25-.42.25Z"/>
      </g>
      <path class="cls-41" d="M339.4,341.3H122.41c-3.95,0-7.15,3.2-7.15,7.15v2h224.14v-9.16Z"/>
      <path class="cls-41" d="M130.1,350.52h75.25c.42,0,.76.34.76.76v119.44h-76.76v-119.44c0-.42.34-.76.76-.76Z" transform="translate(335.44 821.24) rotate(180)"/>
      <polygon class="cls-36" points="129.34 389.21 206.1 350.52 129.34 350.52 129.34 389.21"/>
      <path class="cls-22" d="M206.1,350.52h10.21v119.44c0,.42-.34.76-.76.76h-8.69c-.42,0-.76-.34-.76-.76v-119.44h0Z"/>
      <path class="cls-40" d="M406.61,341.3h-210.53c-4.22,0-7.64,3.42-7.64,7.64v1.52h224.14v-3.19c0-3.3-2.67-5.97-5.97-5.97Z"/>
      <path class="cls-18" d="M174.18,308.13c-2.15-1.7-1.45-4.82.98-6.28,1.12-.68,2.62-1.16,3.08-2.2.49-1.11-.46-2.3-1.6-3.08-2.69-1.86-6.69-2.5-10.11-1.62,1.34-.05,2.94.01,3.65.9.87,1.09-.37,2.52-1.83,3.13-1.46.61-3.2.85-4.39,1.75-1.35,1.03-1.6,2.71-.98,4.1.62,1.39,1.98,2.5,3.47,3.39.63.38,1.3.73,1.76,1.24.45.51.63,1.22.2,1.74-.31.36-.84.56-1.32.79-.99.47-1.81,1.18-2.21,2.03-.79,1.69.28,3.69,2.16,4.75,3.26,1.85,11.29,1.62,13.65-1.35,1.27-1.59,1.43-4.01.23-5.63-1.52-2.05-4.73-2.08-6.73-3.66Z"/>
      <path class="cls-38" d="M187.72,336.62c-4.98,0-9.04-4.05-9.04-9.04s4.05-9.04,9.04-9.04,9.04,4.05,9.04,9.04-4.05,9.04-9.04,9.04ZM187.72,322.64c-2.73,0-4.94,2.22-4.94,4.94s2.22,4.94,4.94,4.94,4.94-2.22,4.94-4.94-2.22-4.94-4.94-4.94Z"/>
      <path class="cls-15" d="M188.09,315.33v21.49c0,2.62-2.12,4.74-4.74,4.74h-19.45c-2.62,0-4.74-2.12-4.74-4.74v-21.49h28.93Z"/>
      <path class="cls-38" d="M159.34,338.03c.57,2.03,2.43,3.52,4.64,3.52h19.28c2.66,0,4.82-2.16,4.82-4.82v-9.93c-8.98,9.55-20.76,11.33-28.74,11.23Z"/>
      <polygon class="cls-8" points="284.35 341.3 237.44 341.3 237.44 332.74 284.35 328.82 284.35 341.3"/>
      <rect class="cls-23" x="284.35" y="328.82" width="51.5" height="12.47"/>
      <path class="cls-26" d="M301.36,237.6h94.19c2.34,0,4.24,1.9,4.24,4.24v72.21c0,2.34-1.9,4.24-4.24,4.24h-94.19v-80.68h0Z"/>
      <path class="cls-8" d="M378.86,272.83h-51.47c-1.58,0-2.87-1.28-2.87-2.87h0c0-1.58,1.28-2.87,2.87-2.87h51.47c1.58,0,2.87,1.28,2.87,2.87h0c0,1.58-1.28,2.87-2.87,2.87Z"/>
      <path class="cls-8" d="M292.52,237.6h4.61c2.34,0,4.24,1.9,4.24,4.24v72.21c0,2.34-1.9,4.24-4.24,4.24h-4.61v-80.68h0Z" transform="translate(593.88 555.89) rotate(180)"/>
      <polygon class="cls-8" points="340.05 288.92 340.05 341.3 372.16 341.3 362.2 288.92 340.05 288.92"/>
      <path class="cls-26" d="M344.41,288.92v52.38h32.11l-9.13-47.96c-.49-2.56-2.73-4.41-5.33-4.41h-17.65Z"/>
      <path class="cls-13" d="M122.56,425.93c-3.08-4.37-6.61-8.64-11.27-11.24s-12.02-4.11-16.23-1.22c-.86.59-4.73,3.66-4.66,7.35.07,3.91,3.29,8.89,6.91,10.56,1.92.89,4.08,1.11,5.98,2.05,3.35,1.66,5.31,5.18,7.27,8.38,1.96,3.19,4.52,6.54,8.15,7.24,3.34.65,6.72-1.33,8.27-4.24,1.55-2.92,1.48-6.55.47-9.82-1.02-3.27-2.9-6.23-4.89-9.05Z"/>
      <path class="cls-21" d="M122.56,425.93c-3.08-4.37-6.61-8.64-11.27-11.24-4.03-2.25-10.08-3.67-14.36-2.15,3.11,3,7.52,4.94,9.92,8.69,3.26,5.09.05,8.86-2.17,13.06,2.53,1.84,4.21,4.79,5.87,7.52,1.96,3.19,4.52,6.54,8.15,7.24,3.35.65,6.72-1.33,8.27-4.24,1.55-2.92,1.48-6.55.47-9.82-1.02-3.27-2.9-6.23-4.89-9.05Z"/>
      <path class="cls-10" d="M103.44,418.43c-3.58-2.25-6.85-3.49-9.36-4.18-.15.13-.3.27-.46.42,7.23,1.93,21.54,8.73,31.27,32.66.14-.11.27-.22.4-.34-6.67-16.28-15.37-24.49-21.85-28.56Z"/>
      <path class="cls-21" d="M138.42,413.14c-2.4-7.43-5.48-14.93-10.94-20.64-5.45-5.71-15.26-11.15-22.58-9.08-1.49.42-8.41,2.9-10,8.01-1.68,5.42.64,13.77,5.04,17.72,2.34,2.1,5.31,3.39,7.59,5.55,4.02,3.81,5.2,9.57,6.53,14.86s3.47,11.08,8.32,13.71c4.47,2.42,10.19,1.23,13.73-2.08,3.54-3.32,5.11-8.36,5.15-13.33.04-4.97-1.29-9.91-2.84-14.72Z"/>
      <path class="cls-13" d="M119.46,404.12c-5.66-4.34-16.55-7.83-24.95-6.42.54,4.33,2.53,8.85,5.43,11.46,2.34,2.1,5.31,3.39,7.59,5.55,4.02,3.81,5.2,9.57,6.53,14.86s3.47,11.08,8.32,13.71c4.47,2.42,10.19,1.23,13.73-2.08,3.54-3.32,5.11-8.36,5.15-13.33.01-1.32-.08-2.65-.24-3.96-.81-.44-1.61-.89-2.38-1.37-7.49-4.75-12.13-13-19.18-18.4Z"/>
      <path class="cls-37" d="M114.59,394.08c-4.08-4.74-8.17-7.93-11.44-10.03-.27.11-.55.23-.85.37,9.43,5.95,26.72,21.85,29.67,59.29.24-.09.49-.19.72-.29-2.07-25.5-10.73-40.78-18.1-49.34Z"/>
      <polygon class="cls-29" points="95.8 435.99 145.91 435.99 135.46 470.95 109.31 470.95 95.8 435.99"/>
      <polygon class="cls-33" points="144.62 440.29 145.91 435.99 95.8 435.99 97.46 440.29 144.62 440.29"/>
      <g>
        <rect class="cls-27" x="318.78" y="161.17" width="77.43" height="47.34" rx="8.41" ry="8.41"/>
        <rect class="cls-43" x="325.19" y="161.17" width="77.43" height="47.34" rx="8.41" ry="8.41"/>
        <g>
          <path class="cls-27" d="M346.02,179.08c0,.1-.02.2-.05.28-.04.08-.09.15-.15.21s-.13.09-.22.12c-.08.02-.17.04-.26.04h-.77c-.16,0-.3-.02-.41-.05s-.22-.09-.32-.17c-.1-.08-.19-.2-.28-.34-.09-.14-.19-.33-.31-.56l-2.2-4.14c-.13-.25-.26-.51-.39-.8-.13-.28-.25-.56-.36-.83h-.01c.02.33.03.66.04.98,0,.33.01.66.01,1.01v4.63s-.01.09-.04.12c-.02.04-.07.07-.13.09s-.14.04-.25.06c-.11.01-.24.02-.4.02s-.29,0-.4-.02c-.11-.01-.19-.03-.25-.06-.06-.02-.1-.06-.12-.09-.02-.04-.03-.08-.03-.12v-7.95c0-.21.06-.38.19-.48.13-.11.28-.16.46-.16h.96c.17,0,.32.01.44.04.12.03.22.08.32.15.09.07.18.16.26.28s.17.27.25.45l1.72,3.23c.1.2.2.39.3.58.1.19.19.38.28.57.09.19.18.38.27.56.09.18.17.36.25.55h0c-.01-.32-.02-.65-.03-1s0-.68,0-.99v-4.15s.01-.09.04-.12.07-.07.14-.1c.06-.03.15-.05.25-.06.1-.01.24-.02.4-.02.15,0,.28,0,.39.02.1.01.19.03.24.06.06.03.1.06.12.1.02.04.03.08.03.12v7.95Z"/>
          <path class="cls-27" d="M355.9,175.18c0,.73-.09,1.39-.27,1.97-.18.58-.45,1.07-.81,1.47-.36.4-.81.71-1.34.92-.53.21-1.14.32-1.84.32s-1.29-.09-1.8-.27-.94-.45-1.28-.82-.6-.84-.77-1.41-.26-1.24-.26-2.02c0-.72.09-1.36.27-1.93.18-.57.45-1.06.81-1.46.36-.4.81-.71,1.34-.92.53-.21,1.15-.32,1.85-.32s1.26.09,1.77.27.94.45,1.29.82c.34.37.6.83.78,1.4.18.56.26,1.23.26,1.99ZM354.02,175.28c0-.46-.04-.89-.11-1.27-.07-.38-.2-.71-.37-.98-.17-.27-.41-.48-.7-.63-.29-.15-.66-.22-1.09-.22s-.81.08-1.11.25c-.3.17-.54.39-.72.67-.18.28-.31.6-.39.97s-.11.76-.11,1.18c0,.48.04.92.11,1.3.07.39.2.71.37.99.17.27.41.48.7.63.29.14.66.22,1.1.22s.81-.08,1.11-.25c.3-.16.54-.39.72-.67.18-.28.31-.61.39-.99s.11-.78.11-1.2Z"/>
          <path class="cls-27" d="M365.54,171.6c0,.14,0,.25-.02.35-.01.09-.03.17-.05.22-.02.05-.05.1-.08.12-.03.03-.07.04-.11.04h-2.89v2.38h2.71s.08.01.11.03c.03.02.06.06.08.12.03.05.04.13.05.22.01.09.02.21.02.34s0,.25-.02.34c-.01.09-.03.17-.05.23-.02.06-.05.1-.08.13-.03.02-.07.04-.11.04h-2.71v3.29c0,.05-.01.09-.04.13s-.08.07-.15.09c-.07.02-.16.04-.28.06-.11.01-.26.02-.44.02s-.32,0-.43-.02-.21-.03-.28-.06-.12-.06-.15-.09c-.03-.04-.04-.08-.04-.13v-8.02c0-.2.05-.35.15-.43s.23-.13.38-.13h4.16s.08.01.11.04c.03.02.06.07.08.12.03.06.04.13.05.23.01.1.02.21.02.35Z"/>
          <path class="cls-27" d="M373.57,179.48c0,.05,0,.09-.03.13-.02.03-.06.06-.13.09s-.17.04-.3.05c-.13,0-.31.01-.54.01-.19,0-.34,0-.46-.01-.11,0-.2-.03-.27-.05-.07-.02-.11-.06-.14-.1s-.05-.09-.07-.14l-.79-1.98c-.1-.22-.19-.42-.28-.59-.09-.17-.19-.32-.3-.43-.11-.12-.24-.2-.39-.26-.15-.06-.31-.09-.51-.09h-.56v3.37s-.01.09-.04.12c-.03.04-.08.07-.15.09s-.16.04-.27.05c-.11.01-.26.02-.44.02s-.32,0-.43-.02-.21-.03-.28-.05-.12-.05-.14-.09-.04-.08-.04-.12v-8.03c0-.2.05-.35.15-.43s.23-.13.38-.13h2.29c.23,0,.42,0,.57.01s.29.02.41.03c.36.05.68.14.96.26.29.12.53.28.72.48s.35.43.46.7c.1.27.16.58.16.93,0,.3-.04.57-.11.81s-.19.46-.33.65c-.15.19-.33.36-.54.5-.21.14-.46.26-.73.34.13.06.26.14.37.23s.23.2.33.33.2.28.29.44c.09.17.18.35.27.56l.75,1.74c.07.17.11.3.14.38.02.08.03.14.03.19ZM371.25,173.47c0-.29-.07-.54-.2-.74-.13-.2-.35-.34-.65-.42-.09-.02-.2-.04-.31-.05s-.28-.02-.48-.02h-.81v2.51h.92c.25,0,.48-.03.67-.09s.35-.15.48-.26c.13-.11.22-.25.29-.4.06-.15.1-.33.1-.52Z"/>
          <path class="cls-27" d="M380.13,179.01c0,.13,0,.24-.02.33-.01.09-.03.16-.05.22-.02.05-.05.09-.09.12s-.07.04-.11.04h-4.44c-.15,0-.28-.04-.38-.13s-.15-.23-.15-.43v-7.71c0-.2.05-.35.15-.43s.23-.13.38-.13h4.42s.08.01.11.03c.03.02.06.06.08.12.02.06.04.13.05.22.01.09.02.2.02.34,0,.13,0,.24-.02.32-.01.09-.03.16-.05.22-.02.05-.05.09-.08.12-.03.02-.07.04-.11.04h-3.16v2.16h2.67s.08.01.11.04.06.06.09.12c.02.05.04.12.05.21.01.09.02.2.02.32s0,.24-.02.33c-.01.09-.03.16-.05.21-.02.05-.05.09-.09.11s-.07.03-.11.03h-2.67v2.5h3.19s.08.01.11.04.06.06.09.12c.02.05.04.13.05.22.01.09.02.2.02.33Z"/>
          <path class="cls-27" d="M386.96,179.01c0,.13,0,.24-.02.33-.01.09-.03.16-.05.22-.02.05-.05.09-.09.12s-.07.04-.11.04h-4.44c-.15,0-.28-.04-.38-.13s-.15-.23-.15-.43v-7.71c0-.2.05-.35.15-.43s.23-.13.38-.13h4.42s.08.01.11.03c.03.02.06.06.08.12.02.06.04.13.05.22.01.09.02.2.02.34,0,.13,0,.24-.02.32-.01.09-.03.16-.05.22-.02.05-.05.09-.08.12-.03.02-.07.04-.11.04h-3.16v2.16h2.67s.08.01.11.04.06.06.09.12c.02.05.04.12.05.21.01.09.02.2.02.32s0,.24-.02.33c-.01.09-.03.16-.05.21-.02.05-.05.09-.09.11s-.07.03-.11.03h-2.67v2.5h3.19s.08.01.11.04.06.06.09.12c.02.05.04.13.05.22.01.09.02.2.02.33Z"/>
          <path class="cls-27" d="M335.61,189.55c0,.5-.08.94-.23,1.32-.15.38-.38.71-.68.97-.3.26-.66.46-1.09.6s-.94.21-1.52.21h-.74v2.82s-.01.09-.04.12c-.03.04-.08.07-.15.09s-.16.04-.27.05c-.11.01-.26.02-.44.02s-.32,0-.43-.02-.21-.03-.28-.05-.12-.05-.14-.09-.04-.08-.04-.12v-7.96c0-.21.06-.38.17-.48.11-.11.26-.16.44-.16h2.08c.21,0,.41,0,.6.02.19.02.42.05.68.1.26.05.53.15.8.29.27.14.5.32.69.54s.34.47.44.76c.1.29.15.61.15.97ZM333.73,189.68c0-.31-.05-.56-.16-.77s-.24-.35-.4-.44c-.16-.1-.33-.16-.5-.18-.18-.02-.36-.04-.54-.04h-.77v3h.81c.29,0,.53-.04.72-.12.19-.08.35-.19.47-.32s.22-.31.28-.5c.06-.19.1-.4.1-.63Z"/>
          <path class="cls-27" d="M341.86,194.96c0,.14,0,.25-.02.35-.01.09-.03.17-.05.23-.02.06-.05.11-.08.13s-.07.04-.12.04h-4.05c-.15,0-.28-.04-.38-.13s-.15-.23-.15-.43v-8.03s.01-.09.04-.12c.03-.04.08-.07.15-.09s.16-.04.28-.05.26-.02.43-.02.32,0,.44.02c.11.01.21.03.27.05s.12.05.15.09c.03.04.04.08.04.12v7.12h2.78s.09.01.12.04.06.07.08.12c.02.06.04.13.05.23.01.09.02.21.02.35Z"/>
          <path class="cls-27" d="M350.17,195.04c.05.16.09.29.1.39s0,.17-.05.22c-.05.05-.14.08-.27.09-.13.01-.3.02-.53.02s-.41,0-.54-.01-.23-.02-.3-.04-.12-.05-.14-.09-.05-.08-.07-.14l-.59-1.78h-3.32l-.56,1.73c-.02.06-.04.12-.07.16-.03.04-.08.08-.14.1-.07.02-.16.04-.28.05-.12,0-.28.01-.48.01-.21,0-.37,0-.49-.02-.12-.01-.2-.05-.25-.1-.04-.05-.06-.13-.05-.22s.05-.22.1-.38l2.73-7.85c.03-.08.06-.14.1-.19.04-.05.09-.08.17-.11.08-.02.19-.04.33-.05.14,0,.33-.01.56-.01.27,0,.48,0,.64.01.16,0,.28.02.37.05s.15.06.19.11c.04.05.07.12.1.21l2.73,7.84ZM346.11,188.55h0l-1.25,3.76h2.51l-1.25-3.76Z"/>
          <path class="cls-27" d="M356.2,187.6c0,.13,0,.25-.02.34-.01.09-.03.17-.05.23-.02.06-.05.1-.08.13s-.07.04-.11.04h-2.21v7.13s-.01.09-.04.12c-.03.04-.08.07-.15.09s-.16.04-.28.05-.26.02-.43.02-.32,0-.43-.02-.21-.03-.28-.05-.12-.05-.15-.09c-.03-.04-.04-.08-.04-.12v-7.13h-2.21s-.08-.01-.12-.04c-.03-.03-.06-.07-.08-.13-.02-.06-.04-.13-.05-.23-.01-.09-.02-.21-.02-.34s0-.25.02-.35c.01-.1.03-.17.05-.23.02-.06.05-.1.08-.12.03-.02.07-.04.12-.04h6.23s.08.01.11.04.06.07.08.12c.02.06.04.13.05.23.01.1.02.21.02.35Z"/>
          <path class="cls-27" d="M362.21,187.6c0,.14,0,.25-.02.35-.01.09-.03.17-.05.22-.03.05-.05.1-.09.12-.03.03-.07.04-.11.04h-2.89v2.38h2.71s.08.01.11.03c.03.02.06.06.09.12.02.05.04.13.05.22.01.09.02.21.02.34s0,.25-.02.34c-.01.09-.03.17-.05.23-.03.06-.05.1-.09.13-.03.02-.07.04-.11.04h-2.71v3.29c0,.05-.01.09-.04.13s-.08.07-.15.09c-.07.02-.16.04-.28.06-.11.01-.26.02-.44.02s-.32,0-.43-.02-.21-.03-.28-.06-.12-.06-.15-.09c-.03-.04-.04-.08-.04-.13v-8.02c0-.2.05-.35.15-.43s.23-.13.38-.13h4.16s.08.01.11.04c.03.02.06.07.09.12.02.06.04.13.05.23.01.1.02.21.02.35Z"/>
          <path class="cls-27" d="M371.53,191.18c0,.73-.09,1.39-.27,1.97-.18.58-.45,1.07-.81,1.47-.36.4-.81.71-1.34.92-.53.21-1.15.32-1.84.32s-1.29-.09-1.8-.27-.94-.45-1.28-.82-.6-.84-.77-1.41-.26-1.24-.26-2.02c0-.72.09-1.36.27-1.93.18-.57.45-1.06.81-1.46.36-.4.81-.71,1.34-.92.53-.21,1.15-.32,1.85-.32s1.26.09,1.77.27.94.45,1.29.82c.34.37.6.83.78,1.4.17.56.26,1.23.26,1.99ZM369.64,191.28c0-.46-.04-.89-.11-1.27-.07-.38-.2-.71-.37-.98-.18-.27-.41-.48-.7-.63-.29-.15-.66-.22-1.09-.22s-.81.08-1.11.25c-.3.17-.54.39-.72.67-.18.28-.31.6-.39.97s-.11.76-.11,1.18c0,.48.04.92.11,1.3.07.39.2.71.37.99.17.27.41.48.7.63.29.14.66.22,1.1.22s.81-.08,1.11-.25c.3-.16.54-.39.72-.67.18-.28.31-.61.39-.99s.11-.78.11-1.2Z"/>
          <path class="cls-27" d="M379.6,195.48c0,.05,0,.09-.03.13-.02.03-.06.06-.13.09s-.17.04-.3.05c-.13,0-.31.01-.54.01-.19,0-.34,0-.46-.01-.11,0-.2-.03-.27-.05-.07-.02-.11-.06-.14-.1s-.05-.09-.07-.14l-.79-1.98c-.1-.22-.19-.42-.28-.59-.09-.17-.19-.32-.3-.43-.11-.12-.24-.2-.39-.26-.15-.06-.31-.09-.51-.09h-.56v3.37s-.01.09-.04.12c-.03.04-.08.07-.15.09s-.16.04-.27.05c-.11.01-.26.02-.44.02s-.32,0-.43-.02-.21-.03-.28-.05-.12-.05-.14-.09-.04-.08-.04-.12v-8.03c0-.2.05-.35.15-.43s.23-.13.38-.13h2.29c.23,0,.42,0,.57.01s.29.02.41.03c.36.05.68.14.96.26.28.12.53.28.72.48s.35.43.45.7c.11.27.16.58.16.93,0,.3-.04.57-.11.81s-.19.46-.33.65c-.15.19-.33.36-.54.5-.21.14-.46.26-.73.34.13.06.26.14.37.23s.23.2.33.33.2.28.29.44c.09.17.18.35.27.56l.75,1.74c.07.17.11.3.14.38.02.08.03.14.03.19ZM377.28,189.47c0-.29-.07-.54-.2-.74-.13-.2-.35-.34-.65-.42-.09-.02-.19-.04-.31-.05s-.28-.02-.48-.02h-.81v2.51h.92c.26,0,.48-.03.67-.09s.35-.15.48-.26c.13-.11.22-.25.29-.4.06-.15.1-.33.1-.52Z"/>
          <path class="cls-27" d="M391.23,195.46s-.01.09-.04.12c-.03.04-.07.07-.14.09-.07.02-.15.04-.26.05s-.25.02-.42.02-.3,0-.41-.02-.2-.03-.26-.05c-.06-.02-.11-.05-.14-.09s-.04-.08-.04-.12v-7.2h-.01l-2.56,7.19c-.02.06-.05.11-.09.15s-.1.07-.17.09c-.07.02-.16.04-.27.04s-.24.01-.4.01-.29,0-.4-.02-.2-.03-.27-.05c-.07-.02-.13-.06-.17-.09s-.07-.08-.08-.13l-2.47-7.19h-.01v7.2s-.01.09-.04.12c-.03.04-.07.07-.14.09s-.16.04-.26.05c-.11.01-.25.02-.41.02s-.3,0-.41-.02-.2-.03-.26-.05c-.07-.02-.11-.05-.14-.09-.03-.04-.04-.08-.04-.12v-7.88c0-.23.06-.41.18-.53s.29-.18.49-.18h1.18c.21,0,.39.02.54.05s.28.09.39.17.2.18.27.31c.07.13.14.29.19.48l1.91,5.27h.03l1.98-5.26c.06-.19.12-.35.2-.49.07-.13.15-.24.25-.32.09-.08.2-.14.33-.17.13-.03.28-.05.44-.05h1.21c.12,0,.23.02.32.05s.16.08.22.14c.06.06.1.14.13.23.03.09.04.19.04.3v7.88Z"/>
          <path class="cls-27" d="M395.69,194.81c0,.19-.01.34-.04.47-.03.13-.08.23-.16.31s-.17.13-.3.17-.28.05-.46.05-.34-.02-.47-.05c-.13-.03-.22-.09-.3-.17-.07-.08-.12-.18-.15-.31-.03-.13-.04-.28-.04-.47s.01-.35.04-.48c.03-.13.08-.23.15-.31.07-.08.17-.14.3-.17.12-.03.28-.05.47-.05s.34.02.46.05.22.09.3.17.13.18.16.31c.03.13.04.29.04.48ZM395.48,192.81s-.02.09-.04.12c-.02.04-.06.07-.12.09-.06.02-.13.04-.23.06-.1.01-.22.02-.36.02s-.27,0-.36-.02-.17-.03-.23-.06c-.06-.02-.1-.06-.12-.09-.02-.04-.04-.08-.04-.12l-.18-6.21c0-.06.01-.11.04-.16s.08-.08.15-.11c.07-.03.17-.05.29-.06.12-.01.27-.02.45-.02s.33,0,.45.02c.12.02.21.04.28.07.07.03.12.07.15.11.03.04.04.09.04.15l-.18,6.21Z"/>
        </g>
      </g>
      <g>
        <rect class="cls-27" x="29.95" y="231.83" width="77.43" height="47.34" rx="8.41" ry="8.41"/>
        <rect class="cls-43" x="36.36" y="231.83" width="77.43" height="47.34" rx="8.41" ry="8.41"/>
        <g>
          <path class="cls-27" d="M46.99,256.54c0,.11,0,.21-.01.29s-.02.15-.03.21-.03.11-.05.15c-.02.04-.06.09-.11.14-.05.05-.15.12-.29.2s-.32.16-.53.24c-.21.08-.44.14-.71.19s-.55.08-.86.08c-.61,0-1.15-.09-1.64-.28-.49-.19-.9-.47-1.24-.84s-.6-.83-.79-1.39c-.18-.56-.27-1.2-.27-1.94s.1-1.42.3-2c.2-.58.48-1.07.84-1.47.36-.4.79-.7,1.29-.9.5-.21,1.06-.31,1.67-.31.25,0,.48.02.71.06.23.04.44.09.63.16.19.07.37.14.52.23.15.09.26.16.32.22s.1.11.13.15c.02.04.04.09.05.16s.02.14.03.23.01.19.01.32c0,.14,0,.25-.01.35,0,.1-.03.17-.05.23-.02.06-.05.1-.08.13-.03.03-.07.04-.11.04-.07,0-.16-.04-.26-.12-.11-.08-.24-.17-.41-.27-.17-.1-.36-.19-.59-.27-.23-.08-.5-.12-.82-.12-.35,0-.66.07-.94.22-.28.14-.51.35-.7.62-.19.27-.34.59-.44.97-.1.38-.15.8-.15,1.28,0,.52.05.97.16,1.35.11.38.26.69.46.94s.44.43.72.55.6.18.95.18c.32,0,.59-.04.83-.11s.43-.16.6-.25c.17-.09.3-.17.41-.25.11-.07.19-.11.25-.11.04,0,.08,0,.11.03s.05.05.07.11c.02.05.03.13.04.23,0,.1.01.23.01.39Z"/>
          <path class="cls-27" d="M56.14,253.35c0,.73-.09,1.39-.27,1.97-.18.58-.45,1.07-.81,1.47-.36.4-.81.71-1.34.92-.53.21-1.14.32-1.84.32s-1.29-.09-1.8-.27-.94-.45-1.28-.82-.6-.84-.77-1.41-.26-1.24-.26-2.02c0-.72.09-1.36.27-1.93.18-.57.45-1.06.81-1.46.36-.4.81-.71,1.34-.92.53-.21,1.15-.32,1.85-.32s1.26.09,1.77.27.94.45,1.29.82c.34.37.6.83.78,1.4.18.56.26,1.23.26,1.99ZM54.25,253.45c0-.46-.04-.89-.11-1.27-.07-.38-.2-.71-.37-.98-.17-.27-.41-.48-.7-.63-.29-.15-.66-.22-1.09-.22s-.81.08-1.11.25c-.3.17-.54.39-.72.67-.18.28-.31.6-.39.97s-.11.76-.11,1.18c0,.48.04.92.11,1.3.07.39.2.71.37.99.17.27.41.48.7.63.29.14.66.22,1.1.22s.81-.08,1.11-.25c.3-.16.54-.39.72-.67.18-.28.31-.61.39-.99s.11-.78.11-1.2Z"/>
          <path class="cls-27" d="M64.94,257.25c0,.1-.02.2-.05.28-.04.08-.09.15-.15.21s-.13.09-.22.12c-.08.02-.17.04-.26.04h-.77c-.16,0-.3-.02-.41-.05s-.22-.09-.32-.17c-.1-.08-.19-.2-.28-.34-.09-.14-.19-.33-.31-.56l-2.2-4.14c-.13-.25-.26-.51-.39-.8-.13-.28-.25-.56-.36-.83h-.01c.02.33.03.66.04.98,0,.33.01.66.01,1.01v4.63s-.01.09-.04.12c-.02.04-.07.07-.13.09s-.14.04-.25.06c-.11.01-.24.02-.4.02s-.29,0-.4-.02c-.11-.01-.19-.03-.25-.06-.06-.02-.1-.06-.12-.09-.02-.04-.03-.08-.03-.12v-7.95c0-.21.06-.38.19-.48.13-.11.28-.16.46-.16h.96c.17,0,.32.01.44.04.12.03.22.08.32.15.09.07.18.16.26.28s.17.27.25.45l1.72,3.23c.1.2.2.39.3.58.1.19.19.38.28.57.09.19.18.38.27.56.09.18.17.36.25.55h0c-.01-.32-.02-.65-.03-1s0-.68,0-.99v-4.15s.01-.09.04-.12.07-.07.14-.1c.06-.03.15-.05.25-.06.1-.01.24-.02.4-.02.15,0,.28,0,.39.02.1.01.19.03.24.06.06.03.1.06.12.1.02.04.03.08.03.12v7.95Z"/>
          <path class="cls-27" d="M71.84,249.77c0,.14,0,.25-.02.35-.01.09-.03.17-.05.22-.02.05-.05.1-.08.12-.03.03-.07.04-.11.04h-2.89v2.38h2.71s.08.01.11.03c.03.02.06.06.08.12.03.05.04.13.05.22.01.09.02.21.02.34s0,.25-.02.34c-.01.09-.03.17-.05.23-.02.06-.05.1-.08.13-.03.02-.07.04-.11.04h-2.71v3.29c0,.05-.01.09-.04.13s-.08.07-.15.09c-.07.02-.16.04-.28.06-.11.01-.26.02-.44.02s-.32,0-.43-.02-.21-.03-.28-.06-.12-.06-.15-.09c-.03-.04-.04-.08-.04-.13v-8.02c0-.2.05-.35.15-.43s.23-.13.38-.13h4.16s.08.01.11.04c.03.02.06.07.08.12.03.06.04.13.05.23.01.1.02.21.02.35Z"/>
          <path class="cls-27" d="M80.52,254.58c0,.54-.08,1.03-.24,1.46-.16.43-.39.79-.7,1.09-.31.3-.69.52-1.15.68-.46.15-.98.23-1.57.23-.56,0-1.06-.07-1.5-.21-.44-.14-.82-.35-1.12-.63-.31-.28-.54-.63-.7-1.06-.16-.42-.24-.92-.24-1.48v-5.38s.01-.09.04-.12.08-.07.15-.09c.07-.02.16-.04.28-.05.11-.01.26-.02.44-.02s.32,0,.43.02c.11.01.21.03.27.05s.12.05.15.09c.03.04.04.08.04.12v5.22c0,.35.04.66.13.91.09.26.21.47.37.64.16.17.36.29.58.38s.48.13.76.13.54-.04.76-.13c.22-.09.41-.21.57-.38.15-.17.27-.37.36-.62.08-.24.13-.52.13-.83v-5.33s.01-.09.04-.12.08-.07.14-.09.16-.04.28-.05.26-.02.43-.02.32,0,.43.02c.11.01.2.03.27.05s.12.05.14.09.04.08.04.12v5.3Z"/>
          <path class="cls-27" d="M87.68,255.22c0,.46-.09.87-.26,1.22-.17.35-.41.64-.7.88-.3.23-.64.41-1.04.53s-.82.18-1.27.18c-.31,0-.59-.02-.85-.08-.26-.05-.49-.11-.69-.18-.2-.07-.37-.14-.5-.22-.13-.08-.23-.15-.29-.21-.06-.06-.1-.14-.13-.26-.02-.11-.04-.27-.04-.48,0-.14,0-.26.01-.36,0-.1.02-.17.04-.23s.05-.1.08-.13.07-.04.12-.04c.06,0,.15.04.27.11s.27.16.45.25c.18.09.4.17.65.25s.55.11.88.11c.22,0,.41-.03.59-.08.17-.05.32-.13.44-.22.12-.1.21-.21.28-.36.06-.14.1-.3.1-.47,0-.2-.05-.37-.16-.52s-.25-.27-.43-.38c-.17-.11-.38-.22-.6-.31-.22-.1-.45-.2-.69-.31-.24-.11-.47-.23-.69-.37-.22-.14-.42-.31-.6-.5-.17-.19-.32-.42-.43-.69s-.16-.58-.16-.95c0-.42.08-.8.24-1.12s.37-.59.64-.8.58-.37.94-.48.75-.16,1.15-.16c.21,0,.42.02.63.05.21.03.41.08.59.13.18.05.34.12.49.18.14.07.23.13.28.17.04.05.08.08.09.12.02.03.03.07.04.13.01.05.02.12.02.2,0,.08,0,.18,0,.3,0,.13,0,.24-.01.33s-.02.17-.03.23c-.02.06-.04.1-.07.13-.03.03-.07.04-.12.04s-.13-.03-.24-.1-.24-.13-.4-.21c-.16-.08-.34-.14-.55-.21-.21-.06-.44-.09-.69-.09-.2,0-.37.02-.51.07-.15.05-.27.11-.37.2-.1.08-.17.19-.22.3s-.07.24-.07.38c0,.2.05.37.16.51.11.14.25.27.43.38.18.11.38.22.61.31.23.1.46.2.7.31.24.11.47.23.7.37.23.14.43.31.61.5s.32.42.43.68.16.57.16.93Z"/>
          <path class="cls-27" d="M94.3,257.17c0,.13,0,.24-.02.33-.01.09-.03.16-.05.22-.02.05-.05.09-.09.12s-.07.04-.11.04h-4.44c-.15,0-.28-.04-.38-.13s-.15-.23-.15-.43v-7.71c0-.2.05-.35.15-.43s.23-.13.38-.13h4.42s.08.01.11.03c.03.02.06.06.08.12.02.06.04.13.05.22.01.09.02.2.02.34,0,.13,0,.24-.02.32-.01.09-.03.16-.05.22-.02.05-.05.09-.08.12-.03.02-.07.04-.11.04h-3.16v2.16h2.67s.08.01.11.04.06.06.09.12c.02.05.04.12.05.21.01.09.02.2.02.32s0,.24-.02.33c-.01.09-.03.16-.05.21-.02.05-.05.09-.09.11s-.07.03-.11.03h-2.67v2.5h3.19s.08.01.11.04.06.06.09.12c.02.05.04.13.05.22.01.09.02.2.02.33Z"/>
          <path class="cls-27" d="M103.23,253.32c0,.81-.11,1.5-.32,2.08s-.52,1.05-.91,1.41-.88.63-1.45.8-1.24.26-2.03.26h-2.11c-.15,0-.28-.04-.38-.13s-.15-.23-.15-.43v-7.71c0-.2.05-.35.15-.43s.23-.13.38-.13h2.27c.79,0,1.46.09,2.01.28.55.18,1.01.46,1.39.82s.66.81.86,1.34c.2.53.29,1.15.29,1.85ZM101.37,253.38c0-.42-.05-.81-.15-1.17-.1-.36-.25-.67-.47-.94-.22-.26-.49-.47-.83-.62-.34-.15-.79-.22-1.34-.22h-.91v6.02h.94c.49,0,.91-.06,1.24-.19.34-.13.62-.32.84-.58s.39-.58.51-.96c.11-.38.17-.83.17-1.34Z"/>
          <path class="cls-27" d="M109.67,251.12c0,.37-.05.71-.16,1.01-.11.3-.26.56-.45.78-.19.22-.43.39-.7.53-.27.13-.57.22-.9.25l-.05,1.33c0,.08-.07.14-.2.18-.12.04-.31.06-.54.06-.15,0-.28,0-.38-.01s-.18-.02-.24-.04c-.06-.02-.1-.04-.13-.08s-.04-.07-.05-.12l-.06-1.61c0-.15,0-.26.02-.36.02-.09.05-.16.1-.22s.11-.09.18-.11c.07-.02.16-.03.26-.03h.1c.24,0,.45-.04.62-.12.18-.08.32-.18.43-.31.11-.13.2-.28.25-.45.05-.17.08-.36.08-.55,0-.22-.03-.42-.09-.6s-.15-.34-.28-.47c-.12-.13-.28-.23-.47-.3-.19-.07-.41-.11-.67-.11-.23,0-.44.02-.62.07s-.33.1-.46.15c-.13.05-.23.1-.32.15-.08.05-.15.07-.19.07-.03,0-.06-.01-.09-.03s-.05-.06-.07-.11c-.02-.05-.03-.13-.04-.23-.01-.1-.02-.23-.02-.38s0-.28.02-.35.04-.13.09-.18c.04-.05.13-.1.26-.16.13-.06.28-.12.46-.17s.38-.1.59-.13.45-.05.68-.05c.54,0,1,.07,1.38.22s.7.35.94.6c.24.25.42.54.54.86.11.32.17.67.17,1.03ZM107.64,256.98c0,.19-.01.34-.04.47-.03.13-.08.23-.16.31s-.17.13-.3.17c-.12.03-.28.05-.46.05-.19,0-.35-.02-.47-.05s-.22-.09-.3-.17-.13-.18-.16-.31c-.03-.13-.04-.28-.04-.47s.01-.35.04-.48c.03-.13.08-.23.16-.31s.17-.14.3-.17.28-.05.47-.05.34.02.46.05c.13.03.23.09.3.17s.13.18.16.31c.03.13.04.29.04.48Z"/>
        </g>
      </g>
      <g>
        <rect class="cls-27" x="68.67" y="138.31" width="77.43" height="47.34" rx="8.41" ry="8.41"/>
        <rect class="cls-43" x="75.07" y="138.31" width="77.43" height="47.34" rx="8.41" ry="8.41"/>
        <g>
          <path class="cls-27" d="M91.32,156.18c.05.16.09.29.1.39s0,.17-.05.22-.14.08-.27.09-.3.02-.53.02-.41,0-.54-.01-.23-.02-.3-.04-.12-.05-.14-.09-.05-.08-.07-.14l-.59-1.78h-3.32l-.56,1.73c-.02.06-.04.12-.07.16s-.08.08-.14.1-.16.04-.28.05-.28.01-.48.01c-.21,0-.37,0-.49-.02s-.2-.05-.25-.1-.06-.13-.05-.22.05-.22.1-.38l2.73-7.85c.03-.08.06-.14.1-.19s.09-.08.17-.11.19-.04.33-.05.33-.01.56-.01c.27,0,.48,0,.64.01s.28.02.37.05.15.06.19.11.07.12.1.21l2.73,7.84ZM87.26,149.69h0l-1.25,3.76h2.51l-1.25-3.76Z"/>
          <path class="cls-27" d="M102.87,156.61s-.01.09-.04.12-.07.07-.14.09-.15.04-.26.05-.25.02-.42.02-.3,0-.41-.02-.2-.03-.26-.05-.11-.05-.14-.09-.04-.08-.04-.12v-7.2h-.01l-2.56,7.19c-.02.06-.05.11-.09.15s-.1.07-.17.09-.16.04-.27.04-.24.01-.4.01-.29,0-.4-.02-.2-.03-.27-.05-.13-.06-.17-.09-.07-.08-.08-.13l-2.47-7.19h-.01v7.2s-.01.09-.04.12-.07.07-.14.09-.16.04-.26.05-.25.02-.41.02-.3,0-.41-.02-.2-.03-.26-.05-.11-.05-.14-.09-.04-.08-.04-.12v-7.88c0-.23.06-.41.18-.53s.29-.18.49-.18h1.18c.21,0,.39.02.54.05s.28.09.39.17.2.18.27.31.14.29.19.48l1.91,5.27h.03l1.98-5.26c.06-.19.12-.35.19-.49s.15-.24.25-.32.2-.14.33-.17.28-.05.44-.05h1.21c.12,0,.23.02.32.05s.16.08.22.14.1.14.13.23.04.19.04.3v7.88Z"/>
          <path class="cls-27" d="M112.04,156.18c.05.16.09.29.1.39s0,.17-.05.22-.14.08-.27.09-.3.02-.53.02-.41,0-.54-.01-.23-.02-.3-.04-.12-.05-.14-.09-.05-.08-.07-.14l-.59-1.78h-3.32l-.56,1.73c-.02.06-.04.12-.07.16s-.08.08-.14.1-.16.04-.28.05-.28.01-.48.01c-.21,0-.37,0-.49-.02s-.2-.05-.25-.1-.06-.13-.05-.22.05-.22.1-.38l2.73-7.85c.03-.08.06-.14.1-.19s.09-.08.17-.11.19-.04.33-.05.33-.01.56-.01c.27,0,.48,0,.64.01s.28.02.37.05.15.06.19.11.07.12.1.21l2.73,7.84ZM107.98,149.69h0l-1.25,3.76h2.51l-1.25-3.76Z"/>
          <path class="cls-27" d="M118.07,148.74c0,.13,0,.25-.02.34s-.03.17-.05.23-.05.1-.09.13-.07.04-.11.04h-2.21v7.13s-.01.09-.04.12-.08.07-.15.09-.16.04-.28.05-.26.02-.43.02-.32,0-.43-.02-.21-.03-.28-.05-.12-.05-.15-.09-.04-.08-.04-.12v-7.13h-2.21s-.08-.01-.12-.04-.06-.07-.08-.13-.04-.13-.05-.23-.02-.21-.02-.34,0-.25.02-.35.03-.17.05-.23.05-.1.08-.12.07-.04.12-.04h6.23s.08.01.11.04.06.07.09.12.04.13.05.23.02.21.02.35Z"/>
          <path class="cls-27" d="M124.36,156.15c0,.13,0,.24-.02.33s-.03.16-.05.22-.05.09-.09.12-.07.04-.11.04h-4.44c-.15,0-.28-.04-.38-.13s-.15-.23-.15-.43v-7.71c0-.2.05-.35.15-.43s.23-.13.38-.13h4.42s.08.01.11.03.06.06.08.12.04.13.05.22.02.2.02.34c0,.13,0,.24-.02.32s-.03.16-.05.22-.05.09-.08.12-.07.04-.11.04h-3.16v2.16h2.67s.08.01.11.04.06.06.09.12.04.12.05.21.02.2.02.32,0,.24-.02.33-.03.16-.05.21-.05.09-.09.11-.07.03-.11.03h-2.67v2.5h3.19s.08.01.11.04.06.06.09.12.04.13.05.22.02.2.02.33Z"/>
          <path class="cls-27" d="M133.16,153.56c0,.54-.08,1.03-.24,1.46s-.39.79-.7,1.09-.69.52-1.15.68-.98.23-1.57.23c-.56,0-1.06-.07-1.5-.21s-.82-.35-1.12-.63-.54-.63-.7-1.06-.24-.92-.24-1.48v-5.38s.01-.09.04-.12.08-.07.15-.09.16-.04.28-.05.26-.02.44-.02.32,0,.43.02.21.03.27.05.12.05.15.09.04.08.04.12v5.22c0,.35.04.66.13.91s.21.47.37.64.36.29.58.38.48.13.76.13.54-.04.76-.13.41-.21.57-.38.27-.37.36-.62.13-.52.13-.83v-5.33s.01-.09.04-.12.08-.07.14-.09.16-.04.28-.05.26-.02.43-.02.32,0,.43.02.2.03.27.05.12.05.14.09.04.08.04.12v5.3Z"/>
          <path class="cls-27" d="M141.65,156.62c0,.05,0,.09-.03.13s-.06.06-.13.09-.17.04-.3.05-.31.01-.54.01c-.19,0-.34,0-.46-.01s-.2-.03-.27-.05-.11-.06-.14-.1-.05-.09-.07-.14l-.79-1.98c-.1-.22-.19-.42-.28-.59s-.19-.32-.3-.43-.24-.2-.39-.26-.31-.09-.51-.09h-.56v3.37s-.01.09-.04.12-.08.07-.15.09-.16.04-.27.05-.26.02-.44.02-.32,0-.43-.02-.21-.03-.28-.05-.12-.05-.14-.09-.04-.08-.04-.12v-8.03c0-.2.05-.35.15-.43s.23-.13.38-.13h2.29c.23,0,.42,0,.57.01s.29.02.41.03c.36.05.68.14.96.26s.53.28.72.48.35.43.45.7.16.58.16.93c0,.3-.04.57-.11.81s-.19.46-.33.65-.33.36-.54.5-.46.26-.73.34c.13.06.26.14.37.23s.23.2.33.33.2.28.29.44.18.35.27.56l.75,1.74c.07.17.11.3.14.38s.03.14.03.19ZM139.33,150.62c0-.29-.07-.54-.2-.74s-.35-.34-.65-.42c-.09-.02-.19-.04-.31-.05s-.28-.02-.48-.02h-.81v2.51h.92c.26,0,.48-.03.67-.09s.35-.15.48-.26.22-.25.29-.4.1-.33.1-.52Z"/>
          <path class="cls-27" d="M93.62,171.51c0,.11,0,.21-.01.29s-.02.15-.03.21-.03.11-.05.15-.06.09-.11.14-.15.12-.29.2-.32.16-.53.24-.44.14-.71.19-.55.08-.86.08c-.61,0-1.15-.09-1.64-.28s-.9-.47-1.24-.84-.6-.83-.79-1.39-.27-1.2-.27-1.94.1-1.42.3-2,.48-1.07.84-1.47.79-.7,1.3-.9,1.06-.31,1.66-.31c.25,0,.48.02.71.06s.44.09.63.16.37.14.52.23.26.16.32.22.1.11.13.15.04.09.05.16.02.14.03.23.01.19.01.32c0,.14,0,.25-.01.35s-.02.17-.05.23-.05.1-.08.13-.07.04-.11.04c-.07,0-.15-.04-.26-.12s-.24-.17-.41-.27-.36-.19-.59-.27-.5-.12-.82-.12c-.35,0-.66.07-.94.22s-.51.35-.7.62-.34.59-.44.97-.15.8-.15,1.28c0,.52.05.97.16,1.35s.26.69.46.94.44.43.72.55.6.18.95.18c.32,0,.59-.04.83-.11s.43-.16.6-.25.3-.17.41-.25.19-.11.25-.11c.05,0,.08,0,.11.03s.05.05.07.11.03.13.04.23.01.23.01.39Z"/>
          <path class="cls-27" d="M102.77,168.33c0,.73-.09,1.39-.27,1.97s-.45,1.07-.81,1.47-.81.71-1.34.92-1.15.32-1.84.32-1.29-.09-1.8-.27-.94-.45-1.28-.82-.6-.84-.77-1.41-.26-1.24-.26-2.02c0-.72.09-1.36.27-1.93s.45-1.06.81-1.46.81-.71,1.34-.92,1.15-.32,1.85-.32,1.26.09,1.77.27.94.45,1.29.82.6.83.78,1.4.26,1.23.26,1.99ZM100.88,168.42c0-.46-.04-.89-.11-1.27s-.2-.71-.37-.98-.41-.48-.7-.63-.66-.22-1.09-.22-.81.08-1.11.25-.54.39-.72.67-.31.6-.39.97-.11.76-.11,1.18c0,.48.04.92.11,1.3s.2.71.37.99.41.48.7.63.66.22,1.1.22.81-.08,1.11-.25.54-.39.72-.67.31-.61.39-.99.11-.78.11-1.2Z"/>
          <path class="cls-27" d="M111.63,168.3c0,.81-.11,1.5-.32,2.08s-.52,1.05-.91,1.41-.88.63-1.45.8-1.24.26-2.03.26h-2.11c-.15,0-.28-.04-.38-.13s-.15-.23-.15-.43v-7.71c0-.2.05-.35.15-.43s.23-.13.38-.13h2.27c.79,0,1.46.09,2.01.28s1.01.46,1.39.82.66.81.86,1.34.29,1.15.29,1.85ZM109.77,168.36c0-.42-.05-.81-.15-1.17s-.26-.67-.47-.94-.49-.47-.83-.62-.79-.22-1.34-.22h-.91v6.02h.94c.49,0,.91-.06,1.24-.19s.62-.32.84-.58.39-.58.51-.96.17-.83.17-1.34Z"/>
          <path class="cls-27" d="M114.91,172.61s-.01.09-.04.12-.08.07-.15.09-.16.04-.27.05-.26.02-.44.02-.32,0-.43-.02-.21-.03-.28-.05-.12-.05-.15-.09-.04-.08-.04-.12v-8.35s.01-.09.04-.12.08-.07.15-.09.16-.04.28-.05.26-.02.43-.02.32,0,.44.02.21.03.27.05.12.05.15.09.04.08.04.12v8.35Z"/>
          <path class="cls-27" d="M124.13,172.22c0,.1-.02.2-.05.28s-.09.15-.15.21-.13.09-.22.12-.17.04-.26.04h-.77c-.16,0-.3-.02-.41-.05s-.22-.09-.32-.17-.19-.2-.28-.34-.19-.33-.31-.56l-2.2-4.14c-.13-.25-.26-.51-.39-.8s-.25-.56-.36-.83h-.01c.02.33.03.66.04.98s.01.66.01,1.01v4.63s-.01.09-.04.12-.07.07-.13.09-.14.04-.25.06-.24.02-.4.02-.29,0-.4-.02-.19-.03-.25-.06-.1-.06-.12-.09-.03-.08-.03-.12v-7.95c0-.21.06-.38.19-.48s.28-.16.46-.16h.96c.17,0,.32.01.44.04s.22.08.32.15.18.16.26.28.17.27.25.45l1.72,3.23c.1.2.2.39.3.58s.19.38.28.57.18.38.27.56.17.36.25.55h0c-.01-.32-.02-.65-.03-1s-.01-.68-.01-.99v-4.15s.01-.09.04-.12.07-.07.14-.1.15-.05.25-.06.24-.02.4-.02c.15,0,.28,0,.39.02s.19.03.24.06.1.06.12.1.03.08.03.12v7.95Z"/>
          <path class="cls-27" d="M133.15,165.38c0,.13,0,.25-.02.34s-.03.17-.05.23-.05.1-.08.12-.06.03-.11.03c-.06,0-.15-.04-.29-.12s-.31-.17-.53-.27-.48-.18-.78-.27-.66-.12-1.06-.12c-.43,0-.82.07-1.16.22s-.64.36-.89.63-.44.6-.57.98-.2.8-.2,1.26c0,.51.07.95.2,1.34s.32.71.56.97.53.46.87.59.71.2,1.12.2c.2,0,.4-.02.59-.07s.38-.11.55-.21v-2.05h-1.67c-.08,0-.15-.05-.19-.15s-.07-.28-.07-.52c0-.13,0-.23.02-.32s.03-.16.05-.21.05-.09.08-.12.07-.04.11-.04h2.99c.07,0,.14.01.19.04s.11.06.15.11.08.11.1.18.03.15.03.24v3.52c0,.14-.02.26-.07.36s-.15.18-.29.24-.33.12-.55.18-.45.12-.68.16-.47.08-.71.1-.48.03-.72.03c-.71,0-1.34-.1-1.9-.3s-1.03-.5-1.42-.88-.68-.85-.89-1.41-.31-1.18-.31-1.88.11-1.38.33-1.95.53-1.07.93-1.47.89-.71,1.45-.93,1.2-.32,1.9-.32c.38,0,.73.03,1.05.08s.59.12.82.19.43.16.58.24.26.16.32.23.11.15.13.27.04.29.04.52Z"/>
          <path class="cls-27" d="M137.51,171.96c0,.19-.01.34-.04.47s-.08.23-.16.31-.17.13-.3.17-.28.05-.46.05-.34-.02-.47-.05-.22-.09-.3-.17-.12-.18-.15-.31-.04-.28-.04-.47.01-.35.04-.48.08-.23.15-.31.17-.14.3-.17.28-.05.47-.05.34.02.46.05.22.09.3.17.13.18.16.31.04.29.04.48ZM137.3,169.95s-.02.09-.04.12-.06.07-.12.09-.13.04-.23.06-.22.02-.36.02-.27,0-.36-.02-.17-.03-.23-.06-.1-.06-.12-.09-.04-.08-.04-.12l-.18-6.21c0-.06.01-.11.04-.16s.08-.08.15-.11.17-.05.29-.06.27-.02.45-.02.33,0,.45.02.21.04.28.07.12.07.15.11.04.09.04.15l-.18,6.21Z"/>
        </g>
      </g>
      <g>
        <rect class="cls-27" x="216.28" y="101.9" width="77.43" height="47.34" rx="8.41" ry="8.41"/>
        <rect class="cls-43" x="222.69" y="101.9" width="77.43" height="47.34" rx="8.41" ry="8.41"/>
        <g>
          <path class="cls-27" d="M259.09,119.81c0,.1-.02.2-.05.28-.04.08-.09.15-.15.21s-.13.09-.22.12c-.08.02-.17.04-.26.04h-.77c-.16,0-.3-.02-.41-.05s-.22-.09-.32-.17c-.1-.08-.19-.2-.28-.34-.09-.14-.19-.33-.31-.56l-2.2-4.14c-.13-.25-.26-.51-.39-.8-.13-.28-.25-.56-.36-.83h-.01c.02.33.03.66.04.98,0,.33.01.66.01,1.01v4.63s-.01.09-.04.12c-.02.04-.07.07-.13.09s-.14.04-.25.06c-.11.01-.24.02-.4.02s-.29,0-.4-.02c-.11-.01-.19-.03-.25-.06-.06-.02-.1-.06-.12-.09-.02-.04-.03-.08-.03-.12v-7.95c0-.21.06-.38.19-.48.13-.11.28-.16.46-.16h.96c.17,0,.32.01.44.04.12.03.22.08.32.15.09.07.18.16.26.28s.17.27.25.45l1.72,3.23c.1.2.2.39.3.58.1.19.19.38.28.57.09.19.18.38.27.56.09.18.17.36.25.55h0c-.01-.32-.02-.65-.03-1s0-.68,0-.99v-4.15s.01-.09.04-.12.07-.07.14-.1c.06-.03.15-.05.25-.06.1-.01.24-.02.4-.02.15,0,.28,0,.39.02.1.01.19.03.24.06.06.03.1.06.12.1.02.04.03.08.03.12v7.95Z"/>
          <path class="cls-27" d="M268.97,115.91c0,.73-.09,1.39-.27,1.97-.18.58-.45,1.07-.81,1.47-.36.4-.81.71-1.34.92-.53.21-1.14.32-1.84.32s-1.29-.09-1.8-.27-.94-.45-1.28-.82-.6-.84-.77-1.41-.26-1.24-.26-2.02c0-.72.09-1.36.27-1.93.18-.57.45-1.06.81-1.46.36-.4.81-.71,1.34-.92.53-.21,1.15-.32,1.85-.32s1.26.09,1.77.27.94.45,1.29.82c.34.37.6.83.78,1.4.18.56.26,1.23.26,1.99ZM267.08,116.01c0-.46-.04-.89-.11-1.27-.07-.38-.2-.71-.37-.98-.17-.27-.41-.48-.7-.63-.29-.15-.66-.22-1.09-.22s-.81.08-1.11.25c-.3.17-.54.39-.72.67-.18.28-.31.6-.39.97s-.11.76-.11,1.18c0,.48.04.92.11,1.3.07.39.2.71.37.99.17.27.41.48.7.63.29.14.66.22,1.1.22s.81-.08,1.11-.25c.3-.16.54-.39.72-.67.18-.28.31-.61.39-.99s.11-.78.11-1.2Z"/>
          <path class="cls-27" d="M236.54,130.28c0,.5-.08.94-.23,1.32s-.38.71-.68.97-.66.46-1.09.6-.94.21-1.52.21h-.74v2.82s-.01.09-.04.12-.08.07-.15.09-.16.04-.27.05-.26.02-.44.02-.32,0-.43-.02-.21-.03-.28-.05-.12-.05-.14-.09-.04-.08-.04-.12v-7.96c0-.21.06-.38.17-.48s.26-.16.44-.16h2.08c.21,0,.41,0,.6.02s.42.05.68.1.53.15.8.29.5.32.69.54.34.47.44.76.15.61.15.97ZM234.66,130.41c0-.31-.05-.56-.16-.77s-.24-.35-.4-.44-.33-.16-.5-.18-.36-.04-.54-.04h-.77v3h.81c.29,0,.53-.04.72-.12s.35-.19.48-.32.22-.31.28-.5.1-.4.1-.63Z"/>
          <path class="cls-27" d="M244.5,136.2c0,.05,0,.09-.03.13s-.06.06-.13.09-.17.04-.3.05-.31.01-.54.01c-.19,0-.34,0-.46-.01s-.2-.03-.27-.05-.11-.06-.14-.1-.05-.09-.07-.14l-.79-1.98c-.1-.22-.19-.42-.28-.59s-.19-.32-.3-.43-.24-.2-.39-.26-.31-.09-.51-.09h-.56v3.37s-.01.09-.04.12-.08.07-.15.09-.16.04-.27.05-.26.02-.44.02-.32,0-.43-.02-.21-.03-.28-.05-.12-.05-.14-.09-.04-.08-.04-.12v-8.03c0-.2.05-.35.15-.43s.23-.13.38-.13h2.29c.23,0,.42,0,.57.01s.29.02.41.03c.36.05.68.14.96.26s.53.28.72.48.35.43.45.7.16.58.16.93c0,.3-.04.57-.11.81s-.19.46-.33.65-.33.36-.54.5-.46.26-.73.34c.13.06.26.14.37.23s.23.2.33.33.2.28.29.44.18.35.27.56l.75,1.74c.07.17.11.3.14.38s.03.14.03.19ZM242.18,130.2c0-.29-.07-.54-.2-.74s-.35-.34-.65-.42c-.09-.02-.19-.04-.31-.05s-.28-.02-.48-.02h-.81v2.51h.92c.26,0,.48-.03.67-.09s.35-.15.48-.26.22-.25.29-.4.1-.33.1-.52Z"/>
          <path class="cls-27" d="M253.64,131.91c0,.73-.09,1.39-.27,1.97-.18.58-.45,1.07-.81,1.47-.36.4-.81.71-1.34.92s-1.15.32-1.84.32-1.29-.09-1.8-.27-.94-.45-1.28-.82-.6-.84-.77-1.41-.26-1.24-.26-2.02c0-.72.09-1.36.27-1.93s.45-1.06.81-1.46.81-.71,1.34-.92,1.15-.32,1.85-.32,1.26.09,1.77.27c.51.18.94.45,1.28.82.34.37.6.83.78,1.4.18.56.26,1.23.26,1.99ZM251.75,132.01c0-.46-.04-.89-.11-1.27-.07-.38-.2-.71-.37-.98s-.41-.48-.7-.63-.66-.22-1.09-.22-.81.08-1.11.25-.54.39-.72.67-.31.6-.39.97-.11.76-.11,1.18c0,.48.04.92.11,1.3s.2.71.37.99.41.48.7.63.66.22,1.1.22.81-.08,1.11-.25.54-.39.72-.67c.18-.28.31-.61.39-.99s.11-.78.11-1.2Z"/>
          <path class="cls-27" d="M257.73,133.98c0,.4-.04.76-.11,1.08s-.2.59-.38.82c-.18.23-.42.4-.71.52-.29.12-.65.18-1.08.18-.14,0-.27-.01-.41-.03-.13-.02-.26-.05-.37-.08-.11-.03-.21-.07-.29-.1s-.14-.07-.16-.1-.05-.06-.07-.09c-.02-.03-.03-.07-.05-.13s-.02-.12-.03-.19c0-.08,0-.18,0-.29,0-.15,0-.29,0-.39s.02-.19.03-.25c.02-.06.04-.1.07-.13.03-.02.07-.04.11-.04.04,0,.09.01.14.04s.12.06.18.09.15.06.24.09c.09.03.2.04.32.04s.23-.02.32-.05c.09-.03.17-.09.23-.18s.11-.2.14-.34c.03-.14.05-.32.05-.55v-6.08s.01-.09.04-.12c.03-.03.08-.06.14-.09.07-.02.16-.04.28-.05.12-.01.26-.02.44-.02s.32,0,.43.02c.11.01.21.03.28.05.07.02.12.05.15.09.03.03.04.07.04.12v6.15Z"/>
          <path class="cls-27" d="M264.89,135.73c0,.13,0,.24-.02.33-.01.09-.03.16-.05.22-.02.05-.05.09-.09.12s-.07.04-.11.04h-4.44c-.15,0-.28-.04-.38-.13s-.15-.23-.15-.43v-7.71c0-.2.05-.35.15-.43s.23-.13.38-.13h4.42s.08.01.11.03c.03.02.06.06.08.12.02.06.04.13.05.22.01.09.02.2.02.34,0,.13,0,.24-.02.32-.01.09-.03.16-.05.22-.02.05-.05.09-.08.12-.03.02-.07.04-.11.04h-3.16v2.16h2.67s.08.01.11.04.06.06.09.12c.02.05.04.12.05.21.01.09.02.2.02.32s0,.24-.02.33c-.01.09-.03.16-.05.21-.02.05-.05.09-.09.11s-.07.03-.11.03h-2.67v2.5h3.19s.08.01.11.04.06.06.09.12c.02.05.04.13.05.22.01.09.02.2.02.33Z"/>
          <path class="cls-27" d="M272.39,135.1c0,.11,0,.21-.01.29s-.02.15-.03.21-.03.11-.05.15c-.02.04-.06.09-.11.14-.05.05-.15.12-.29.2s-.32.16-.53.24c-.21.08-.44.14-.71.19s-.55.08-.86.08c-.61,0-1.15-.09-1.64-.28-.49-.19-.9-.47-1.24-.84s-.6-.83-.79-1.39c-.18-.56-.27-1.2-.27-1.94s.1-1.42.3-2c.2-.58.48-1.07.84-1.47.36-.4.79-.7,1.29-.9.5-.21,1.06-.31,1.67-.31.25,0,.48.02.71.06.23.04.44.09.63.16.19.07.37.14.52.23.15.09.26.16.32.22s.1.11.13.15c.02.04.04.09.05.16s.02.14.03.23.01.19.01.32c0,.14,0,.25-.01.35,0,.1-.03.17-.05.23-.02.06-.05.1-.08.13-.03.03-.07.04-.11.04-.07,0-.16-.04-.26-.12-.11-.08-.24-.17-.41-.27-.17-.1-.36-.19-.59-.27-.23-.08-.5-.12-.82-.12-.35,0-.66.07-.94.22-.28.14-.51.35-.7.62-.19.27-.34.59-.44.97-.1.38-.15.8-.15,1.28,0,.52.05.97.16,1.35.11.38.26.69.46.94s.44.43.72.55.6.18.95.18c.32,0,.59-.04.83-.11s.43-.16.6-.25c.17-.09.3-.17.41-.25.11-.07.19-.11.25-.11.04,0,.08,0,.11.03s.05.05.07.11c.02.05.03.13.04.23,0,.1.01.23.01.39Z"/>
          <path class="cls-27" d="M279.64,128.33c0,.13,0,.25-.02.34-.01.09-.03.17-.05.23-.02.06-.05.1-.09.13s-.07.04-.11.04h-2.21v7.13s-.01.09-.04.12c-.03.04-.08.07-.15.09s-.16.04-.28.05-.26.02-.43.02-.32,0-.43-.02-.21-.03-.28-.05-.12-.05-.15-.09c-.03-.04-.04-.08-.04-.12v-7.13h-2.21s-.08-.01-.12-.04c-.03-.03-.06-.07-.08-.13-.02-.06-.04-.13-.05-.23-.01-.09-.02-.21-.02-.34s0-.25.02-.35c.01-.1.03-.17.05-.23.02-.06.05-.1.08-.12.03-.02.07-.04.12-.04h6.23s.08.01.11.04.06.07.09.12c.02.06.04.13.05.23.01.1.02.21.02.35Z"/>
          <path class="cls-27" d="M285.86,133.78c0,.46-.09.87-.26,1.22-.17.35-.41.64-.7.88-.3.23-.64.41-1.04.53s-.82.18-1.27.18c-.31,0-.59-.02-.85-.08-.26-.05-.49-.11-.69-.18-.2-.07-.37-.14-.5-.22-.13-.08-.23-.15-.29-.21-.06-.06-.1-.14-.13-.26-.02-.11-.04-.27-.04-.48,0-.14,0-.26.01-.36,0-.1.02-.17.04-.23s.05-.1.08-.13.07-.04.12-.04c.06,0,.15.04.27.11s.27.16.45.25c.18.09.4.17.65.25s.55.11.88.11c.22,0,.41-.03.59-.08.17-.05.32-.13.44-.22.12-.1.21-.21.28-.36.06-.14.1-.3.1-.47,0-.2-.05-.37-.16-.52s-.25-.27-.43-.38c-.17-.11-.38-.22-.6-.31-.22-.1-.45-.2-.69-.31-.24-.11-.47-.23-.69-.37-.22-.14-.42-.31-.6-.5-.17-.19-.32-.42-.43-.69s-.16-.58-.16-.95c0-.42.08-.8.24-1.12s.37-.59.64-.8.58-.37.94-.48.75-.16,1.15-.16c.21,0,.42.02.63.05.21.03.41.08.59.13.18.05.34.12.49.18.14.07.23.13.28.17.04.05.08.08.09.12.02.03.03.07.04.13.01.05.02.12.02.2,0,.08,0,.18,0,.3,0,.13,0,.24-.01.33s-.02.17-.03.23c-.02.06-.04.1-.07.13-.03.03-.07.04-.12.04s-.13-.03-.24-.1-.24-.13-.4-.21c-.16-.08-.34-.14-.55-.21-.21-.06-.44-.09-.69-.09-.2,0-.37.02-.51.07-.15.05-.27.11-.37.2-.1.08-.17.19-.22.3s-.07.24-.07.38c0,.2.05.37.16.51.11.14.25.27.43.38.18.11.38.22.61.31.23.1.46.2.7.31.24.11.47.23.7.37.23.14.43.31.61.5s.32.42.43.68.16.57.16.93Z"/>
          <path class="cls-27" d="M289.77,135.54c0,.19-.01.34-.04.47-.03.13-.08.23-.16.31s-.17.13-.3.17-.28.05-.46.05-.34-.02-.47-.05c-.12-.03-.22-.09-.3-.17-.07-.08-.12-.18-.15-.31-.03-.13-.04-.28-.04-.47s.01-.35.04-.48c.03-.13.08-.23.15-.31.07-.08.17-.14.3-.17.13-.03.28-.05.47-.05s.34.02.46.05.22.09.3.17.13.18.16.31c.03.13.04.29.04.48ZM289.55,133.54s-.02.09-.04.12c-.02.04-.06.07-.12.09-.06.02-.13.04-.23.06-.1.01-.22.02-.36.02s-.27,0-.36-.02-.17-.03-.23-.06c-.06-.02-.1-.06-.12-.09-.02-.04-.04-.08-.04-.12l-.18-6.21c0-.06.01-.11.04-.16s.08-.08.15-.11c.07-.03.17-.05.29-.06.12-.01.27-.02.46-.02s.33,0,.45.02c.12.02.21.04.28.07.07.03.12.07.15.11.03.04.04.09.04.15l-.18,6.21Z"/>
        </g>
      </g>
      <path class="cls-8" d="M322.77.66h0c0-.37-.3-.66-.66-.66h-14.69c-.37,0-.66.3-.66.66h16.02Z"/>
      <path class="cls-3" d="M250.14,243.36c.06-.02.14.2.4.47.26.26.76.56,1.4.57,1.31.02,2.97-1.44,3.77-3.37.41-.98.56-2,.5-2.91-.03-.92-.33-1.67-.87-2-.52-.35-1.06-.16-1.31.09-.26.25-.28.49-.34.49-.04.02-.16-.27.09-.69.13-.2.35-.41.69-.52.34-.11.77-.07,1.15.12.82.38,1.28,1.44,1.33,2.44.1,1.02-.04,2.18-.5,3.28-.9,2.16-2.81,3.78-4.55,3.64-.84-.09-1.39-.57-1.62-.95-.23-.4-.2-.66-.15-.67Z"/>
      <path class="cls-3" d="M191.28,244.9c-.06-.03-.17.18-.47.41-.29.22-.83.45-1.47.35-1.3-.18-2.72-1.86-3.22-3.9-.25-1.03-.25-2.06-.07-2.95.17-.91.58-1.6,1.16-1.84.57-.27,1.08,0,1.29.29.22.28.2.53.26.53.04.02.2-.24,0-.69-.1-.22-.29-.45-.6-.61-.32-.16-.75-.19-1.16-.05-.86.25-1.47,1.23-1.68,2.21-.25,1-.28,2.16,0,3.31.57,2.27,2.21,4.16,3.96,4.27.84.03,1.46-.35,1.74-.7.29-.36.29-.62.25-.64Z"/>
    </g>
  </g>
</svg>