<?xml version="1.0" encoding="utf-8"?>
<!-- Generator: Adobe Illustrator 28.2.0, SVG Export Plug-In . SVG Version: 6.00 Build 0)  -->
<svg version="1.1" id="Layer_1" xmlns="http://www.w3.org/2000/svg" xmlns:xlink="http://www.w3.org/1999/xlink" x="0px" y="0px"
	 viewBox="0 0 5000 5000" style="enable-background:new 0 0 5000 5000;" xml:space="preserve">
<style type="text/css">
	.st0{fill:none;stroke:#000000;stroke-miterlimit:10;}
	.st1{fill:#FF0000;}
</style>
<g>
	<path d="M1755.93,2661.79h-0.01v1.55C1755.92,2662.82,1755.92,2662.31,1755.93,2661.79L1755.93,2661.79z"/>
</g>
<g>
	<path d="M1755.93,2661.79h-0.01v1.55C1755.92,2662.82,1755.92,2662.31,1755.93,2661.79L1755.93,2661.79z"/>
</g>
<g>
	<path d="M1755.93,2661.79h-0.01v1.55C1755.92,2662.82,1755.92,2662.31,1755.93,2661.79L1755.93,2661.79z"/>
</g>
<g>
	<path d="M1701.92,2630.79h-0.01c0.01,0.51,0.01,1.03,0.01,1.55V2630.79L1701.92,2630.79z"/>
</g>
<g>
	<path d="M1701.92,2630.79h-0.01c0.01,0.51,0.01,1.03,0.01,1.55V2630.79L1701.92,2630.79z"/>
</g>
<path class="st0" d="M1924.78,2664.79"/>
<path class="st0" d="M1775.98,2627.13"/>
<path class="st0" d="M1951.76,2632.34"/>
<path class="st0" d="M1990.14,2501.79"/>
<g>
	<path class="st1" d="M1947.48,2098.59v535.08c0,17.1-13.86,30.96-30.96,30.96h-130.08c-13.36,0-24.74-8.46-29.08-20.31v-0.01
		c-1.22-3.32-1.88-6.9-1.88-10.64v-535.08c0-17.1,13.86-30.96,30.96-30.96h130.08c1.21,0,2.4,0.07,3.57,0.21
		c0.03,0,0.05,0.01,0.08,0.01c5.68,0.95,10.21,2.8,13.82,5.19c0.15,0.09,0.3,0.2,0.45,0.3c0.04,0.02,0.07,0.05,0.1,0.07
		c0.01,0.01,0.03,0.02,0.04,0.03c3.18,2.28,5.91,5.16,8.02,8.46c0.1,0.15,0.19,0.29,0.27,0.44c0.15,0.24,0.3,0.48,0.43,0.73
		c1.53,2.71,2.58,5.51,3.3,8.16c0,0.02,0.01,0.03,0.01,0.05C1947.18,2093.62,1947.48,2096.07,1947.48,2098.59z"/>
</g>
<g>
	<path class="st1" d="M2413.45,2566.54c-0.3,2.04-0.67,4.07-1.11,6.07c-3.94,18.27-13.21,34.56-26.09,47.18
		c-6.38,6.25-13.65,11.6-21.6,15.84c-13.17,7.02-28.2,11-44.17,11s-31-3.98-44.17-11c-7.95-4.24-15.22-9.59-21.6-15.84
		c-4.53-4.44-8.62-9.34-12.19-14.61v-0.01c-0.73-1.08-1.44-2.18-2.12-3.3c-2.55-6.6-5.55-12.98-8.98-19.09
		c0-0.01-0.01-0.02-0.01-0.03c-25.75-46.01-74.95-77.12-131.43-77.12h-0.5c-54.08,0.18-101.44,28.87-127.82,71.84
		c-1.19,1.91-2.32,3.85-3.4,5.81c-0.21-0.24-0.33-0.55-0.33-0.92v-227c0-0.6,0.36-1.15,0.92-1.36
		c33.14-12.86,68.81-20.9,106.1-23.21h45.02c8.2,0.51,16.31,1.29,24.34,2.36C2273.03,2353.08,2373.48,2443.63,2413.45,2566.54z"/>
</g>
<path class="st1" d="M2417.72,2747.21c-38.11,141.32-168.61,245.42-323.74,245.42c-169.48,0-309.56-124.25-331.89-285.52
	c2.07-2.27,4.89-3.84,8.07-4.32c0.69-0.11,1.39-0.16,2.1-0.16h174.95c0.64,0,1.27,0.05,1.89,0.16h6.39c0.62,0,1.16,0.39,1.36,0.98
	c6.05,17.83,15.47,34.16,27.53,48.29c17.54,20.54,40.67,36.41,67.11,45.42c15.8,5.38,32.82,8.31,50.51,8.31h1.01
	c17.7,0,34.7-2.93,50.5-8.31c19.25-6.56,36.74-16.75,51.6-29.74c9.41-8.22,17.75-17.55,24.83-27.79
	c7.34-10.62,13.3-22.22,17.64-34.55c0.2-0.54,0.38-1.08,0.57-1.63c0.2-0.59,0.75-0.98,1.37-0.98h0.22
	c17.69-20.61,43.94-33.66,73.24-33.66c25.21,0,48.17,9.67,65.35,25.5c2.79,2.56,5.42,5.29,7.89,8.16
	C2406.91,2715.24,2414.48,2730.45,2417.72,2747.21z"/>
</svg>
