<?xml version="1.0" encoding="UTF-8"?>
<svg id="Layer_4" data-name="Layer 4" xmlns="http://www.w3.org/2000/svg" viewBox="0 0 4776.26 3474">
  <defs>
    <style>
      .cls-1 {
        fill: #ed1c24;
        stroke-width: 0px;
      }
    </style>
  </defs>
  <path class="cls-1" d="M4694.63,1852.29c-1.6-580.78-458.6-1096.5-1034.62-1161.23-118.39-16.64-248.45,15.9-268.71,150.64-11.69,90.27,46.86,169.15,135.95,185.3,34.49,7.63,70.91,10.42,106.07,16.46,116.86,18.82,235.22,63.28,330.85,123.29,16.43,12.35,45.41,33.07,61.87,47.1,9.94,7.44,18.29,14.81,26.25,21.67,65.86,59.61,123.08,128.55,167.7,204.79,1.09,1.86,2.16,3.72,3.23,5.59,1.07,1.86,2.13,3.73,3.18,5.6,13.65,24.18,26.01,49.08,36.99,74.64.62,1.42,1.23,2.84,1.83,4.27.14.33.28.67.42,1,.02.04.03.07.05.11.1.23.19.46.29.69,28.68,67.88,47.93,139.4,58.52,213.85-.76-6.14-1.57-12.24-2.41-18.3v-.12c-.29-2.12-.43-3.27-.43-3.38,0,.04,0,.08.02.12.01.06.02.11.03.17.12.81.24,1.64.37,2.49.02.19.05.39.08.58.08.55.16,1.11.24,1.67.25,1.75.5,3.56.75,5.39.42,3.04.84,6.17,1.23,9.29.09.67.18,1.33.26,2,.24,1.85.47,3.7.69,5.55.26,2.11.51,4.19.74,6.19-.5-3.89-1.02-7.77-1.57-11.65,1.51,12.12,2.85,24.37,4,36.66,27.62,417.65-262.28,835.49-699.6,897.25-45.81,6.89-87.87,9.22-132.22,10.11-251.28,3.08-641.22.49-898.5.56-56.01-.42-94.36.52-141.24-.19-7.54-.03-16.07-1.34-22.32-3.76-28.78-12.1,18.61-60.48,30.52-75.45,214.91-246.53,446.86-508.9,662.85-758.4,64.85-76.67,111.4-167.76,137.85-264.52,107.3-378.58-139.67-802.22-526.47-889.41-16.66-4.31-33.9-7.99-50.61-10.66-225.06-8.92-1082.62-.74-1554.1-3.77-133.13-2.41-272.4,7.46-394.78,65.52-239.71,106.9-403.03,353.75-418.33,612.53.03.4.05,1.04.08,1.9v.31c-.02-.36-.03-.7-.05-1.02,0-.06,0-.11-.01-.16,0-.14-.01-.26-.02-.39s-.02-.25-.03-.37c-.01.09-.01.17-.02.26v.03c-1.41,24.34-1.5,48.73-.25,73.1.01.19.01.39.02.58.01.12.01.26.02.42.01.07.01.15.02.22,0,.04.01.09.01.13,0,.03,0,.07.01.1,1.82,34.11,6.31,68.17,13.64,102,36.76,194.91,157.45,332.09,346.41,391.86,63.38,21.4,126.07,44.13,188.59,67.2h0s.06.03.09.04c-.02-.01-.03-.03-.03-.03,0-.01,0,0,0,0-.1-.1.32-.01,1.42.31.54.17,1.2.39,1.93.63.04.02.08.03.13.05.01.01.03.01.04.01.03.02.06.02.08.03.03.01.06.02.09.03.07.02.15.05.22.08.01,0,.03.01.04.02,5.18,1.74,13.65,4.82,15.83,5.96h.02s-.03.04-.09.04h-.02c-.2-.03-.69-.16-1.38-.37.22.08.43.16.65.25.02,0,.05.01.07.02,41.47,15.36,82.89,30.84,124.42,46.15,78.54,31.33,165.19,53.86,236.07,99.73,75.25,49.42,119.8,140.17,118.37,230.64.38,132.2-102.09,245.16-224.78,283.77-173.95,57.63-381.1-43.51-440.98-217.01-19.59-50.64-25.9-104.27-54.42-150.68-52.96-92.26-176.38-113.5-258.45-46.73-58.92,46.43-69.67,128.49-57.43,198.8,105.36,634.14,952.39,808.13,1301.86,268.25,179.49-267.51,162.45-707.78-144.65-874.68-71.55-39.74-151.17-59.21-227.83-86.68-110.14-40.89-220.96-78.93-332.29-116.01.23.09.46.19.68.28v.09s-.06,0-.09-.02c-.02,0-.03,0-.05-.02-.33-.08-.67-.16-1.03-.26.03,0,.06.02.09.04.01,0,.02,0,.03,0,.1.03.2.07.3.11.07.04.06.05-.04.03-.02,0-.05,0-.08-.01h-.04s-.04-.02-.06-.02c-.91-.28-1.97-.59-3.12-.96,0,0-.03,0-.04-.01-.18-.05-.36-.11-.54-.17-.36-.11-.72-.22-1.09-.33-.24-.07-.48-.15-.73-.23-6.82-2.1-14.59-4.77-20.28-6.83-.06-.02-.12-.05-.18-.06-.24-.09-.48-.18-.71-.26-.71-.26-1.37-.51-1.99-.74-.17-.06-.33-.12-.48-.17-.05-.02-.1-.04-.15-.06-.1-.04-.2-.07-.3-.11-.31-.12-.59-.24-.59-.27,0,0,.02-.01.06.01h.01s.13.02.24.04c.02.01.05.01.08.02,0,0,.02-.02.06-.02s.09.01.14.02c.03,0,.06,0,.09.01.66.19,1.35.38,2.07.59.06.02.11.03.17.05h0s.01.01.02.01c.53.16,1.08.32,1.64.48.56.16,1.14.33,1.73.52.2.05.41.11.62.19,2.49.74,5.14,1.59,7.79,2.46-336.91-113.17-247.59-536.68,76.11-591.53,34.62-6.27,63.6-7.12,96.15-6.93,331.24,3.55,1327.91-7.39,1557.08,3.95,94.88,18.17,185.91,74.36,238.94,156.92,87,128.81,71.53,310.91-29.98,426.96-6.23,7.18-13.83,15.53-17.2,20.49-.06.16.02.17.24.02-304.51,347.13-655.24,748.43-945.28,1079.71-108.28,107.52-76.07,272.63,74.66,316.35,22.05,6.36,36.43,7.18,56.1,7.6,180.11,1.46,863.17-.96,1233.02-.64,28.13-.74,55.62-2.34,83.27-3.33.13-.01.26-.01.39-.02,18.65-.66,37.36-1.06,56.11-.74,82.92,2.47,164.65,7.31,247.94-3.22,264.28-26.28,506.24-149.3,691.61-330.43.97-1.03,1.94-2.07,2.89-3.1t0-.02s.05-.04.08-.07c.01-.01.02-.02.04-.04,0-.01.01-.01.01-.02.47-.47.95-.94,1.44-1.42v-.02c6.24-6.75,12.47-13.52,18.72-20.29,0-.01.01-.01.02-.02,11.1-12.03,22.19-24.07,33.32-36.1,4.22-4.57,8.45-9.15,12.69-13.72,1.03-1.12,2.07-2.24,3.11-3.36,4.14-4.46,8.27-8.9,12.41-13.35h0s0-.02.02-.03c177.64-212.37,284.18-483.85,277.52-767.04ZM321.55,1436.66c-.03-.3-.04-.6-.05-.89-.52-10.16-.59-20.23-.62-30.98.07,10.77.17,20.72.62,30.82.01.34.03.68.05,1.02v.03ZM321.72,1437.62c-.03.45-.06.62-.09.62v.14s-.01-.1-.01-.15c0,.01.01.01.01.01.17-5.56.27-11.72.33-18.18-.02,6.03-.08,11.95-.24,17.56ZM1041.8,1037.17c-.61-.01-1.26-.03-1.94-.04,1.49.01,2.14.02,1.94.04ZM2659.63,1042.55s-.03-.01-.04-.01h.04ZM3468.31,2691.02c.06,0,.13,0,.19-.01.1-.01.19-.01.29,0-.16.01-.32.01-.48.01ZM3520.95,2691.55s.28-.01.31-.01c-.1,0-.21,0-.31.01ZM3526.24,2691.22c-.64.01-1.31.02-1.99.03.77-.01,1.52-.03,2.24-.05-.08.01-.16.02-.25.02ZM3527.45,2691.56s.04-.01.06-.02h.04s-.04.02-.1.02ZM4106.01,2428.81s-.07.07-.1.1c.12-.14.27-.3.44-.49-.11.13-.23.26-.34.39ZM4122.63,2410.55h0s.01-.01.01-.01h-.01ZM4330.83,1802.3c-.03-.28-.07-.6-.1-.96.04.36.08.68.1.96ZM4330.83,1802.33c.04.27.06.5.08.69-.03-.19-.05-.42-.08-.69ZM4693.72,1863.72c0,.59.02,1.01-.02,1.18,0-.11,0-.23,0-.38,0-.26.02-.53.03-.8ZM4694.63,1865.07c-.45-.01-.63-.02-.76-.04h-.01c-.08,0-.14-.01-.23-.01h0c.09-.04.15-.07.23-.1h.01c.13-.05.31-.09.76-.14v.29ZM2659.16,1041.54c-.02.61-.01.61,0,1h.47v-1h-.47ZM2659.27,1041.54v1s.04,0,.1,0h.26v-1h-.36ZM2659.4,1041.54h-.03q-.01.64-.02.65s.01.01.02.35h.04v-1ZM3463.68,2691.11c-.01-.16-.02-.36-.02-.57h-.03v1h.04c-.01-.41-.01-.42-.01-.42h.02ZM3463.91,2691.11c-.07,0-.16.01-.23.01.01.26.03.42.03.42h.02s1.93-.48,2.94-.49c-.95.02-1.87.04-2.76.06Z"/>
</svg>