<svg id="Layer_1" data-name="Layer 1" xmlns="http://www.w3.org/2000/svg" viewBox="0 0 819.84 463.24"><defs><style>.cls-1{fill:#f46060;}.cls-2{fill:#fff;stroke:#f46060;stroke-miterlimit:10;stroke-width:0.5px;}</style></defs><rect class="cls-1" y="0.25" width="756.97" height="462.74" rx="47.62"/><rect class="cls-2" x="62.63" y="0.25" width="756.97" height="462.74" rx="47.62"/><path class="cls-1" d="M963.22,443.92,956.37,467H936.88c1.27-3.79,28.31-93,29.74-97.27h25.63L1023.52,467h-20.81l-7.37-23.11Zm28.22-16.4c-6-19.71-10.26-33.63-12.46-42.71h-.16c-2.36,10.81-6.77,26-11.84,42.71Z" transform="translate(-608.41 -289.09)"/><path class="cls-1" d="M1035.57,369.76h19.83v81h43.43L1096.66,467h-61.09Z" transform="translate(-608.41 -289.09)"/><path class="cls-1" d="M1111.52,369.76h19.82v81h43.44L1172.61,467h-61.09Z" transform="translate(-608.41 -289.09)"/><path class="cls-1" d="M840.6,540.11h62.33V556.5H860.05v24.63h40.27v16.14H860.05v40.11H840.6Z" transform="translate(-608.41 -289.09)"/><path class="cls-1" d="M936.3,597.2v40.18H916.83V540.11h39.62c18.36,0,31.48,9.11,31.48,26.31,0,13.26-7,19.63-15.13,22.75,9.65,3.73,13.12,11.35,13.12,23.42v2.53a168.91,168.91,0,0,0,1.29,22.26H968.1c-1.4-4.09-1.81-10.63-1.81-22.58v-2.57c0-11.13-4-15-16.76-15Zm0-15.75h14.8c9.42,0,17.18-2.52,17.18-13.28,0-9-6.5-12.32-14.45-12.32H936.3Z" transform="translate(-608.41 -289.09)"/><path class="cls-1" d="M1066.59,594.94h-42.28v26.18H1071l-2.38,16.26H1005V540.11h63.38V556.5h-44v22h42.28Z" transform="translate(-608.41 -289.09)"/><path class="cls-1" d="M1146.8,594.94h-42.29v26.18h46.69l-2.39,16.26h-63.62V540.11h63.38V556.5h-44.06v22h42.29Z" transform="translate(-608.41 -289.09)"/><path class="cls-1" d="M1205,602.31l-2.07-45.45V540h20.48v16.87l-2.05,45.45Zm-1.57,35.07V614.92h19v22.46Z" transform="translate(-608.41 -289.09)"/><path class="cls-1" d="M1246.59,602.31l-2.07-45.45V540H1265v16.87l-2,45.45ZM1245,637.38V614.92h19v22.46Z" transform="translate(-608.41 -289.09)"/></svg>