<svg id="Layer_1" data-name="Layer 1" xmlns="http://www.w3.org/2000/svg" viewBox="0 0 1142.81 645.72"><defs><style>.cls-1{fill:#f46060;}.cls-2{fill:#fff;stroke:#f46060;stroke-miterlimit:10;stroke-width:0.5px;}</style></defs><rect class="cls-1" x="455.61" y="334.94" width="125.61" height="76.79" rx="13.64"/><rect class="cls-2" x="466.01" y="334.94" width="125.61" height="76.79" rx="13.64"/><path class="cls-1" d="M919.7,542a3.32,3.32,0,0,1,0,.47c0,.13,0,.25,0,.34a.82.82,0,0,1-.08.25,1,1,0,0,1-.18.22,2.34,2.34,0,0,1-.47.33,6.51,6.51,0,0,1-.86.39,7.31,7.31,0,0,1-1.15.31,7.63,7.63,0,0,1-1.39.13,7.3,7.3,0,0,1-2.67-.46,5.31,5.31,0,0,1-2-1.36,6.27,6.27,0,0,1-1.28-2.26,11.22,11.22,0,0,1,.05-6.39A6.84,6.84,0,0,1,911,531.6a5.5,5.5,0,0,1,2.1-1.46,7,7,0,0,1,2.7-.51,7.26,7.26,0,0,1,1.16.1,6.89,6.89,0,0,1,1,.26,5,5,0,0,1,.84.37,1.94,1.94,0,0,1,.73.6.8.8,0,0,1,.08.26,3.53,3.53,0,0,1,0,.38,4,4,0,0,1,0,.52,4.7,4.7,0,0,1,0,.56,1.14,1.14,0,0,1-.08.38.54.54,0,0,1-.13.21.23.23,0,0,1-.18.06.72.72,0,0,1-.42-.19c-.18-.13-.39-.28-.66-.44a5.74,5.74,0,0,0-1-.44,4,4,0,0,0-1.33-.19,3.22,3.22,0,0,0-1.53.35,3.11,3.11,0,0,0-1.13,1,5,5,0,0,0-.72,1.57,8.26,8.26,0,0,0-.24,2.08,7.92,7.92,0,0,0,.26,2.19,4.29,4.29,0,0,0,.75,1.53,3,3,0,0,0,1.16.89A4,4,0,0,0,916,542a4.88,4.88,0,0,0,1.34-.18,5.38,5.38,0,0,0,1-.4A6.56,6.56,0,0,0,919,541a1,1,0,0,1,.41-.18.21.21,0,0,1,.17.05.36.36,0,0,1,.12.18,1.41,1.41,0,0,1,.06.37c0,.16,0,.37,0,.63Z" transform="translate(-436.44 -166.99)"/><path class="cls-1" d="M934.54,536.84a10.84,10.84,0,0,1-.44,3.19,6.36,6.36,0,0,1-1.31,2.39,5.77,5.77,0,0,1-2.18,1.49,8,8,0,0,1-3,.52,8.75,8.75,0,0,1-2.92-.44,5,5,0,0,1-2.08-1.33,5.8,5.8,0,0,1-1.25-2.29,11.65,11.65,0,0,1-.42-3.27,10.38,10.38,0,0,1,.44-3.13,6.35,6.35,0,0,1,1.31-2.37,5.91,5.91,0,0,1,2.18-1.5,8.13,8.13,0,0,1,3-.51,8.5,8.5,0,0,1,2.87.43,5.28,5.28,0,0,1,2.09,1.33,5.92,5.92,0,0,1,1.27,2.28,10.66,10.66,0,0,1,.42,3.22Zm-3.07.16a11.84,11.84,0,0,0-.17-2.06,4.75,4.75,0,0,0-.6-1.59,2.88,2.88,0,0,0-1.14-1,3.77,3.77,0,0,0-1.77-.36,3.6,3.6,0,0,0-1.8.41,3.2,3.2,0,0,0-1.17,1.08,4.84,4.84,0,0,0-.63,1.58A9,9,0,0,0,924,537a12.12,12.12,0,0,0,.18,2.11,4.53,4.53,0,0,0,.6,1.61,3,3,0,0,0,1.14,1,4.21,4.21,0,0,0,1.78.35,3.68,3.68,0,0,0,1.8-.4,3.07,3.07,0,0,0,1.17-1.09,4.78,4.78,0,0,0,.63-1.6,9.49,9.49,0,0,0,.18-2Z" transform="translate(-436.44 -166.99)"/><path class="cls-1" d="M948.82,543.16a1.3,1.3,0,0,1-.09.46,1.16,1.16,0,0,1-.24.34.83.83,0,0,1-.36.19,1.42,1.42,0,0,1-.42.07h-1.25a2.48,2.48,0,0,1-.66-.08,1.47,1.47,0,0,1-.52-.28,2.39,2.39,0,0,1-.46-.55c-.14-.23-.3-.54-.5-.91l-3.57-6.71c-.21-.41-.42-.83-.63-1.3s-.41-.91-.58-1.35h0q0,.81.06,1.59c0,.54,0,1.07,0,1.64v7.51a.49.49,0,0,1-.06.19.37.37,0,0,1-.21.15,3.08,3.08,0,0,1-.41.1c-.18,0-.39,0-.65,0a4.17,4.17,0,0,1-.65,0,1.1,1.1,0,0,1-.4-.1.36.36,0,0,1-.2-.15.45.45,0,0,1,0-.19v-12.9a1,1,0,0,1,.31-.78,1.15,1.15,0,0,1,.75-.25h1.55a3.07,3.07,0,0,1,.72.06,1.64,1.64,0,0,1,.52.24,2.11,2.11,0,0,1,.42.46,4.05,4.05,0,0,1,.4.73l2.8,5.24.48.94c.16.31.31.61.46.92s.29.62.43.91.28.59.41.89h0c0-.52,0-1-.05-1.62s0-1.1,0-1.6v-6.74a.44.44,0,0,1,.07-.19.59.59,0,0,1,.22-.16,1.37,1.37,0,0,1,.41-.1,5.67,5.67,0,0,1,.65,0,4,4,0,0,1,.63,0,1.09,1.09,0,0,1,.39.1.35.35,0,0,1,.19.16.34.34,0,0,1,0,.19v12.9Z" transform="translate(-436.44 -166.99)"/><path class="cls-1" d="M960,531a3.21,3.21,0,0,1,0,.57,1.26,1.26,0,0,1-.09.35.39.39,0,0,1-.13.2.21.21,0,0,1-.17.06H954.9v3.86h4.39a.71.71,0,0,1,.18,0,.39.39,0,0,1,.13.2.82.82,0,0,1,.08.35,4.32,4.32,0,0,1,0,.56,2.29,2.29,0,0,1,0,.55,1.27,1.27,0,0,1-.08.37.47.47,0,0,1-.13.21.36.36,0,0,1-.18.07H954.9v5.33a.31.31,0,0,1-.07.21.42.42,0,0,1-.24.15,4,4,0,0,1-.45.1c-.18,0-.43,0-.72,0a4.66,4.66,0,0,1-.7,0,2.17,2.17,0,0,1-.45-.1A.83.83,0,0,1,952,544a.31.31,0,0,1-.07-.21v-13a.83.83,0,0,1,.25-.69,1,1,0,0,1,.61-.21h6.75a.36.36,0,0,1,.18.06.4.4,0,0,1,.13.19,1.2,1.2,0,0,1,.08.38,4.56,4.56,0,0,1,0,.57Z" transform="translate(-436.44 -166.99)"/><path class="cls-1" d="M974.09,538.83a6.77,6.77,0,0,1-.39,2.37,4.62,4.62,0,0,1-1.14,1.77,4.92,4.92,0,0,1-1.86,1.1,8,8,0,0,1-2.55.38,7.87,7.87,0,0,1-2.43-.35,4.57,4.57,0,0,1-1.82-1,4.24,4.24,0,0,1-1.13-1.72,6.75,6.75,0,0,1-.39-2.4v-8.73a.39.39,0,0,1,.06-.19.66.66,0,0,1,.24-.15,3,3,0,0,1,.46-.08c.18,0,.42,0,.71,0a4.66,4.66,0,0,1,.7,0,2.72,2.72,0,0,1,.44.08.62.62,0,0,1,.24.15.3.3,0,0,1,.07.19v8.47a4.37,4.37,0,0,0,.21,1.48,2.79,2.79,0,0,0,.6,1,2.59,2.59,0,0,0,.94.61,3.21,3.21,0,0,0,1.23.21,3.14,3.14,0,0,0,1.23-.21,2.55,2.55,0,0,0,.93-.61,3,3,0,0,0,.58-1,4.25,4.25,0,0,0,.21-1.35v-8.64a.47.47,0,0,1,.07-.2.7.7,0,0,1,.23-.14,1.83,1.83,0,0,1,.45-.08,6.47,6.47,0,0,1,.7,0,3.45,3.45,0,0,1,.69,0,2.05,2.05,0,0,1,.44.08.34.34,0,0,1,.23.14.51.51,0,0,1,.06.2v8.6Z" transform="translate(-436.44 -166.99)"/><path class="cls-1" d="M985.7,539.87a4.44,4.44,0,0,1-.42,2,4.17,4.17,0,0,1-1.13,1.43,5.39,5.39,0,0,1-1.69.86,7.27,7.27,0,0,1-2.06.29,6,6,0,0,1-1.38-.13,8.63,8.63,0,0,1-1.12-.29,4.84,4.84,0,0,1-.81-.36,2.75,2.75,0,0,1-.47-.34.87.87,0,0,1-.21-.42,4.53,4.53,0,0,1-.07-.78,5,5,0,0,1,0-.58,1.21,1.21,0,0,1,.06-.38.76.76,0,0,1,.13-.21.27.27,0,0,1,.2-.06,1.08,1.08,0,0,1,.44.17c.19.12.44.26.73.41a7.2,7.2,0,0,0,1.05.41,4.8,4.8,0,0,0,1.43.17,3.23,3.23,0,0,0,1-.13,2.35,2.35,0,0,0,.71-.35,1.57,1.57,0,0,0,.45-.59,1.85,1.85,0,0,0,.17-.76,1.35,1.35,0,0,0-.26-.84,2.35,2.35,0,0,0-.7-.62,5.88,5.88,0,0,0-1-.5l-1.12-.5a10,10,0,0,1-1.12-.6,5.47,5.47,0,0,1-1-.82,3.66,3.66,0,0,1-.69-1.12,4,4,0,0,1-.26-1.54,4,4,0,0,1,.39-1.81,3.79,3.79,0,0,1,1-1.3,4.81,4.81,0,0,1,1.53-.78,6.34,6.34,0,0,1,1.86-.26,7,7,0,0,1,1,.08,7.87,7.87,0,0,1,1,.21,8.07,8.07,0,0,1,.8.29,3.15,3.15,0,0,1,.45.28.61.61,0,0,1,.15.2.44.44,0,0,1,.06.21,1.32,1.32,0,0,1,0,.32v.49a4.11,4.11,0,0,1,0,.53c0,.15,0,.28-.05.38a.52.52,0,0,1-.11.21.27.27,0,0,1-.2.06.89.89,0,0,1-.39-.16c-.17-.11-.39-.21-.65-.34a5.94,5.94,0,0,0-.89-.34,3.94,3.94,0,0,0-1.12-.15,2.22,2.22,0,0,0-.82.12,1.5,1.5,0,0,0-.6.32,1.23,1.23,0,0,0-.36.49,1.51,1.51,0,0,0-.11.61,1.29,1.29,0,0,0,.26.83,2.46,2.46,0,0,0,.69.62,6.53,6.53,0,0,0,1,.5l1.14.5a12.21,12.21,0,0,1,1.13.6,4.93,4.93,0,0,1,1,.81,3.65,3.65,0,0,1,1,2.62Z" transform="translate(-436.44 -166.99)"/><path class="cls-1" d="M996.44,543a2.92,2.92,0,0,1,0,.54,2.18,2.18,0,0,1-.08.36.4.4,0,0,1-.15.19.26.26,0,0,1-.18.07h-7.2a.86.86,0,0,1-.61-.22.84.84,0,0,1-.25-.69V530.77a.85.85,0,0,1,.25-.7,1,1,0,0,1,.61-.21H996a.71.71,0,0,1,.18,0,.35.35,0,0,1,.13.19,1.6,1.6,0,0,1,.08.36,4.22,4.22,0,0,1,0,.55,2.59,2.59,0,0,1,0,.52,1.49,1.49,0,0,1-.08.36.46.46,0,0,1-.13.19.29.29,0,0,1-.18.07h-5.12v3.5h4.33a.42.42,0,0,1,.18.07.84.84,0,0,1,.14.19,1.21,1.21,0,0,1,.08.34,3.93,3.93,0,0,1,0,.52,2.24,2.24,0,0,1,0,.54,1.21,1.21,0,0,1-.08.34.37.37,0,0,1-.14.18.45.45,0,0,1-.18,0h-4.33v4H996a.42.42,0,0,1,.18.07.52.52,0,0,1,.15.19,1.79,1.79,0,0,1,.08.36c0,.14,0,.32,0,.53Z" transform="translate(-436.44 -166.99)"/><path class="cls-1" d="M1010.93,536.79a9.9,9.9,0,0,1-.52,3.37,5.62,5.62,0,0,1-1.48,2.29,6,6,0,0,1-2.35,1.3,11.7,11.7,0,0,1-3.29.42h-3.42a.91.91,0,0,1-.62-.21.9.9,0,0,1-.24-.7V530.75a.86.86,0,0,1,.24-.69,1,1,0,0,1,.62-.21h3.68a10,10,0,0,1,3.26.45,5.88,5.88,0,0,1,2.25,1.33,5.69,5.69,0,0,1,1.4,2.17,8.63,8.63,0,0,1,.47,3Zm-3,.1a7.11,7.11,0,0,0-.24-1.9,4.15,4.15,0,0,0-.76-1.53,3.7,3.7,0,0,0-1.35-1,5.34,5.34,0,0,0-2.17-.36h-1.48v9.77h1.52a5.64,5.64,0,0,0,2-.31,3.3,3.3,0,0,0,1.36-.94,4.55,4.55,0,0,0,.83-1.56A8.25,8.25,0,0,0,1007.91,536.89Z" transform="translate(-436.44 -166.99)"/><path class="cls-1" d="M1021.38,533.22a5,5,0,0,1-.26,1.64,4.21,4.21,0,0,1-.73,1.26,3.61,3.61,0,0,1-1.14.86,4.26,4.26,0,0,1-1.46.41l-.08,2.16c0,.13-.11.22-.33.29a3.14,3.14,0,0,1-.87.1,5.64,5.64,0,0,1-.62,0,1.71,1.71,0,0,1-.39-.07.38.38,0,0,1-.21-.13.41.41,0,0,1-.08-.19l-.1-2.61a2.56,2.56,0,0,1,0-.59.76.76,0,0,1,.16-.35.53.53,0,0,1,.29-.18,1.67,1.67,0,0,1,.42,0h.16a2.4,2.4,0,0,0,1-.19,2,2,0,0,0,.7-.51,1.93,1.93,0,0,0,.4-.73,3.19,3.19,0,0,0,.13-.89,3.24,3.24,0,0,0-.14-1,2.08,2.08,0,0,0-.46-.77,1.84,1.84,0,0,0-.76-.48A3,3,0,0,0,1016,531a3.83,3.83,0,0,0-1,.11c-.29.08-.54.17-.75.25a4.33,4.33,0,0,0-.52.24.64.64,0,0,1-.31.11.22.22,0,0,1-.14,0,.39.39,0,0,1-.12-.17,2,2,0,0,1-.06-.38,5.16,5.16,0,0,1,0-.61,2.82,2.82,0,0,1,0-.57.54.54,0,0,1,.15-.29,1.12,1.12,0,0,1,.42-.26,4.43,4.43,0,0,1,.74-.28,8.51,8.51,0,0,1,1-.21,7.8,7.8,0,0,1,1.1-.08,5.94,5.94,0,0,1,2.24.36,4.14,4.14,0,0,1,1.53,1,4.07,4.07,0,0,1,.87,1.39,5.15,5.15,0,0,1,.28,1.68Zm-3.3,9.51a3.39,3.39,0,0,1-.06.76,1,1,0,0,1-.26.5,1.17,1.17,0,0,1-.49.28,3,3,0,0,1-.74.08,3.25,3.25,0,0,1-.77-.08,1.05,1.05,0,0,1-.48-.28,1,1,0,0,1-.26-.5,3.33,3.33,0,0,1-.07-.76,3.46,3.46,0,0,1,.07-.78,1,1,0,0,1,.26-.51,1,1,0,0,1,.48-.27,3.31,3.31,0,0,1,.77-.08,3,3,0,0,1,.74.08.94.94,0,0,1,.49.27,1.23,1.23,0,0,1,.26.51A3.53,3.53,0,0,1,1018.08,542.73Z" transform="translate(-436.44 -166.99)"/><rect class="cls-1" y="0.25" width="1055.33" height="645.22" rx="114.62"/><rect class="cls-2" x="87.23" y="0.25" width="1055.33" height="645.22" rx="114.62"/><path class="cls-1" d="M745.15,410.8a29.84,29.84,0,0,1,1.36,5.32,3.44,3.44,0,0,1-.68,3,5.8,5.8,0,0,1-3.68,1.23c-1.77.14-4.09.27-7.22.27s-5.59,0-7.36-.13a23.39,23.39,0,0,1-4.09-.55,2.94,2.94,0,0,1-1.91-1.22,12.55,12.55,0,0,1-1-1.91l-8-24.26H667.33l-7.64,23.58a8.13,8.13,0,0,1-1,2.18,4.08,4.08,0,0,1-1.91,1.36,18.11,18.11,0,0,1-3.81.68c-1.64.14-3.82.14-6.55.14a44.28,44.28,0,0,1-6.68-.28,6.1,6.1,0,0,1-3.4-1.36,3.57,3.57,0,0,1-.68-3,32.49,32.49,0,0,1,1.36-5.18l37.21-107a9.33,9.33,0,0,1,1.36-2.59,5,5,0,0,1,2.32-1.5,17.52,17.52,0,0,1,4.5-.68c1.9-.13,4.49-.13,7.63-.13,3.68,0,6.54,0,8.72.13a21.45,21.45,0,0,1,5,.68,5.2,5.2,0,0,1,2.59,1.5,9.25,9.25,0,0,1,1.37,2.87L745,410.8Zm-55.34-88.45h0l-17,51.24H707l-17-51.24Z" transform="translate(-436.44 -166.99)"/><path class="cls-1" d="M902.57,416.66a3.8,3.8,0,0,1-.54,1.64,4.2,4.2,0,0,1-1.91,1.22,17.35,17.35,0,0,1-3.55.68c-1.5.14-3.4.28-5.72.28a32.25,32.25,0,0,1-5.59-.28,30.79,30.79,0,0,1-3.54-.68,3.89,3.89,0,0,1-1.91-1.22,2.63,2.63,0,0,1-.55-1.64V318.53h-.13l-34.89,98a5.21,5.21,0,0,1-1.23,2.05,5.5,5.5,0,0,1-2.32,1.23,13.22,13.22,0,0,1-3.68.54c-1.5,0-3.27.14-5.45.14a31.36,31.36,0,0,1-5.45-.28c-1.5-.27-2.73-.4-3.68-.68a7.61,7.61,0,0,1-2.32-1.22,3.07,3.07,0,0,1-1.09-1.78l-33.66-98h-.14v98.13a3.8,3.8,0,0,1-.54,1.64,4.29,4.29,0,0,1-1.91,1.22,20.21,20.21,0,0,1-3.55.68c-1.36.14-3.4.28-5.58.28a33.09,33.09,0,0,1-5.59-.28,31,31,0,0,1-3.55-.68,3.86,3.86,0,0,1-1.9-1.22,2.63,2.63,0,0,1-.55-1.64V309.26c0-3.13.82-5.59,2.45-7.22a9.17,9.17,0,0,1,6.68-2.46h16.09a37.51,37.51,0,0,1,7.36.69,13.33,13.33,0,0,1,5.31,2.31,12.32,12.32,0,0,1,3.68,4.23,29.78,29.78,0,0,1,2.59,6.54l26,71.83h.41l27-71.69a45.36,45.36,0,0,1,2.59-6.68,12.43,12.43,0,0,1,3.4-4.36,11,11,0,0,1,4.5-2.32,26.83,26.83,0,0,1,6-.68h16.49a13.85,13.85,0,0,1,4.36.68,7.55,7.55,0,0,1,3,1.91,7.74,7.74,0,0,1,1.77,3.13,12.9,12.9,0,0,1,.55,4.09v107.4Z" transform="translate(-436.44 -166.99)"/><path class="cls-1" d="M1027.55,410.8a30.91,30.91,0,0,1,1.37,5.32c.13,1.36,0,2.31-.69,3a5.78,5.78,0,0,1-3.68,1.23c-1.77.14-4.08.27-7.22.27s-5.59,0-7.36-.13a23.53,23.53,0,0,1-4.09-.55,3,3,0,0,1-1.91-1.22,12.55,12.55,0,0,1-1-1.91l-8-24.26H949.73l-7.63,23.58a8.47,8.47,0,0,1-1,2.18,4.08,4.08,0,0,1-1.91,1.36,18,18,0,0,1-3.81.68c-1.64.14-3.82.14-6.54.14a44.14,44.14,0,0,1-6.68-.28,6.11,6.11,0,0,1-3.41-1.36,3.57,3.57,0,0,1-.68-3,32.49,32.49,0,0,1,1.36-5.18l37.21-107a9.33,9.33,0,0,1,1.36-2.59,5,5,0,0,1,2.32-1.5,17.52,17.52,0,0,1,4.5-.68c1.91-.13,4.49-.13,7.63-.13,3.68,0,6.54,0,8.72.13a21.63,21.63,0,0,1,5,.68,5.29,5.29,0,0,1,2.59,1.5,9.49,9.49,0,0,1,1.36,2.87l37.21,106.85Zm-55.33-88.45h0l-17,51.24h34.21l-17-51.24Z" transform="translate(-436.44 -166.99)"/><path class="cls-1" d="M1109.74,309.4a23.71,23.71,0,0,1-.27,4.63c-.28,1.23-.41,2.32-.69,3.14a3.5,3.5,0,0,1-1.22,1.77,2.28,2.28,0,0,1-1.5.54h-30.12v97.18a3.72,3.72,0,0,1-.55,1.64,4.74,4.74,0,0,1-2,1.22,18.57,18.57,0,0,1-3.82.68c-1.63.14-3.54.28-5.86.28a35.66,35.66,0,0,1-5.86-.28c-1.5-.27-2.86-.4-3.82-.68a3.76,3.76,0,0,1-2-1.22,2.63,2.63,0,0,1-.55-1.64V319.48h-30.12a4.18,4.18,0,0,1-1.63-.54,3.28,3.28,0,0,1-1.09-1.77,13.06,13.06,0,0,1-.68-3.14,43.45,43.45,0,0,1-.28-4.63,25,25,0,0,1,.28-4.77,26.87,26.87,0,0,1,.68-3.14,3.05,3.05,0,0,1,1.09-1.63,2.86,2.86,0,0,1,1.63-.55h84.91a3.33,3.33,0,0,1,1.5.55,8.52,8.52,0,0,1,1.23,1.63,8.11,8.11,0,0,1,.68,3.14,44.24,44.24,0,0,1,.27,4.77Z" transform="translate(-436.44 -166.99)"/><path class="cls-1" d="M1195.47,410.39a21.55,21.55,0,0,1-.28,4.5c-.27,1.23-.4,2.18-.68,3a3.07,3.07,0,0,1-1.22,1.63,2.29,2.29,0,0,1-1.5.55h-60.52a7.53,7.53,0,0,1-5.18-1.77c-1.36-1.23-2-3.14-2-5.86V307.35c0-2.72.68-4.77,2-5.86a8.23,8.23,0,0,1,5.18-1.77h60.24a5,5,0,0,1,1.5.41,3.1,3.1,0,0,1,1.09,1.63,13.91,13.91,0,0,1,.69,3,42.07,42.07,0,0,1,.27,4.64,20.22,20.22,0,0,1-.27,4.36c-.28,1.09-.41,2.18-.69,3a3.81,3.81,0,0,1-1.09,1.63,2,2,0,0,1-1.5.55h-43.06v29.44h36.39a3.27,3.27,0,0,1,1.5.54,5.84,5.84,0,0,1,1.22,1.64,7.86,7.86,0,0,1,.68,2.86,38.34,38.34,0,0,1,.28,4.36,21.77,21.77,0,0,1-1,7.36,2.74,2.74,0,0,1-1.22,1.5,3.17,3.17,0,0,1-1.5.41h-36.39v34.07h43.47a3.33,3.33,0,0,1,1.5.55,5.74,5.74,0,0,1,1.23,1.63,9,9,0,0,1,.68,3,39.09,39.09,0,0,1,.27,4.5Z" transform="translate(-436.44 -166.99)"/><path class="cls-1" d="M1315.41,375.09a57,57,0,0,1-3.27,19.9,39.4,39.4,0,0,1-9.55,14.86,41.56,41.56,0,0,1-15.67,9.26,64.9,64.9,0,0,1-21.4,3.14,67.61,67.61,0,0,1-20.44-2.86,39.79,39.79,0,0,1-15.27-8.59,37.25,37.25,0,0,1-9.54-14.45,57.46,57.46,0,0,1-3.27-20.17V302.85a3.69,3.69,0,0,1,.55-1.63,4.85,4.85,0,0,1,2-1.23,20,20,0,0,1,3.82-.68c1.63-.14,3.54-.27,6-.27a36.2,36.2,0,0,1,5.87.27c1.49.27,2.86.41,3.68.68a4.39,4.39,0,0,1,2,1.23,2.59,2.59,0,0,1,.54,1.63V374a37.12,37.12,0,0,0,1.78,12.4,24.84,24.84,0,0,0,5,8.73,22.33,22.33,0,0,0,7.9,5.18,31.2,31.2,0,0,0,20.72,0,21.73,21.73,0,0,0,7.77-5.18,23.57,23.57,0,0,0,4.91-8.45,33,33,0,0,0,1.77-11.32V302.72a3.8,3.8,0,0,1,.54-1.64,5.08,5.08,0,0,1,1.91-1.22,17.37,17.37,0,0,1,3.82-.69c1.63-.13,3.54-.27,5.86-.27a37,37,0,0,1,5.86.27c1.5.28,2.73.41,3.68.69a3,3,0,0,1,1.91,1.22,3.92,3.92,0,0,1,.54,1.64V375Z" transform="translate(-436.44 -166.99)"/><path class="cls-1" d="M1431.12,416.8a2.65,2.65,0,0,1-.41,1.77,3.75,3.75,0,0,1-1.77,1.23,14.45,14.45,0,0,1-4.09.68c-1.77.13-4.22.13-7.36.13-2.59,0-4.63,0-6.27-.13a18.45,18.45,0,0,1-3.68-.68,3.52,3.52,0,0,1-1.91-1.37,7.93,7.93,0,0,1-1-1.91l-10.77-27c-1.36-3-2.59-5.73-3.81-8a24.7,24.7,0,0,0-4.09-5.86,15.82,15.82,0,0,0-5.32-3.55,18,18,0,0,0-7-1.22h-7.63V416.8a3.69,3.69,0,0,1-.55,1.63,4.75,4.75,0,0,1-2,1.23,20.49,20.49,0,0,1-3.68.68c-1.5.14-3.55.27-6,.27a36.13,36.13,0,0,1-5.86-.27c-1.5-.27-2.86-.41-3.82-.68a2.89,2.89,0,0,1-1.9-1.23,3.76,3.76,0,0,1-.55-1.63V307.35c0-2.72.68-4.77,2-5.86a8.18,8.18,0,0,1,5.18-1.77h31.21c3.13,0,5.72,0,7.77.14s3.95.27,5.58.41a50.73,50.73,0,0,1,13.09,3.54,29.54,29.54,0,0,1,9.81,6.54,28,28,0,0,1,6.13,9.54,36.15,36.15,0,0,1,2.18,12.68,39.47,39.47,0,0,1-1.49,11,28.71,28.71,0,0,1-4.5,8.86,29.49,29.49,0,0,1-7.36,6.81,37,37,0,0,1-9.95,4.63,24,24,0,0,1,5,3.14,28.14,28.14,0,0,1,4.5,4.5,50.12,50.12,0,0,1,4,6,79.87,79.87,0,0,1,3.68,7.64l10.22,23.71c1,2.32,1.5,4.09,1.91,5.18a6.67,6.67,0,0,1,.41,2.59ZM1399.5,335a18.22,18.22,0,0,0-2.73-10.09c-1.77-2.72-4.77-4.63-8.85-5.72a31.53,31.53,0,0,0-4.23-.68c-1.64-.14-3.82-.27-6.54-.27h-11v34.21h12.54a30.15,30.15,0,0,0,9.13-1.23,19,19,0,0,0,6.54-3.54,15.53,15.53,0,0,0,4-5.46,16.73,16.73,0,0,0,1.37-7.08Z" transform="translate(-436.44 -166.99)"/><path class="cls-1" d="M776.5,619.74a33.55,33.55,0,0,1-.14,4c-.13,1.09-.27,2-.41,2.86a7.14,7.14,0,0,1-.68,2.05,8.27,8.27,0,0,1-1.5,1.91,20.57,20.57,0,0,1-3.95,2.72,53.14,53.14,0,0,1-7.22,3.27,55.26,55.26,0,0,1-9.68,2.59,63.6,63.6,0,0,1-11.72,1.09,61,61,0,0,1-22.35-3.81A44.3,44.3,0,0,1,702,624.92,52.12,52.12,0,0,1,691.18,606c-2.59-7.63-3.68-16.35-3.68-26.44a84.2,84.2,0,0,1,4.09-27.26,57.44,57.44,0,0,1,11.45-20A46.1,46.1,0,0,1,720.75,520a61.44,61.44,0,0,1,22.63-4.22,56.19,56.19,0,0,1,9.68.81,49.28,49.28,0,0,1,8.58,2.19,41.89,41.89,0,0,1,7.09,3.13,25.65,25.65,0,0,1,4.36,3,19,19,0,0,1,1.77,2,4.53,4.53,0,0,1,.68,2.18c.14,1,.28,1.91.41,3.14a40,40,0,0,1,.14,4.36c0,1.91,0,3.41-.14,4.77a8.84,8.84,0,0,1-.68,3.14,6.8,6.8,0,0,1-1.09,1.77,2,2,0,0,1-1.5.54c-.95,0-2-.54-3.54-1.63a65.71,65.71,0,0,0-5.59-3.68,44,44,0,0,0-8-3.68,34,34,0,0,0-11.18-1.64,26.59,26.59,0,0,0-12.81,3,26.88,26.88,0,0,0-9.54,8.45,40.84,40.84,0,0,0-6,13.22,68.25,68.25,0,0,0-2,17.45,66.8,66.8,0,0,0,2.18,18.4,36.26,36.26,0,0,0,6.27,12.81A25,25,0,0,0,732.2,617a32.68,32.68,0,0,0,12.95,2.46,40,40,0,0,0,11.31-1.5,42.52,42.52,0,0,0,8.18-3.41,46.17,46.17,0,0,0,5.59-3.41,6.25,6.25,0,0,1,3.41-1.5c.68,0,1.09,0,1.5.41a3.21,3.21,0,0,1,1,1.5,14.46,14.46,0,0,1,.54,3.14c.14,1.36.14,3.13.14,5.31Z" transform="translate(-436.44 -166.99)"/><path class="cls-1" d="M901.21,576.4a90.84,90.84,0,0,1-3.68,26.85,53.1,53.1,0,0,1-11,20,48.1,48.1,0,0,1-18.27,12.54,68.07,68.07,0,0,1-25.07,4.36q-14.11,0-24.54-3.68a42.28,42.28,0,0,1-17.44-11.17,48.41,48.41,0,0,1-10.5-19.22,96.74,96.74,0,0,1-3.54-27.53,87.16,87.16,0,0,1,3.68-26.31,53.42,53.42,0,0,1,11-19.9,48.12,48.12,0,0,1,18.26-12.53,68.19,68.19,0,0,1,25.22-4.37c9.54,0,17.17,1.23,24.12,3.68A43.85,43.85,0,0,1,887,530.33c4.77,5,8.18,11.31,10.63,19.08s3.55,16.77,3.55,27.12Zm-25.76,1.22a96.52,96.52,0,0,0-1.5-17.3,38.16,38.16,0,0,0-5-13.36,24.29,24.29,0,0,0-9.54-8.59c-4-2-9-3-14.86-3s-11,1.09-15.13,3.41a27.52,27.52,0,0,0-9.81,9.13,39.49,39.49,0,0,0-5.32,13.22,76,76,0,0,0-1.5,16.09,99.12,99.12,0,0,0,1.5,17.71,40,40,0,0,0,5,13.5,23.22,23.22,0,0,0,9.55,8.58c3.95,2,9,3,15,3s11-1.09,15.13-3.41a27.35,27.35,0,0,0,9.81-9.13A40.13,40.13,0,0,0,874.09,594a79.41,79.41,0,0,0,1.49-16.36Z" transform="translate(-436.44 -166.99)"/><path class="cls-1" d="M1022,576c0,11-1.49,20.44-4.36,28.35a47.91,47.91,0,0,1-12.4,19.22,49.91,49.91,0,0,1-19.76,10.9c-7.77,2.32-16.9,3.54-27.67,3.54H929a7.49,7.49,0,0,1-5.18-1.77c-1.36-1.23-2-3.13-2-5.86V525.29c0-2.73.68-4.77,2-5.86a8.23,8.23,0,0,1,5.18-1.77H960c10.77,0,19.9,1.22,27.4,3.81a51.39,51.39,0,0,1,18.94,11.18A47.82,47.82,0,0,1,1018,550.91c2.73,7.22,4,15.67,4,25.22Zm-25.35.82a59.54,59.54,0,0,0-2-15.95,36.32,36.32,0,0,0-6.41-12.81,28.36,28.36,0,0,0-11.31-8.45c-4.63-2.05-10.77-3-18.26-3H946.18v82H959c6.67,0,12.4-.82,16.9-2.59a28.36,28.36,0,0,0,11.45-7.91,37.58,37.58,0,0,0,6.95-13.08A61.5,61.5,0,0,0,996.61,576.81Z" transform="translate(-436.44 -166.99)"/><path class="cls-1" d="M1066.67,634.73a3.72,3.72,0,0,1-.55,1.64,4.68,4.68,0,0,1-2,1.22,19.39,19.39,0,0,1-3.68.69c-1.5.13-3.54.27-6,.27a36.13,36.13,0,0,1-5.86-.27c-1.5-.28-2.86-.41-3.81-.69a3.75,3.75,0,0,1-2-1.22,2.62,2.62,0,0,1-.54-1.64V520.93a3.67,3.67,0,0,1,.54-1.64,4.83,4.83,0,0,1,2-1.23,19.91,19.91,0,0,1,3.81-.68c1.64-.13,3.55-.27,5.86-.27a39.82,39.82,0,0,1,6,.27,32.69,32.69,0,0,1,3.68.68,4.37,4.37,0,0,1,2,1.23,2.63,2.63,0,0,1,.55,1.64Z" transform="translate(-436.44 -166.99)"/><path class="cls-1" d="M1192.33,629.42a11.14,11.14,0,0,1-.68,3.81,8.66,8.66,0,0,1-2,2.87,7.26,7.26,0,0,1-3,1.63,10.69,10.69,0,0,1-3.55.55h-10.49a21.52,21.52,0,0,1-5.59-.69,12.13,12.13,0,0,1-4.36-2.31,19.4,19.4,0,0,1-3.82-4.64c-1.22-1.91-2.59-4.49-4.22-7.63l-30-56.43c-1.77-3.4-3.54-7-5.31-10.9s-3.41-7.63-4.91-11.31h-.13c.27,4.5.4,9,.54,13.36s.14,9,.14,13.76V634.6a3.69,3.69,0,0,1-.55,1.63,4.47,4.47,0,0,1-1.77,1.23,27,27,0,0,1-3.41.82,55.14,55.14,0,0,1-10.9,0,14.16,14.16,0,0,1-3.41-.82,4.15,4.15,0,0,1-1.63-1.23,3.16,3.16,0,0,1-.41-1.63V526.24c0-2.86.82-5.18,2.59-6.54a10,10,0,0,1,6.27-2.18h13.08a25.7,25.7,0,0,1,6,.54,12.74,12.74,0,0,1,4.36,2.05,13.74,13.74,0,0,1,3.54,3.81,41.13,41.13,0,0,1,3.41,6.14l23.44,44c1.37,2.73,2.73,5.32,4.09,7.91s2.59,5.17,3.82,7.76,2.45,5.18,3.68,7.64,2.32,4.9,3.41,7.49h0c-.14-4.36-.28-8.86-.41-13.63s-.14-9.26-.14-13.49V521.2a3.72,3.72,0,0,1,.55-1.64,5.63,5.63,0,0,1,1.9-1.36,11.53,11.53,0,0,1,3.41-.82c1.36-.13,3.27-.27,5.45-.27a31.67,31.67,0,0,1,5.32.27,11,11,0,0,1,3.27.82,4.19,4.19,0,0,1,1.63,1.36,3.55,3.55,0,0,1,.41,1.64V629.55Z" transform="translate(-436.44 -166.99)"/><path class="cls-1" d="M1315.27,536.19a23.82,23.82,0,0,1-.27,4.64c-.28,1.22-.41,2.31-.68,3.13a3.25,3.25,0,0,1-1.09,1.64,2.47,2.47,0,0,1-1.5.4c-.82,0-2-.54-4-1.63s-4.22-2.32-7.22-3.68a87.69,87.69,0,0,0-10.63-3.68,51.31,51.31,0,0,0-14.45-1.64,39,39,0,0,0-15.81,3,36.56,36.56,0,0,0-12.13,8.59,37,37,0,0,0-7.77,13.36,52.75,52.75,0,0,0-2.72,17.17,57.22,57.22,0,0,0,2.72,18.26A35.72,35.72,0,0,0,1247.4,609a31,31,0,0,0,11.85,8,42.11,42.11,0,0,0,15.27,2.73,31.77,31.77,0,0,0,8-1,29.52,29.52,0,0,0,7.5-2.87V588h-22.77a2.83,2.83,0,0,1-2.59-2,29.59,29.59,0,0,1-.68-11.45,24.08,24.08,0,0,1,.68-2.86,5.06,5.06,0,0,1,1.1-1.64,2,2,0,0,1,1.49-.54h40.76a5.21,5.21,0,0,1,2.59.54,7.17,7.17,0,0,1,2,1.5,7,7,0,0,1,1.36,2.45,11.72,11.72,0,0,1,.41,3.28v48a10.93,10.93,0,0,1-1,4.91,7.51,7.51,0,0,1-4,3.27,60.78,60.78,0,0,1-7.5,2.45c-3,.82-6.13,1.64-9.27,2.18s-6.4,1.09-9.68,1.37-6.54.4-9.81.4a76.58,76.58,0,0,1-25.89-4.08,52.92,52.92,0,0,1-19.36-12,51.47,51.47,0,0,1-12.13-19.22,72.21,72.21,0,0,1-4.22-25.62,75.21,75.21,0,0,1,4.49-26.58,54.55,54.55,0,0,1,32.44-32.71c7.63-3,16.36-4.36,25.9-4.36a92.73,92.73,0,0,1,14.31,1.09,81.2,81.2,0,0,1,11.18,2.59,45.16,45.16,0,0,1,7.9,3.27,15.46,15.46,0,0,1,4.36,3.14A7.11,7.11,0,0,1,1314,529a41.57,41.57,0,0,1,.55,7.08Z" transform="translate(-436.44 -166.99)"/><path class="cls-1" d="M1374.69,625.87a28.74,28.74,0,0,1-.54,6.41,8.36,8.36,0,0,1-2.18,4.22,9.19,9.19,0,0,1-4.09,2.32,21.38,21.38,0,0,1-6.27.68,28.89,28.89,0,0,1-6.41-.68,8.08,8.08,0,0,1-4.08-2.32,8.22,8.22,0,0,1-2-4.22,28.74,28.74,0,0,1-.54-6.41,30,30,0,0,1,.54-6.54,9.38,9.38,0,0,1,2-4.22,7.53,7.53,0,0,1,4.08-2.32,28,28,0,0,1,6.41-.68,25.79,25.79,0,0,1,6.27.68,8.7,8.7,0,0,1,4.09,2.32,8.36,8.36,0,0,1,2.18,4.22A30,30,0,0,1,1374.69,625.87Zm-2.86-27.39a7.41,7.41,0,0,1-.54,1.63,3.25,3.25,0,0,1-1.64,1.23,20.29,20.29,0,0,1-8,1.09,26.05,26.05,0,0,1-4.91-.27,15.3,15.3,0,0,1-3.13-.82,4.28,4.28,0,0,1-1.64-1.23,3.36,3.36,0,0,1-.54-1.63l-2.45-84.64a4,4,0,0,1,.54-2.18,4.05,4.05,0,0,1,2-1.5,13.45,13.45,0,0,1,4-.82c1.63-.14,3.68-.27,6.13-.27a40.7,40.7,0,0,1,6.13.27,16.82,16.82,0,0,1,3.82,1,4.89,4.89,0,0,1,2,1.49,3.3,3.3,0,0,1,.55,2.05l-2.45,84.64Z" transform="translate(-436.44 -166.99)"/></svg>