<svg id="Layer_1" data-name="Layer 1" xmlns="http://www.w3.org/2000/svg" viewBox="0 0 1375.4 776.96"><defs><style>.cls-1{fill:#f46060;}.cls-2{fill:#fff;stroke:#f46060;stroke-miterlimit:10;stroke-width:0.5px;}</style></defs><rect class="cls-1" y="0.25" width="1270.12" height="776.46" rx="93.67"/><rect class="cls-2" x="105.04" y="0.25" width="1270.12" height="776.46" rx="93.67"/><path class="cls-1" d="M886.06,553.09c0,1.67,0,3.12-.12,4.35a12.6,12.6,0,0,1-.44,3.12,10.25,10.25,0,0,1-.78,2.22,8.47,8.47,0,0,1-1.67,2.12,23,23,0,0,1-4.35,3,48.39,48.39,0,0,1-7.9,3.56,61.72,61.72,0,0,1-10.7,2.79,68.42,68.42,0,0,1-13,1.11,69.52,69.52,0,0,1-24.73-4.23,48.47,48.47,0,0,1-18.71-12.59,55.61,55.61,0,0,1-11.8-20.94c-2.79-8.35-4.13-18.15-4.13-29.18a94.34,94.34,0,0,1,4.57-30.19A62.48,62.48,0,0,1,805,456.08a53.15,53.15,0,0,1,19.49-13.59,65.18,65.18,0,0,1,25.06-4.68,66.78,66.78,0,0,1,10.7.89,69.22,69.22,0,0,1,9.46,2.45,47.21,47.21,0,0,1,7.91,3.45,25.49,25.49,0,0,1,4.9,3.35,10.39,10.39,0,0,1,1.9,2.34,7.43,7.43,0,0,1,.78,2.33,27.6,27.6,0,0,1,.44,3.35c0,1.33.11,2.89.11,4.79a37.42,37.42,0,0,1-.22,5.23,18.15,18.15,0,0,1-.67,3.45,5.72,5.72,0,0,1-1.22,2,2.32,2.32,0,0,1-1.68.67,6.87,6.87,0,0,1-3.89-1.79,50,50,0,0,0-6.13-4,57.08,57.08,0,0,0-8.91-4,37.25,37.25,0,0,0-12.36-1.78,30.85,30.85,0,0,0-14.15,3.23A29.9,29.9,0,0,0,825.91,473a44.91,44.91,0,0,0-6.68,14.59,84.73,84.73,0,0,0,.22,39.54,40.13,40.13,0,0,0,6.9,14.15,27.88,27.88,0,0,0,10.81,8.24,36.18,36.18,0,0,0,14.26,2.67,41.51,41.51,0,0,0,12.47-1.67,45.49,45.49,0,0,0,9-3.79c2.56-1.44,4.57-2.56,6.13-3.67a7.41,7.41,0,0,1,3.79-1.67,2.44,2.44,0,0,1,2.67,2.11,34.55,34.55,0,0,1,.67,3.46c.11,1.45.22,3.45.22,5.9Z" transform="translate(-320.11 -197.75)"/><path class="cls-1" d="M978.62,561.89a35.12,35.12,0,0,1-.23,5.24,17.17,17.17,0,0,1-.78,3.45,4.6,4.6,0,0,1-1.33,2,2.77,2.77,0,0,1-1.78.66h-61a8.41,8.41,0,0,1-5.68-2c-1.56-1.34-2.34-3.57-2.34-6.57V443.83a3,3,0,0,1,.67-1.9,4.73,4.73,0,0,1,2.22-1.34,17.21,17.21,0,0,1,4.12-.77,52,52,0,0,1,6.58-.34,36.49,36.49,0,0,1,6.57.34c1.67.33,3.12.44,4.12.77a4.82,4.82,0,0,1,2.23,1.34,2.85,2.85,0,0,1,.66,1.9v107H974.5a3.13,3.13,0,0,1,1.78.55,4.37,4.37,0,0,1,1.33,1.9,17.79,17.79,0,0,1,.78,3.34A35,35,0,0,1,978.62,561.89Z" transform="translate(-320.11 -197.75)"/><path class="cls-1" d="M1073.4,562.67a33.29,33.29,0,0,1-.22,5,14.68,14.68,0,0,1-.78,3.23,3.84,3.84,0,0,1-1.33,1.79,3.37,3.37,0,0,1-1.68.55h-66.83a8.42,8.42,0,0,1-5.68-2c-1.56-1.34-2.34-3.57-2.34-6.57V448.61c0-3,.78-5.23,2.34-6.57a8.47,8.47,0,0,1,5.68-2h66.5a3,3,0,0,1,1.67.56,3.82,3.82,0,0,1,1.23,1.78,19.51,19.51,0,0,1,.78,3.34,34.24,34.24,0,0,1,.22,5.12,32.49,32.49,0,0,1-.22,4.9A15.92,15.92,0,0,1,1072,459a4.64,4.64,0,0,1-1.23,1.79,2.74,2.74,0,0,1-1.67.55H1021.5v32.53h40.21a2.76,2.76,0,0,1,1.67.55,4.76,4.76,0,0,1,1.34,1.79,15.92,15.92,0,0,1,.78,3.23,32.49,32.49,0,0,1,.22,4.9,31.89,31.89,0,0,1-.22,4.9,14.8,14.8,0,0,1-.78,3.12,3.49,3.49,0,0,1-1.34,1.67,3.34,3.34,0,0,1-1.67.55H1021.5v37.54h47.89a2.73,2.73,0,0,1,1.68.56,4.63,4.63,0,0,1,1.33,1.78,14.68,14.68,0,0,1,.78,3.23,33.43,33.43,0,0,1,.22,5Z" transform="translate(-320.11 -197.75)"/><path class="cls-1" d="M1203.84,563.12a42.39,42.39,0,0,1,1.55,5.9,3.36,3.36,0,0,1-.77,3.23,7.61,7.61,0,0,1-4,1.34,78.86,78.86,0,0,1-7.91.22c-3.34,0-6.24,0-8.13-.11a18.46,18.46,0,0,1-4.46-.67,3.87,3.87,0,0,1-2.12-1.34,7.41,7.41,0,0,1-1-2.11l-8.91-26.73h-50l-8.47,26.06a7,7,0,0,1-1.11,2.45,4.6,4.6,0,0,1-2.12,1.56,12.86,12.86,0,0,1-4.23.78c-1.78.11-4.23.22-7.13.22a47.75,47.75,0,0,1-7.46-.33c-1.89-.34-3-.67-3.68-1.45a4,4,0,0,1-.66-3.34,29.69,29.69,0,0,1,1.56-5.79l41.1-118.07a11,11,0,0,1,1.44-2.79,6.27,6.27,0,0,1,2.68-1.67,18.92,18.92,0,0,1,5-.66c2.12,0,4.9-.12,8.47-.12,4,0,7.24,0,9.69.12a22.35,22.35,0,0,1,5.56.66,4.94,4.94,0,0,1,2.9,1.67,9.16,9.16,0,0,1,1.45,3.12l41.1,118Zm-61.15-97.57h0l-18.83,56.58h37.76l-18.82-56.58Z" transform="translate(-320.11 -197.75)"/><path class="cls-1" d="M1321.12,569.69a3.42,3.42,0,0,1-.44,1.89c-.23.56-.89.89-2,1.34a15,15,0,0,1-4.56.67c-2,.11-4.68.22-8.14.22a61.39,61.39,0,0,1-6.9-.22,15,15,0,0,1-4-.78,5.17,5.17,0,0,1-2.12-1.45,6.3,6.3,0,0,1-1-2.12L1280,539.5c-1.45-3.34-2.89-6.34-4.23-8.91a29.89,29.89,0,0,0-4.57-6.57,15.94,15.94,0,0,0-5.79-4,20,20,0,0,0-7.57-1.33h-8.47v50.68a3,3,0,0,1-.67,1.89,4.73,4.73,0,0,1-2.22,1.34,17.65,17.65,0,0,1-4.13.78c-1.67.11-3.89.33-6.57.33a38.23,38.23,0,0,1-6.57-.33,23.7,23.7,0,0,1-4.12-.78,3.93,3.93,0,0,1-2.12-1.34,2.85,2.85,0,0,1-.66-1.89V448.5c0-3,.78-5.23,2.33-6.57a8.43,8.43,0,0,1,5.69-2h34.41c3.46,0,6.35,0,8.69.22s4.34.33,6.13.56a56.58,56.58,0,0,1,14.48,3.89,36.07,36.07,0,0,1,10.91,7.24,29.35,29.35,0,0,1,6.8,10.59,39.43,39.43,0,0,1,2.34,14,41.1,41.1,0,0,1-1.67,12.14,30.23,30.23,0,0,1-5,9.8,32.54,32.54,0,0,1-8.13,7.47,45.91,45.91,0,0,1-11,5.12,31.22,31.22,0,0,1,5.57,3.45,26.06,26.06,0,0,1,4.91,5,50.26,50.26,0,0,1,4.34,6.68c1.34,2.56,2.67,5.34,4,8.46l11.25,26.18q1.5,3.84,2,5.68a11.76,11.76,0,0,1,.56,2.78Zm-34.86-90.22a19.77,19.77,0,0,0-3-11.14c-2-3-5.23-5.12-9.8-6.35a25.89,25.89,0,0,0-4.68-.78,61.23,61.23,0,0,0-7.24-.33h-12.14v37.76h13.81a35,35,0,0,0,10.14-1.34,20.51,20.51,0,0,0,7.24-3.9,15.45,15.45,0,0,0,4.34-6,19.34,19.34,0,0,0,1.45-7.8Z" transform="translate(-320.11 -197.75)"/><path class="cls-1" d="M992.54,760.05a42.69,42.69,0,0,1,1.56,5.9c.22,1.45,0,2.56-.78,3.23a7.7,7.7,0,0,1-4,1.34,78.76,78.76,0,0,1-7.91.22c-3.34,0-6.24,0-8.13-.11a19.16,19.16,0,0,1-4.46-.67,3.86,3.86,0,0,1-2.11-1.34,7.15,7.15,0,0,1-1-2.11l-8.91-26.74h-50l-8.46,26.07a7,7,0,0,1-1.12,2.45,4.56,4.56,0,0,1-2.11,1.56,13.12,13.12,0,0,1-4.23.78c-1.79.11-4.24.22-7.13.22a48,48,0,0,1-7.47-.33c-1.89-.34-3-.67-3.67-1.45a4,4,0,0,1-.67-3.34,30.5,30.5,0,0,1,1.56-5.8l41.1-118.06a10.78,10.78,0,0,1,1.45-2.79,6.2,6.2,0,0,1,2.67-1.67,19,19,0,0,1,5-.67c2.12,0,4.9-.11,8.47-.11,4,0,7.24,0,9.69.11a22.43,22.43,0,0,1,5.57.67,4.88,4.88,0,0,1,2.89,1.67,8.89,8.89,0,0,1,1.45,3.12l41.1,118Zm-61.15-97.69h0l-18.82,56.58h37.75L931.5,662.36Z" transform="translate(-320.11 -197.75)"/><path class="cls-1" d="M1038.32,766.39a3,3,0,0,1-.67,1.9,4.76,4.76,0,0,1-2.23,1.33,16.58,16.58,0,0,1-4.12.78c-1.67.12-3.9.34-6.57.34a37.12,37.12,0,0,1-6.57-.34,21.94,21.94,0,0,1-4.12-.78,4.71,4.71,0,0,1-2.23-1.33,2.81,2.81,0,0,1-.67-1.9V640.64a3,3,0,0,1,.67-1.89,4.72,4.72,0,0,1,2.23-1.34,18.21,18.21,0,0,1,4.12-.78c1.67-.11,3.9-.33,6.46-.33a38.23,38.23,0,0,1,6.57.33c1.67.34,3.12.45,4.12.78a4.82,4.82,0,0,1,2.23,1.34,2.82,2.82,0,0,1,.67,1.89V766.39Z" transform="translate(-320.11 -197.75)"/><path class="cls-1" d="M1222.44,766.39a3.83,3.83,0,0,1-.56,1.9,3.94,3.94,0,0,1-2,1.33,15.51,15.51,0,0,1-4,.78,47.59,47.59,0,0,1-6.24.34,32,32,0,0,1-6.13-.34c-1.56-.33-2.89-.44-3.9-.78a3.49,3.49,0,0,1-2.67-3.23V658h-.22l-38.54,108.26a4.16,4.16,0,0,1-1.34,2.23,7,7,0,0,1-2.56,1.34,19.53,19.53,0,0,1-4,.67c-1.67,0-3.68.11-6,.11a47,47,0,0,1-6-.23,22.38,22.38,0,0,1-4-.78,9.22,9.22,0,0,1-2.56-1.33,3.87,3.87,0,0,1-1.23-2L1093.23,658H1093V766.39a3.73,3.73,0,0,1-.56,1.9,3.85,3.85,0,0,1-2.12,1.33,15.51,15.51,0,0,1-4,.78,46.45,46.45,0,0,1-6.24.34,31.44,31.44,0,0,1-6.13-.34,22.38,22.38,0,0,1-4-.78,3.51,3.51,0,0,1-2-1.33,3.43,3.43,0,0,1-.56-1.9V647.77c0-3.45.89-6.13,2.78-8a10,10,0,0,1,7.47-2.78h17.71a34.53,34.53,0,0,1,8.13.78,16.43,16.43,0,0,1,5.9,2.56,15.06,15.06,0,0,1,4.12,4.68,37,37,0,0,1,2.9,7.23l28.85,79.31h.44l29.85-79.08a47.91,47.91,0,0,1,2.9-7.35,18.38,18.38,0,0,1,3.68-4.79,13.47,13.47,0,0,1,5-2.68,24.17,24.17,0,0,1,6.68-.78H1212a15.24,15.24,0,0,1,4.79.67,8.7,8.7,0,0,1,3.34,2.12,8.29,8.29,0,0,1,2,3.34,14.49,14.49,0,0,1,.67,4.57V766.17Z" transform="translate(-320.11 -197.75)"/></svg>