<svg id="Layer_1" data-name="Layer 1" xmlns="http://www.w3.org/2000/svg" viewBox="0 0 1467.25 828.8"><defs><style>.cls-1{fill:#f46060;}.cls-2{fill:#fff;stroke:#f46060;stroke-miterlimit:10;stroke-width:0.5px;}</style></defs><rect class="cls-1" y="0.25" width="1354.93" height="828.3" rx="85.92"/><rect class="cls-2" x="112.07" y="0.25" width="1354.93" height="828.3" rx="85.92"/><path class="cls-1" d="M604.82,463.79c0,1.58,0,2.95-.1,4.11a20.45,20.45,0,0,1-.42,3,10.56,10.56,0,0,1-.74,2.11,8.33,8.33,0,0,1-1.58,2,22,22,0,0,1-4.12,2.84,46.39,46.39,0,0,1-7.48,3.38,59.08,59.08,0,0,1-10.13,2.63A73.57,73.57,0,0,1,568,484.88a65,65,0,0,1-23.3-4A45.35,45.35,0,0,1,527.11,469a53.72,53.72,0,0,1-11.18-19.72c-2.64-7.91-3.9-17.09-3.9-27.52a88.74,88.74,0,0,1,4.22-28.48,60,60,0,0,1,11.91-20.87,48.29,48.29,0,0,1,18.35-12.76,61,61,0,0,1,23.62-4.33,63.09,63.09,0,0,1,10.12.85,52.41,52.41,0,0,1,9,2.32,39.68,39.68,0,0,1,7.38,3.27,28.24,28.24,0,0,1,4.64,3.16,7.45,7.45,0,0,1,1.79,2.21,6.91,6.91,0,0,1,.74,2.22c.1.84.31,2,.42,3.16s.11,2.74.11,4.54a35.12,35.12,0,0,1-.21,4.95,18.31,18.31,0,0,1-.64,3.27,4,4,0,0,1-1.16,1.79,2.16,2.16,0,0,1-1.58.64A6.54,6.54,0,0,1,597,386a46.07,46.07,0,0,0-5.8-3.8,49.27,49.27,0,0,0-8.43-3.79,35.22,35.22,0,0,0-11.71-1.69,29.35,29.35,0,0,0-13.39,3.06,28.23,28.23,0,0,0-10,8.75,40,40,0,0,0-6.22,13.71,73.26,73.26,0,0,0-2.11,18.13,69.44,69.44,0,0,0,2.32,19.2,37.81,37.81,0,0,0,6.54,13.39,26.26,26.26,0,0,0,10.23,7.8,34,34,0,0,0,13.39,2.53,38.46,38.46,0,0,0,11.7-1.58,45.81,45.81,0,0,0,8.54-3.58,60.84,60.84,0,0,0,5.8-3.48,7.11,7.11,0,0,1,3.59-1.59,2.52,2.52,0,0,1,1.58.43,2.25,2.25,0,0,1,1,1.58,30.44,30.44,0,0,1,.63,3.27c.11,1.37.21,3.26.21,5.58Z" transform="translate(-248 -113.82)"/><path class="cls-1" d="M734.63,418.55a91.56,91.56,0,0,1-3.9,27.95,57.08,57.08,0,0,1-11.5,20.87,48.47,48.47,0,0,1-19,13.08C692.77,483.51,684,485,674.1,485s-18.24-1.26-25.52-3.79a43.91,43.91,0,0,1-18.24-11.71,50.35,50.35,0,0,1-11-20c-2.42-8.12-3.69-17.61-3.69-28.68a88.64,88.64,0,0,1,3.91-27.42,57.07,57.07,0,0,1,11.49-20.67,49.71,49.71,0,0,1,19-13.07c7.49-3.06,16.24-4.54,26.26-4.54s17.92,1.27,25.2,3.8a44.81,44.81,0,0,1,18.24,11.6,51.65,51.65,0,0,1,11.07,19.82c2.53,8,3.69,17.4,3.69,28.26ZM708,419.92a95.21,95.21,0,0,0-1.58-18A40.37,40.37,0,0,0,701.1,388a25.37,25.37,0,0,0-9.91-9q-6.18-3.17-15.51-3.16c-6.22,0-11.49,1.16-15.71,3.58a28.49,28.49,0,0,0-10.23,9.49,37.78,37.78,0,0,0-5.48,13.81,85.87,85.87,0,0,0-1.58,16.77A98.16,98.16,0,0,0,644.26,438a39,39,0,0,0,5.27,14,23.73,23.73,0,0,0,9.92,8.86c4.11,2,9.38,3.05,15.6,3.05s11.5-1.16,15.71-3.48A28.32,28.32,0,0,0,701,450.92a38.6,38.6,0,0,0,5.49-14,88,88,0,0,0,1.58-17Z" transform="translate(-248 -113.82)"/><path class="cls-1" d="M902.4,479.29a3.5,3.5,0,0,1-.53,1.79,3.76,3.76,0,0,1-1.9,1.27,14.53,14.53,0,0,1-3.69.74,45.39,45.39,0,0,1-5.9.31,31.39,31.39,0,0,1-5.8-.31,21,21,0,0,1-3.69-.74,3.36,3.36,0,0,1-1.9-1.27,3.27,3.27,0,0,1-.63-1.79V377.11h-.21L841.77,479.18a4,4,0,0,1-1.27,2.11,6.54,6.54,0,0,1-2.43,1.27,17.17,17.17,0,0,1-3.79.63c-1.58,0-3.48.11-5.59.11a44.4,44.4,0,0,1-5.59-.21,22.24,22.24,0,0,1-3.79-.74,6.54,6.54,0,0,1-2.43-1.27,3.75,3.75,0,0,1-1.16-1.79L780.61,377.22h-.21V479.4a3,3,0,0,1-2.54,3.05,14.59,14.59,0,0,1-3.69.74,44,44,0,0,1-5.9.32,30.42,30.42,0,0,1-5.8-.32,18.32,18.32,0,0,1-3.69-.74,3.69,3.69,0,0,1-1.9-1.26,3.26,3.26,0,0,1-.53-1.79V367.52c0-3.27.85-5.8,2.64-7.6a9.38,9.38,0,0,1,7-2.63h16.66a34,34,0,0,1,7.7.73,13.89,13.89,0,0,1,9.38,6.86,32.46,32.46,0,0,1,2.74,6.85l27.21,74.77h.42l28.16-74.66A40.14,40.14,0,0,1,861,365a17.62,17.62,0,0,1,3.48-4.53,10.77,10.77,0,0,1,4.74-2.43,23,23,0,0,1,6.33-.73H892.7a14.27,14.27,0,0,1,4.53.63,7.05,7.05,0,0,1,3.06,2,7.82,7.82,0,0,1,1.79,3.17,13.53,13.53,0,0,1,.64,4.32V479.29Z" transform="translate(-248 -113.82)"/><path class="cls-1" d="M1076.07,479.29a3.5,3.5,0,0,1-.53,1.79,3.73,3.73,0,0,1-1.89,1.27,14.72,14.72,0,0,1-3.69.74,45.56,45.56,0,0,1-5.91.31,31.39,31.39,0,0,1-5.8-.31,21,21,0,0,1-3.69-.74,3.31,3.31,0,0,1-2.53-3.06V377.11h-.21l-36.38,102.07a3.85,3.85,0,0,1-1.27,2.11,6.57,6.57,0,0,1-2.42,1.27,17.27,17.27,0,0,1-3.8.63c-1.58,0-3.48.11-5.59.11a44.4,44.4,0,0,1-5.59-.21,22.44,22.44,0,0,1-3.79-.74,6.62,6.62,0,0,1-2.43-1.27,3.75,3.75,0,0,1-1.16-1.79L954.28,377.22h-.21V479.4a3.53,3.53,0,0,1-.53,1.79,3.57,3.57,0,0,1-2,1.26,14.78,14.78,0,0,1-3.69.74,44.15,44.15,0,0,1-5.91.32,30.47,30.47,0,0,1-5.8-.32,18.47,18.47,0,0,1-3.69-.74,3.73,3.73,0,0,1-1.9-1.26,3.34,3.34,0,0,1-.52-1.79V367.52c0-3.27.84-5.8,2.63-7.6a9.41,9.41,0,0,1,7-2.63h16.66a33.84,33.84,0,0,1,7.7.73,13.94,13.94,0,0,1,9.39,6.86,33.57,33.57,0,0,1,2.74,6.85l27.2,74.77h.42l28.16-74.66a40.14,40.14,0,0,1,2.74-6.86,18.08,18.08,0,0,1,3.48-4.53,10.81,10.81,0,0,1,4.75-2.43,22.92,22.92,0,0,1,6.32-.73h17.19a14.38,14.38,0,0,1,4.54.63,7,7,0,0,1,3,2,7.84,7.84,0,0,1,1.8,3.17,13.82,13.82,0,0,1,.63,4.32V479.29Z" transform="translate(-248 -113.82)"/><path class="cls-1" d="M1205.88,436.06a60.08,60.08,0,0,1-3.38,20.66,39.46,39.46,0,0,1-10,15.4,43.38,43.38,0,0,1-16.35,9.6,78.31,78.31,0,0,1-43.65.31,41.23,41.23,0,0,1-15.93-9,38.15,38.15,0,0,1-9.91-15,60.46,60.46,0,0,1-3.48-21V360.77a2.88,2.88,0,0,1,.63-1.8,4.07,4.07,0,0,1,2.11-1.26,17.24,17.24,0,0,1,3.9-.74,49.71,49.71,0,0,1,6.23-.32,33.42,33.42,0,0,1,6.11.32,23,23,0,0,1,3.9.74,4.49,4.49,0,0,1,2.11,1.26,2.7,2.7,0,0,1,.64,1.8V434.9a43.33,43.33,0,0,0,1.79,13,23.93,23.93,0,0,0,5.27,9.07,21.47,21.47,0,0,0,8.23,5.37,33,33,0,0,0,21.51,0,21.42,21.42,0,0,0,8-5.37,23,23,0,0,0,5.06-8.76,37,37,0,0,0,1.8-11.81v-75.6a2.88,2.88,0,0,1,.63-1.8,4.09,4.09,0,0,1,2-1.26,16.09,16.09,0,0,1,3.9-.74,50.05,50.05,0,0,1,6.12-.32,34.62,34.62,0,0,1,6.11.32,21.44,21.44,0,0,1,3.8.74,3.62,3.62,0,0,1,2,1.26,2.65,2.65,0,0,1,.64,1.8v75.29Z" transform="translate(-248 -113.82)"/><path class="cls-1" d="M1336.63,473.81a9.81,9.81,0,0,1-.73,4,10.27,10.27,0,0,1-2.11,3,8,8,0,0,1-3.06,1.68,13.92,13.92,0,0,1-3.59.53h-10.86a24.76,24.76,0,0,1-5.9-.63,11.15,11.15,0,0,1-4.54-2.43,21.07,21.07,0,0,1-4-4.85,79.4,79.4,0,0,1-4.33-7.91l-31.21-58.73c-1.79-3.48-3.69-7.28-5.48-11.28s-3.59-8-5.07-11.81h-.21q.32,7,.64,13.91c.1,4.64.21,9.39.21,14.35v65.69a3.5,3.5,0,0,1-.53,1.79,3.45,3.45,0,0,1-1.79,1.27,16.9,16.9,0,0,1-3.59.84,41.6,41.6,0,0,1-5.69.32,28.16,28.16,0,0,1-5.59-.32,12,12,0,0,1-3.48-.84,3.93,3.93,0,0,1-1.79-1.27,3.21,3.21,0,0,1-.53-1.79V366.46c0-3.06.84-5.27,2.64-6.85a10.05,10.05,0,0,1,6.53-2.32h13.71a26.31,26.31,0,0,1,6.22.63A13.69,13.69,0,0,1,1267,360a15.18,15.18,0,0,1,3.69,4,52.69,52.69,0,0,1,3.58,6.32l24.47,45.87c1.37,2.74,2.84,5.49,4.22,8.23s2.74,5.37,4,8l3.8,7.91c1.26,2.64,2.42,5.17,3.58,7.8h0c-.21-4.53-.31-9.28-.42-14.13s-.1-9.59-.1-14V361.19a2.85,2.85,0,0,1,.63-1.79,5.53,5.53,0,0,1,1.9-1.38,13.88,13.88,0,0,1,3.58-.84,44.55,44.55,0,0,1,5.7-.21,41.79,41.79,0,0,1,5.48.21,12,12,0,0,1,3.48.84,3.93,3.93,0,0,1,1.69,1.38,3.29,3.29,0,0,1,.52,1.79V474Z" transform="translate(-248 -113.82)"/><path class="cls-1" d="M1389.67,479.29a2.85,2.85,0,0,1-.63,1.79,4.5,4.5,0,0,1-2.11,1.27,15.5,15.5,0,0,1-3.9.74,49.71,49.71,0,0,1-6.22.31,34.67,34.67,0,0,1-6.12-.31,22.07,22.07,0,0,1-3.9-.74,4.55,4.55,0,0,1-2.11-1.27,2.64,2.64,0,0,1-.63-1.79V360.77a2.88,2.88,0,0,1,.63-1.8,4.54,4.54,0,0,1,2.11-1.26,16.09,16.09,0,0,1,3.9-.74,48.91,48.91,0,0,1,6.12-.32,35.37,35.37,0,0,1,6.22.32,23,23,0,0,1,3.9.74A4.49,4.49,0,0,1,1389,359a2.69,2.69,0,0,1,.63,1.8Z" transform="translate(-248 -113.82)"/><path class="cls-1" d="M1500.5,367.73a33.65,33.65,0,0,1-.21,4.85,13.79,13.79,0,0,1-.74,3.16,5.71,5.71,0,0,1-1.16,1.79,2.55,2.55,0,0,1-1.58.64h-31.42V479.4a2.83,2.83,0,0,1-.64,1.79,4.41,4.41,0,0,1-2.11,1.26,15.53,15.53,0,0,1-3.9.74,49.88,49.88,0,0,1-6.11.32,34.11,34.11,0,0,1-6.12-.32,21,21,0,0,1-3.9-.74,4.41,4.41,0,0,1-2.11-1.26,2.68,2.68,0,0,1-.63-1.79V378.17h-31.43a2.58,2.58,0,0,1-1.68-.64,4.74,4.74,0,0,1-1.16-1.79,17.21,17.21,0,0,1-.74-3.16,33.65,33.65,0,0,1-.21-4.85,35.2,35.2,0,0,1,.21-5,16.55,16.55,0,0,1,.74-3.27,4.74,4.74,0,0,1,1.16-1.79,2.65,2.65,0,0,1,1.68-.53h88.48a2.57,2.57,0,0,1,1.58.53,4.07,4.07,0,0,1,1.16,1.79,18.11,18.11,0,0,1,.74,3.27,35.2,35.2,0,0,1,.21,5Z" transform="translate(-248 -113.82)"/><path class="cls-1" d="M1566.09,435.11v44.18a2.85,2.85,0,0,1-.63,1.79,4.55,4.55,0,0,1-2.11,1.27,16.59,16.59,0,0,1-3.9.74,50.29,50.29,0,0,1-6.12.31,36.49,36.49,0,0,1-6.22-.31,24.08,24.08,0,0,1-3.9-.74,4.5,4.5,0,0,1-2.11-1.27,2.64,2.64,0,0,1-.63-1.79V435.11l-34.38-68.44a34.38,34.38,0,0,1-2.43-5.59c-.31-1.37-.21-2.32.64-3.06s2.11-1,4.11-1.26,4.74-.21,8.33-.21a69.35,69.35,0,0,1,7.17.21,17.66,17.66,0,0,1,4.22.74,5.37,5.37,0,0,1,2.32,1.37,11.06,11.06,0,0,1,1.37,2.21l13.92,30.9c1.37,2.95,2.74,6.11,4,9.38s2.63,6.75,4,10.34h.21c1.27-3.48,2.53-6.86,3.8-10.23s2.53-6.43,3.79-9.39l13.82-30.68a5.82,5.82,0,0,1,1.26-2.43,4.31,4.31,0,0,1,2.22-1.47,12.24,12.24,0,0,1,4-.74c1.68-.11,3.9-.21,6.64-.21,3.69,0,6.54,0,8.54.21a8.74,8.74,0,0,1,4.22,1.26,2.72,2.72,0,0,1,.52,3.06,37,37,0,0,1-2.31,5.49L1566.09,435Z" transform="translate(-248 -113.82)"/><path class="cls-1" d="M753.82,661.93a39.45,39.45,0,0,1-3.69,17.4,35.09,35.09,0,0,1-10,12.44,42.5,42.5,0,0,1-14.76,7.49,62.36,62.36,0,0,1-18,2.53,63.26,63.26,0,0,1-12.13-1.06,81.93,81.93,0,0,1-9.8-2.53,35.23,35.23,0,0,1-7.17-3.16,19.09,19.09,0,0,1-4.12-3,6.82,6.82,0,0,1-1.79-3.58,50.38,50.38,0,0,1-.32-11.92,11.86,11.86,0,0,1,.64-3.26,3.29,3.29,0,0,1,1.16-1.8,3.2,3.2,0,0,1,1.68-.52,7.56,7.56,0,0,1,3.8,1.58c1.69,1,3.8,2.21,6.33,3.58a73.29,73.29,0,0,0,9.28,3.59,40.47,40.47,0,0,0,12.44,1.58,28.85,28.85,0,0,0,8.33-1.16,18.32,18.32,0,0,0,6.22-3.16,13.09,13.09,0,0,0,3.9-5.07,16.83,16.83,0,0,0,1.37-6.64,11.33,11.33,0,0,0-2.32-7.27,25.88,25.88,0,0,0-6.11-5.49,59,59,0,0,0-8.54-4.43q-4.75-2.05-9.81-4.43a86.53,86.53,0,0,1-9.81-5.27,42.3,42.3,0,0,1-8.54-7.06,31.41,31.41,0,0,1-6-9.7,34.83,34.83,0,0,1-2.32-13.5,35.6,35.6,0,0,1,3.38-15.82,33.22,33.22,0,0,1,9.06-11.39,37.37,37.37,0,0,1,13.4-6.75A59,59,0,0,1,715.86,572a65.46,65.46,0,0,1,9,.63,61.52,61.52,0,0,1,8.33,1.79A42.61,42.61,0,0,1,740,577a15.7,15.7,0,0,1,4,2.43,5.32,5.32,0,0,1,1.27,1.68,11.7,11.7,0,0,1,.63,1.8,10.53,10.53,0,0,1,.32,2.84V590c0,1.9,0,3.48-.11,4.75a12.37,12.37,0,0,1-.52,3.16,4,4,0,0,1-1,1.79,2.23,2.23,0,0,1-1.69.63,7.51,7.51,0,0,1-3.37-1.37c-1.59-.94-3.48-1.89-5.7-3a60.6,60.6,0,0,0-7.91-2.95,35.73,35.73,0,0,0-9.8-1.27,22,22,0,0,0-7.28,1.06,12.81,12.81,0,0,0-5.17,2.85,11.09,11.09,0,0,0-3.05,4.32,15.12,15.12,0,0,0-1.06,5.38,11.76,11.76,0,0,0,2.32,7.27,22.37,22.37,0,0,0,6.12,5.49,66.25,66.25,0,0,0,8.64,4.42c3.27,1.38,6.54,2.85,9.92,4.43a100.69,100.69,0,0,1,9.91,5.28,40,40,0,0,1,8.64,7.06,32.18,32.18,0,0,1,8.44,22.88Z" transform="translate(-248 -113.82)"/><path class="cls-1" d="M875.82,652.75a60.14,60.14,0,0,1-3.37,20.67,39.37,39.37,0,0,1-10,15.4,43.32,43.32,0,0,1-16.34,9.59,69.15,69.15,0,0,1-22.36,3.27,70.4,70.4,0,0,1-21.3-2.95,41.33,41.33,0,0,1-15.92-9,38,38,0,0,1-9.91-15,60.17,60.17,0,0,1-3.48-21V577.46a2.88,2.88,0,0,1,.63-1.79,4,4,0,0,1,2.11-1.27,17.18,17.18,0,0,1,3.9-.73,49.43,49.43,0,0,1,6.22-.32,33.54,33.54,0,0,1,6.12.32,24.22,24.22,0,0,1,3.9.73,4.5,4.5,0,0,1,2.11,1.27,2.66,2.66,0,0,1,.63,1.79v74.13a43.28,43.28,0,0,0,1.79,13,24,24,0,0,0,5.28,9.07A21.41,21.41,0,0,0,814,679a33.21,33.21,0,0,0,21.51,0,21.52,21.52,0,0,0,8-5.38,23.11,23.11,0,0,0,5.06-8.75,37,37,0,0,0,1.79-11.81V577.46a2.88,2.88,0,0,1,.63-1.79,4.18,4.18,0,0,1,2-1.27,16.15,16.15,0,0,1,3.9-.73,50.05,50.05,0,0,1,6.12-.32,34.68,34.68,0,0,1,6.11.32,22.72,22.72,0,0,1,3.8.73,3.67,3.67,0,0,1,2,1.27,2.66,2.66,0,0,1,.63,1.79v75.29Z" transform="translate(-248 -113.82)"/><path class="cls-1" d="M989,612.16a49.53,49.53,0,0,1-3.27,18.76,35.43,35.43,0,0,1-9.59,13.71,44,44,0,0,1-15.5,8.54,72.83,72.83,0,0,1-21.62,3H928.55V696.2a2.88,2.88,0,0,1-.63,1.79,4.55,4.55,0,0,1-2.11,1.27,15.21,15.21,0,0,1-3.9.73,49.6,49.6,0,0,1-6.23.32,33.42,33.42,0,0,1-6.11-.32,22,22,0,0,1-3.9-.73,3.7,3.7,0,0,1-2-1.27,2.66,2.66,0,0,1-.63-1.79V583.26c0-3.06.74-5.27,2.43-6.85a8.59,8.59,0,0,1,6.22-2.32h29.63c3,0,5.8.1,8.43.31a94,94,0,0,1,9.71,1.48A41.37,41.37,0,0,1,970.83,580a33.6,33.6,0,0,1,9.81,7.6,31.84,31.84,0,0,1,6.22,10.75A43.65,43.65,0,0,1,989,612.15ZM962.29,614c0-4.43-.74-8-2.32-10.86a16.78,16.78,0,0,0-5.69-6.33,17.83,17.83,0,0,0-7.17-2.53,60.82,60.82,0,0,0-7.7-.53H928.55v42.6H940a26.25,26.25,0,0,0,10.23-1.68A17.27,17.27,0,0,0,957,630a20.38,20.38,0,0,0,4-7.07,27,27,0,0,0,1.37-9Z" transform="translate(-248 -113.82)"/><path class="cls-1" d="M1094.74,612.16a49.72,49.72,0,0,1-3.27,18.76,35.46,35.46,0,0,1-9.6,13.71,43.94,43.94,0,0,1-15.5,8.54,72.83,72.83,0,0,1-21.62,3h-10.44V696.2a2.88,2.88,0,0,1-.63,1.79,4.5,4.5,0,0,1-2.11,1.27,15.13,15.13,0,0,1-3.9.73,49.43,49.43,0,0,1-6.22.32,33.6,33.6,0,0,1-6.12-.32,22.21,22.21,0,0,1-3.9-.73,3.63,3.63,0,0,1-2-1.27,2.66,2.66,0,0,1-.63-1.79V583.26c0-3.06.73-5.27,2.42-6.85a8.61,8.61,0,0,1,6.22-2.32h29.63c3,0,5.8.1,8.44.31a93.88,93.88,0,0,1,9.7,1.48A41.43,41.43,0,0,1,1076.6,580a33.73,33.73,0,0,1,9.81,7.6,32,32,0,0,1,6.22,10.75,43.65,43.65,0,0,1,2.11,13.81ZM1068.06,614c0-4.43-.74-8-2.32-10.86a16.72,16.72,0,0,0-5.7-6.33,17.78,17.78,0,0,0-7.17-2.53,60.82,60.82,0,0,0-7.7-.53h-10.86v42.6h11.5a26.32,26.32,0,0,0,10.23-1.68,17.24,17.24,0,0,0,6.74-4.64,20.23,20.23,0,0,0,4-7.07,27,27,0,0,0,1.37-9Z" transform="translate(-248 -113.82)"/><path class="cls-1" d="M1227.49,635.25a91.14,91.14,0,0,1-3.9,27.94,57,57,0,0,1-11.49,20.88,48.76,48.76,0,0,1-19,13.08c-7.49,3.05-16.24,4.53-26.15,4.53s-18.24-1.26-25.52-3.8a43.92,43.92,0,0,1-18.24-11.7,50.39,50.39,0,0,1-11-20c-2.43-8.11-3.69-17.61-3.69-28.68a88.62,88.62,0,0,1,3.9-27.41,57.13,57.13,0,0,1,11.49-20.67,49.8,49.8,0,0,1,19-13.08c7.49-3.06,16.24-4.53,26.26-4.53s17.93,1.26,25.2,3.79a45,45,0,0,1,18.25,11.6A51.69,51.69,0,0,1,1223.7,607c2.53,8,3.69,17.4,3.69,28.26Zm-26.78,1.37a95.21,95.21,0,0,0-1.58-18,40.29,40.29,0,0,0-5.27-13.92,25.29,25.29,0,0,0-9.91-9q-6.18-3.16-15.51-3.17c-6.22,0-11.49,1.16-15.71,3.59a28.49,28.49,0,0,0-10.23,9.49,37.6,37.6,0,0,0-5.48,13.81,85.72,85.72,0,0,0-1.58,16.77,98.23,98.23,0,0,0,1.58,18.45,39.1,39.1,0,0,0,5.27,14,23.64,23.64,0,0,0,9.92,8.85c4.11,2,9.38,3.06,15.6,3.06s11.5-1.16,15.71-3.48a28.41,28.41,0,0,0,10.23-9.49,38.74,38.74,0,0,0,5.49-14,88,88,0,0,0,1.58-17Z" transform="translate(-248 -113.82)"/><path class="cls-1" d="M1342,696.2a3.19,3.19,0,0,1-.42,1.79c-.21.53-.84.84-1.79,1.16a17.48,17.48,0,0,1-4.22.63c-1.9.11-4.43.21-7.7.21a57.8,57.8,0,0,1-6.54-.21,19.74,19.74,0,0,1-3.79-.74,4.21,4.21,0,0,1-2-1.37,5,5,0,0,1-.94-2l-11.29-28a92.81,92.81,0,0,0-4-8.44,25.38,25.38,0,0,0-4.33-6.11,16.16,16.16,0,0,0-5.48-3.69,18.8,18.8,0,0,0-7.17-1.27h-7.91V696a2.88,2.88,0,0,1-.63,1.79,4.46,4.46,0,0,1-2.11,1.26,14.74,14.74,0,0,1-3.9.74,49.6,49.6,0,0,1-6.23.32,33.42,33.42,0,0,1-6.11-.32,21,21,0,0,1-3.9-.74,3.64,3.64,0,0,1-2-1.26,2.68,2.68,0,0,1-.63-1.79V582c0-2.85.74-4.85,2.22-6.12a8,8,0,0,1,5.37-1.9H1289c3.27,0,6,0,8.12.21s4.11.32,5.8.53a51.44,51.44,0,0,1,13.6,3.69,33.93,33.93,0,0,1,10.34,6.86,27.8,27.8,0,0,1,6.43,10,36.88,36.88,0,0,1,2.21,13.29,39.12,39.12,0,0,1-1.58,11.49,28.5,28.5,0,0,1-4.74,9.28,31.08,31.08,0,0,1-7.7,7.07,44.75,44.75,0,0,1-10.34,4.85,29.26,29.26,0,0,1,5.28,3.27,24.91,24.91,0,0,1,4.64,4.74,37.2,37.2,0,0,1,4.11,6.33c1.27,2.32,2.53,5.06,3.8,8l10.54,24.78q1.43,3.65,1.9,5.38a11.83,11.83,0,0,1,.53,2.64Zm-32.9-85.2a18.43,18.43,0,0,0-2.84-10.44q-2.85-4.27-9.18-6a23.32,23.32,0,0,0-4.43-.74c-1.69-.11-3.9-.32-6.85-.32h-11.5v35.64h13a32.41,32.41,0,0,0,9.49-1.26,18.08,18.08,0,0,0,6.75-3.69,15.78,15.78,0,0,0,4.12-5.7,18.39,18.39,0,0,0,1.37-7.38Z" transform="translate(-248 -113.82)"/><path class="cls-1" d="M1442.4,584.42a33.58,33.58,0,0,1-.21,4.85,13.9,13.9,0,0,1-.74,3.17,6,6,0,0,1-1.16,1.79,2.53,2.53,0,0,1-1.58.63h-31.43V696.09a2.85,2.85,0,0,1-.63,1.79,4.5,4.5,0,0,1-2.11,1.27,16.09,16.09,0,0,1-3.9.74,50.22,50.22,0,0,1-6.11.31,35.2,35.2,0,0,1-6.12-.31,21,21,0,0,1-3.9-.74,4.5,4.5,0,0,1-2.11-1.27,2.64,2.64,0,0,1-.63-1.79V594.86h-31.43a2.56,2.56,0,0,1-1.68-.63,4.62,4.62,0,0,1-1.16-1.79,17.34,17.34,0,0,1-.74-3.17,33.58,33.58,0,0,1-.21-4.85,35.05,35.05,0,0,1,.21-4.95,16.55,16.55,0,0,1,.74-3.27,4.67,4.67,0,0,1,1.16-1.8,2.69,2.69,0,0,1,1.68-.52h88.47a2.65,2.65,0,0,1,1.59.52,4.11,4.11,0,0,1,1.16,1.8,17.39,17.39,0,0,1,.73,3.27,35.05,35.05,0,0,1,.21,4.95Z" transform="translate(-248 -113.82)"/></svg>