<svg id="Layer_1" data-name="Layer 1" xmlns="http://www.w3.org/2000/svg" viewBox="0 0 136.25 77.29"><defs><style>.cls-1{fill:#f46060;}.cls-2{fill:#fff;stroke:#f46060;stroke-miterlimit:10;stroke-width:0.5px;}</style></defs><rect class="cls-1" y="0.25" width="125.61" height="76.79" rx="13.64"/><rect class="cls-2" x="10.4" y="0.25" width="125.61" height="76.79" rx="13.64"/><path class="cls-1" d="M919.7,542a3.32,3.32,0,0,1,0,.47c0,.13,0,.25,0,.34a.82.82,0,0,1-.08.25,1,1,0,0,1-.18.22,2.34,2.34,0,0,1-.47.33,6.51,6.51,0,0,1-.86.39,7.31,7.31,0,0,1-1.15.31,7.63,7.63,0,0,1-1.39.13,7.3,7.3,0,0,1-2.67-.46,5.31,5.31,0,0,1-2-1.36,6.27,6.27,0,0,1-1.28-2.26,11.22,11.22,0,0,1,.05-6.39A6.84,6.84,0,0,1,911,531.6a5.5,5.5,0,0,1,2.1-1.46,7,7,0,0,1,2.7-.51,7.26,7.26,0,0,1,1.16.1,6.89,6.89,0,0,1,1,.26,5,5,0,0,1,.84.37,1.94,1.94,0,0,1,.73.6.8.8,0,0,1,.08.26,3.53,3.53,0,0,1,0,.38,4,4,0,0,1,0,.52,4.7,4.7,0,0,1,0,.56,1.14,1.14,0,0,1-.08.38.54.54,0,0,1-.13.21.23.23,0,0,1-.18.06.72.72,0,0,1-.42-.19c-.18-.13-.39-.28-.66-.44a5.74,5.74,0,0,0-1-.44,4,4,0,0,0-1.33-.19,3.22,3.22,0,0,0-1.53.35,3.11,3.11,0,0,0-1.13,1,5,5,0,0,0-.72,1.57,8.26,8.26,0,0,0-.24,2.08,7.92,7.92,0,0,0,.26,2.19,4.29,4.29,0,0,0,.75,1.53,3,3,0,0,0,1.16.89A4,4,0,0,0,916,542a4.88,4.88,0,0,0,1.34-.18,5.38,5.38,0,0,0,1-.4A6.56,6.56,0,0,0,919,541a1,1,0,0,1,.41-.18.21.21,0,0,1,.17.05.36.36,0,0,1,.12.18,1.41,1.41,0,0,1,.06.37c0,.16,0,.37,0,.63Z" transform="translate(-892.05 -501.68)"/><path class="cls-1" d="M934.54,536.84a10.84,10.84,0,0,1-.44,3.19,6.36,6.36,0,0,1-1.31,2.39,5.77,5.77,0,0,1-2.18,1.49,8,8,0,0,1-3,.52,8.75,8.75,0,0,1-2.92-.44,5,5,0,0,1-2.08-1.33,5.8,5.8,0,0,1-1.25-2.29,11.65,11.65,0,0,1-.42-3.27,10.38,10.38,0,0,1,.44-3.13,6.35,6.35,0,0,1,1.31-2.37,5.91,5.91,0,0,1,2.18-1.5,8.13,8.13,0,0,1,3-.51,8.5,8.5,0,0,1,2.87.43,5.28,5.28,0,0,1,2.09,1.33,5.92,5.92,0,0,1,1.27,2.28,10.66,10.66,0,0,1,.42,3.22Zm-3.07.16a11.84,11.84,0,0,0-.17-2.06,4.75,4.75,0,0,0-.6-1.59,2.88,2.88,0,0,0-1.14-1,3.77,3.77,0,0,0-1.77-.36,3.6,3.6,0,0,0-1.8.41,3.2,3.2,0,0,0-1.17,1.08,4.84,4.84,0,0,0-.63,1.58A9,9,0,0,0,924,537a12.12,12.12,0,0,0,.18,2.11,4.53,4.53,0,0,0,.6,1.61,3,3,0,0,0,1.14,1,4.21,4.21,0,0,0,1.78.35,3.68,3.68,0,0,0,1.8-.4,3.07,3.07,0,0,0,1.17-1.09,4.78,4.78,0,0,0,.63-1.6,9.49,9.49,0,0,0,.18-2Z" transform="translate(-892.05 -501.68)"/><path class="cls-1" d="M948.82,543.16a1.3,1.3,0,0,1-.09.46,1.16,1.16,0,0,1-.24.34.83.83,0,0,1-.36.19,1.42,1.42,0,0,1-.42.07h-1.25a2.48,2.48,0,0,1-.66-.08,1.47,1.47,0,0,1-.52-.28,2.39,2.39,0,0,1-.46-.55c-.14-.23-.3-.54-.5-.91l-3.57-6.71c-.21-.41-.42-.83-.63-1.3s-.41-.91-.58-1.35h0q0,.81.06,1.59c0,.54,0,1.07,0,1.64v7.51a.49.49,0,0,1-.06.19.37.37,0,0,1-.21.15,3.08,3.08,0,0,1-.41.1c-.18,0-.39,0-.65,0a4.17,4.17,0,0,1-.65,0,1.1,1.1,0,0,1-.4-.1.36.36,0,0,1-.2-.15.45.45,0,0,1,0-.19v-12.9a1,1,0,0,1,.31-.78,1.15,1.15,0,0,1,.75-.25h1.55a3.07,3.07,0,0,1,.72.06,1.64,1.64,0,0,1,.52.24,2.11,2.11,0,0,1,.42.46,4.05,4.05,0,0,1,.4.73l2.8,5.24.48.94c.16.31.31.61.46.92s.29.62.43.91.28.59.41.89h0c0-.52,0-1-.05-1.62s0-1.1,0-1.6v-6.74a.44.44,0,0,1,.07-.19.59.59,0,0,1,.22-.16,1.37,1.37,0,0,1,.41-.1,5.67,5.67,0,0,1,.65,0,4,4,0,0,1,.63,0,1.09,1.09,0,0,1,.39.1.35.35,0,0,1,.19.16.34.34,0,0,1,0,.19v12.9Z" transform="translate(-892.05 -501.68)"/><path class="cls-1" d="M960,531a3.21,3.21,0,0,1,0,.57,1.26,1.26,0,0,1-.09.35.39.39,0,0,1-.13.2.21.21,0,0,1-.17.06H954.9v3.86h4.39a.71.71,0,0,1,.18,0,.39.39,0,0,1,.13.2.82.82,0,0,1,.08.35,4.32,4.32,0,0,1,0,.56,2.29,2.29,0,0,1,0,.55,1.27,1.27,0,0,1-.08.37.47.47,0,0,1-.13.21.36.36,0,0,1-.18.07H954.9v5.33a.31.31,0,0,1-.07.21.42.42,0,0,1-.24.15,4,4,0,0,1-.45.1c-.18,0-.43,0-.72,0a4.66,4.66,0,0,1-.7,0,2.17,2.17,0,0,1-.45-.1A.83.83,0,0,1,952,544a.31.31,0,0,1-.07-.21v-13a.83.83,0,0,1,.25-.69,1,1,0,0,1,.61-.21h6.75a.36.36,0,0,1,.18.06.4.4,0,0,1,.13.19,1.2,1.2,0,0,1,.08.38,4.56,4.56,0,0,1,0,.57Z" transform="translate(-892.05 -501.68)"/><path class="cls-1" d="M974.09,538.83a6.77,6.77,0,0,1-.39,2.37,4.62,4.62,0,0,1-1.14,1.77,4.92,4.92,0,0,1-1.86,1.1,8,8,0,0,1-2.55.38,7.87,7.87,0,0,1-2.43-.35,4.57,4.57,0,0,1-1.82-1,4.24,4.24,0,0,1-1.13-1.72,6.75,6.75,0,0,1-.39-2.4v-8.73a.39.39,0,0,1,.06-.19.66.66,0,0,1,.24-.15,3,3,0,0,1,.46-.08c.18,0,.42,0,.71,0a4.66,4.66,0,0,1,.7,0,2.72,2.72,0,0,1,.44.08.62.62,0,0,1,.24.15.3.3,0,0,1,.07.19v8.47a4.37,4.37,0,0,0,.21,1.48,2.79,2.79,0,0,0,.6,1,2.59,2.59,0,0,0,.94.61,3.21,3.21,0,0,0,1.23.21,3.14,3.14,0,0,0,1.23-.21,2.55,2.55,0,0,0,.93-.61,3,3,0,0,0,.58-1,4.25,4.25,0,0,0,.21-1.35v-8.64a.47.47,0,0,1,.07-.2.7.7,0,0,1,.23-.14,1.83,1.83,0,0,1,.45-.08,6.47,6.47,0,0,1,.7,0,3.45,3.45,0,0,1,.69,0,2.05,2.05,0,0,1,.44.08.34.34,0,0,1,.23.14.51.51,0,0,1,.06.2v8.6Z" transform="translate(-892.05 -501.68)"/><path class="cls-1" d="M985.7,539.87a4.44,4.44,0,0,1-.42,2,4.17,4.17,0,0,1-1.13,1.43,5.39,5.39,0,0,1-1.69.86,7.27,7.27,0,0,1-2.06.29,6,6,0,0,1-1.38-.13,8.63,8.63,0,0,1-1.12-.29,4.84,4.84,0,0,1-.81-.36,2.75,2.75,0,0,1-.47-.34.87.87,0,0,1-.21-.42,4.53,4.53,0,0,1-.07-.78,5,5,0,0,1,0-.58,1.21,1.21,0,0,1,.06-.38.76.76,0,0,1,.13-.21.27.27,0,0,1,.2-.06,1.08,1.08,0,0,1,.44.17c.19.12.44.26.73.41a7.2,7.2,0,0,0,1.05.41,4.8,4.8,0,0,0,1.43.17,3.23,3.23,0,0,0,1-.13,2.35,2.35,0,0,0,.71-.35,1.57,1.57,0,0,0,.45-.59,1.85,1.85,0,0,0,.17-.76,1.35,1.35,0,0,0-.26-.84,2.35,2.35,0,0,0-.7-.62,5.88,5.88,0,0,0-1-.5l-1.12-.5a10,10,0,0,1-1.12-.6,5.47,5.47,0,0,1-1-.82,3.66,3.66,0,0,1-.69-1.12,4,4,0,0,1-.26-1.54,4,4,0,0,1,.39-1.81,3.79,3.79,0,0,1,1-1.3,4.81,4.81,0,0,1,1.53-.78,6.34,6.34,0,0,1,1.86-.26,7,7,0,0,1,1,.08,7.87,7.87,0,0,1,1,.21,8.07,8.07,0,0,1,.8.29,3.15,3.15,0,0,1,.45.28.61.61,0,0,1,.15.2.44.44,0,0,1,.06.21,1.32,1.32,0,0,1,0,.32v.49a4.11,4.11,0,0,1,0,.53c0,.15,0,.28-.05.38a.52.52,0,0,1-.11.21.27.27,0,0,1-.2.06.89.89,0,0,1-.39-.16c-.17-.11-.39-.21-.65-.34a5.94,5.94,0,0,0-.89-.34,3.94,3.94,0,0,0-1.12-.15,2.22,2.22,0,0,0-.82.12,1.5,1.5,0,0,0-.6.32,1.23,1.23,0,0,0-.36.49,1.51,1.51,0,0,0-.11.61,1.29,1.29,0,0,0,.26.83,2.46,2.46,0,0,0,.69.62,6.53,6.53,0,0,0,1,.5l1.14.5a12.21,12.21,0,0,1,1.13.6,4.93,4.93,0,0,1,1,.81,3.65,3.65,0,0,1,1,2.62Z" transform="translate(-892.05 -501.68)"/><path class="cls-1" d="M996.44,543a2.92,2.92,0,0,1,0,.54,2.18,2.18,0,0,1-.08.36.4.4,0,0,1-.15.19.26.26,0,0,1-.18.07h-7.2a.86.86,0,0,1-.61-.22.84.84,0,0,1-.25-.69V530.77a.85.85,0,0,1,.25-.7,1,1,0,0,1,.61-.21H996a.71.71,0,0,1,.18,0,.35.35,0,0,1,.13.19,1.6,1.6,0,0,1,.08.36,4.22,4.22,0,0,1,0,.55,2.59,2.59,0,0,1,0,.52,1.49,1.49,0,0,1-.08.36.46.46,0,0,1-.13.19.29.29,0,0,1-.18.07h-5.12v3.5h4.33a.42.42,0,0,1,.18.07.84.84,0,0,1,.14.19,1.21,1.21,0,0,1,.08.34,3.93,3.93,0,0,1,0,.52,2.24,2.24,0,0,1,0,.54,1.21,1.21,0,0,1-.08.34.37.37,0,0,1-.14.18.45.45,0,0,1-.18,0h-4.33v4H996a.42.42,0,0,1,.18.07.52.52,0,0,1,.15.19,1.79,1.79,0,0,1,.08.36c0,.14,0,.32,0,.53Z" transform="translate(-892.05 -501.68)"/><path class="cls-1" d="M1010.93,536.79a9.9,9.9,0,0,1-.52,3.37,5.62,5.62,0,0,1-1.48,2.29,6,6,0,0,1-2.35,1.3,11.7,11.7,0,0,1-3.29.42h-3.42a.91.91,0,0,1-.62-.21.9.9,0,0,1-.24-.7V530.75a.86.86,0,0,1,.24-.69,1,1,0,0,1,.62-.21h3.68a10,10,0,0,1,3.26.45,5.88,5.88,0,0,1,2.25,1.33,5.69,5.69,0,0,1,1.4,2.17,8.63,8.63,0,0,1,.47,3Zm-3,.1a7.11,7.11,0,0,0-.24-1.9,4.15,4.15,0,0,0-.76-1.53,3.7,3.7,0,0,0-1.35-1,5.34,5.34,0,0,0-2.17-.36h-1.48v9.77h1.52a5.64,5.64,0,0,0,2-.31,3.3,3.3,0,0,0,1.36-.94,4.55,4.55,0,0,0,.83-1.56A8.25,8.25,0,0,0,1007.91,536.89Z" transform="translate(-892.05 -501.68)"/><path class="cls-1" d="M1021.38,533.22a5,5,0,0,1-.26,1.64,4.21,4.21,0,0,1-.73,1.26,3.61,3.61,0,0,1-1.14.86,4.26,4.26,0,0,1-1.46.41l-.08,2.16c0,.13-.11.22-.33.29a3.14,3.14,0,0,1-.87.1,5.64,5.64,0,0,1-.62,0,1.71,1.71,0,0,1-.39-.07.38.38,0,0,1-.21-.13.41.41,0,0,1-.08-.19l-.1-2.61a2.56,2.56,0,0,1,0-.59.76.76,0,0,1,.16-.35.53.53,0,0,1,.29-.18,1.67,1.67,0,0,1,.42,0h.16a2.4,2.4,0,0,0,1-.19,2,2,0,0,0,.7-.51,1.93,1.93,0,0,0,.4-.73,3.19,3.19,0,0,0,.13-.89,3.24,3.24,0,0,0-.14-1,2.08,2.08,0,0,0-.46-.77,1.84,1.84,0,0,0-.76-.48A3,3,0,0,0,1016,531a3.83,3.83,0,0,0-1,.11c-.29.08-.54.17-.75.25a4.33,4.33,0,0,0-.52.24.64.64,0,0,1-.31.11.22.22,0,0,1-.14,0,.39.39,0,0,1-.12-.17,2,2,0,0,1-.06-.38,5.16,5.16,0,0,1,0-.61,2.82,2.82,0,0,1,0-.57.54.54,0,0,1,.15-.29,1.12,1.12,0,0,1,.42-.26,4.43,4.43,0,0,1,.74-.28,8.51,8.51,0,0,1,1-.21,7.8,7.8,0,0,1,1.1-.08,5.94,5.94,0,0,1,2.24.36,4.14,4.14,0,0,1,1.53,1,4.07,4.07,0,0,1,.87,1.39,5.15,5.15,0,0,1,.28,1.68Zm-3.3,9.51a3.39,3.39,0,0,1-.06.76,1,1,0,0,1-.26.5,1.17,1.17,0,0,1-.49.28,3,3,0,0,1-.74.08,3.25,3.25,0,0,1-.77-.08,1.05,1.05,0,0,1-.48-.28,1,1,0,0,1-.26-.5,3.33,3.33,0,0,1-.07-.76,3.46,3.46,0,0,1,.07-.78,1,1,0,0,1,.26-.51,1,1,0,0,1,.48-.27,3.31,3.31,0,0,1,.77-.08,3,3,0,0,1,.74.08.94.94,0,0,1,.49.27,1.23,1.23,0,0,1,.26.51A3.53,3.53,0,0,1,1018.08,542.73Z" transform="translate(-892.05 -501.68)"/></svg>