<svg id="Layer_1" data-name="Layer 1" xmlns="http://www.w3.org/2000/svg" viewBox="0 0 1167.85 659.75"><defs><style>.cls-1{fill:#f46060;}.cls-2{fill:#fff;stroke:#f46060;stroke-miterlimit:10;stroke-width:0.5px;}</style></defs><rect class="cls-1" y="0.25" width="1078.4" height="659.25" rx="68.38"/><rect class="cls-2" x="89.2" y="0.25" width="1078.4" height="659.25" rx="68.38"/><path class="cls-1" d="M702.89,510.23a2.16,2.16,0,0,1-.49,1.38,3.37,3.37,0,0,1-1.62,1,11.82,11.82,0,0,1-3,.57,38.77,38.77,0,0,1-4.8.24,26.61,26.61,0,0,1-4.72-.24,16.54,16.54,0,0,1-3-.57,3.36,3.36,0,0,1-1.63-1,2,2,0,0,1-.49-1.38V418.84a2.16,2.16,0,0,1,.49-1.38,3.44,3.44,0,0,1,1.63-1,12.39,12.39,0,0,1,3-.57,38.25,38.25,0,0,1,4.72-.24,28.06,28.06,0,0,1,4.8.24,19.57,19.57,0,0,1,3,.57,3.45,3.45,0,0,1,1.62,1,2,2,0,0,1,.49,1.38Z" transform="translate(-374.4 -211.5)"/><path class="cls-1" d="M803.79,506.08a7.57,7.57,0,0,1-.56,3.09,7.75,7.75,0,0,1-1.63,2.28,6,6,0,0,1-2.36,1.3,10.54,10.54,0,0,1-2.76.41H788.1a18.77,18.77,0,0,1-4.55-.49,8.64,8.64,0,0,1-3.5-1.87,16.54,16.54,0,0,1-3.09-3.74,63.69,63.69,0,0,1-3.33-6.1l-24.07-45.29c-1.38-2.68-2.84-5.61-4.23-8.7s-2.76-6.18-3.9-9.1h-.16q.24,5.36.49,10.73c.08,3.58.16,7.24.16,11.06v50.65a2.65,2.65,0,0,1-.41,1.38,2.58,2.58,0,0,1-1.38,1,12.75,12.75,0,0,1-2.77.65,32.31,32.31,0,0,1-4.39.25,21.47,21.47,0,0,1-4.31-.25,9,9,0,0,1-2.68-.65,2.94,2.94,0,0,1-1.38-1,2.53,2.53,0,0,1-.41-1.38v-87a6.54,6.54,0,0,1,2-5.28,7.77,7.77,0,0,1,5-1.79h10.57a19.94,19.94,0,0,1,4.79.49,10.48,10.48,0,0,1,3.5,1.62,11.74,11.74,0,0,1,2.85,3.09,41.62,41.62,0,0,1,2.76,4.88l18.86,35.37c1.06,2.11,2.2,4.23,3.26,6.34s2.11,4.15,3.09,6.18l2.92,6.1c1,2,1.87,4,2.77,6h0c-.16-3.5-.25-7.16-.33-10.9s-.08-7.4-.08-10.81V419.25a2.21,2.21,0,0,1,.49-1.39,4.2,4.2,0,0,1,1.46-1.05,10.37,10.37,0,0,1,2.77-.65,32.63,32.63,0,0,1,4.39-.17,30.72,30.72,0,0,1,4.23.17,9,9,0,0,1,2.68.65,2.93,2.93,0,0,1,1.3,1.05,2.59,2.59,0,0,1,.41,1.39v87Z" transform="translate(-374.4 -211.5)"/><path class="cls-1" d="M905.27,463.15c0,8.87-1.14,16.51-3.5,22.77a38.94,38.94,0,0,1-10,15.45,39.71,39.71,0,0,1-15.85,8.78,77.55,77.55,0,0,1-22.2,2.85H830.63a6.14,6.14,0,0,1-4.15-1.47c-1.14-1-1.71-2.52-1.71-4.71v-84.4c0-2.2.57-3.74,1.71-4.72a6.19,6.19,0,0,1,4.15-1.46h24.8c8.61,0,15.93,1,22,3a40.86,40.86,0,0,1,15.2,8.94,37.63,37.63,0,0,1,9.35,14.72,59.21,59.21,0,0,1,3.26,20.24Zm-20.33.65A48.82,48.82,0,0,0,883.31,451a27.55,27.55,0,0,0-5.12-10.25,24,24,0,0,0-9.1-6.75c-3.66-1.62-8.62-2.43-14.64-2.43h-9.92v65.86h10.25a38.74,38.74,0,0,0,13.57-2.12,23,23,0,0,0,9.27-6.34,28.09,28.09,0,0,0,5.53-10.49A52.46,52.46,0,0,0,885,463.89Z" transform="translate(-374.4 -211.5)"/><path class="cls-1" d="M1000.48,476.89a46.38,46.38,0,0,1-2.6,15.94,30.34,30.34,0,0,1-7.73,11.87,33.42,33.42,0,0,1-12.6,7.4,53.34,53.34,0,0,1-17.24,2.52,54.37,54.37,0,0,1-16.42-2.27,31.94,31.94,0,0,1-12.28-6.92A29.41,29.41,0,0,1,924,493.89a46.46,46.46,0,0,1-2.68-16.18V418.84a2.21,2.21,0,0,1,.48-1.38,3.16,3.16,0,0,1,1.63-1,13.33,13.33,0,0,1,3-.57,38.66,38.66,0,0,1,4.8-.24,26.49,26.49,0,0,1,4.71.24,19.33,19.33,0,0,1,3,.57,3.54,3.54,0,0,1,1.63,1,2.05,2.05,0,0,1,.48,1.38V476a33.17,33.17,0,0,0,1.39,10,18.33,18.33,0,0,0,4.06,7,16.5,16.5,0,0,0,6.34,4.15,25.62,25.62,0,0,0,16.59,0A16.52,16.52,0,0,0,975.6,493a17.61,17.61,0,0,0,3.9-6.74,28.48,28.48,0,0,0,1.39-9.11v-58.3a2.21,2.21,0,0,1,.48-1.38,3.24,3.24,0,0,1,1.55-1,12.49,12.49,0,0,1,3-.57,39,39,0,0,1,4.71-.24,27.55,27.55,0,0,1,4.72.24,18.3,18.3,0,0,1,2.93.57,2.82,2.82,0,0,1,1.54,1,2,2,0,0,1,.49,1.38v58.05Z" transform="translate(-374.4 -211.5)"/><path class="cls-1" d="M1078.86,483.89A30.41,30.41,0,0,1,1076,497.3a27,27,0,0,1-7.73,9.6,32.69,32.69,0,0,1-11.38,5.77,47.9,47.9,0,0,1-13.9,2,48.67,48.67,0,0,1-9.35-.81,64.09,64.09,0,0,1-7.57-1.95,27.8,27.8,0,0,1-5.53-2.44,14.57,14.57,0,0,1-3.17-2.28,5.26,5.26,0,0,1-1.38-2.76,28.65,28.65,0,0,1-.41-5.29,26.45,26.45,0,0,1,.17-3.9,8.9,8.9,0,0,1,.49-2.52,2.5,2.5,0,0,1,.89-1.38,2.41,2.41,0,0,1,1.3-.41,5.92,5.92,0,0,1,2.93,1.22c1.3.81,2.92,1.71,4.88,2.76a57.76,57.76,0,0,0,7.15,2.77,31.45,31.45,0,0,0,9.6,1.22,22.27,22.27,0,0,0,6.42-.9,14,14,0,0,0,4.8-2.44,10.11,10.11,0,0,0,3-3.9,13.07,13.07,0,0,0,1-5.12,8.73,8.73,0,0,0-1.79-5.61,19.91,19.91,0,0,0-4.71-4.23,44.44,44.44,0,0,0-6.59-3.41q-3.66-1.59-7.56-3.42a68.7,68.7,0,0,1-7.56-4.06,32.91,32.91,0,0,1-6.59-5.45,24.35,24.35,0,0,1-4.63-7.48,26.8,26.8,0,0,1-1.79-10.41,27.49,27.49,0,0,1,2.6-12.2,25.74,25.74,0,0,1,7-8.78,28.82,28.82,0,0,1,10.33-5.2,45.29,45.29,0,0,1,12.6-1.71,49.39,49.39,0,0,1,6.91.49,46,46,0,0,1,6.43,1.38,32.77,32.77,0,0,1,5.28,2,12.77,12.77,0,0,1,3.09,1.87,4.36,4.36,0,0,1,1,1.3,10.16,10.16,0,0,1,.49,1.39,8.29,8.29,0,0,1,.24,2.19v3.25c0,1.47,0,2.69-.08,3.66a9.15,9.15,0,0,1-.41,2.44,3.07,3.07,0,0,1-.73,1.38,1.7,1.7,0,0,1-1.3.49,5.8,5.8,0,0,1-2.6-1c-1.22-.74-2.69-1.47-4.39-2.28a46.58,46.58,0,0,0-6.1-2.28,27.53,27.53,0,0,0-7.56-1,16.92,16.92,0,0,0-5.61.81,9.94,9.94,0,0,0-4,2.2,8.59,8.59,0,0,0-2.36,3.33,11.92,11.92,0,0,0-.81,4.15,9.08,9.08,0,0,0,1.79,5.61,17.13,17.13,0,0,0,4.72,4.22,51,51,0,0,0,6.66,3.42c2.52,1.06,5,2.19,7.65,3.41a76,76,0,0,1,7.64,4.07,30.93,30.93,0,0,1,6.67,5.45,24.87,24.87,0,0,1,6.5,17.64Z" transform="translate(-374.4 -211.5)"/><path class="cls-1" d="M1156.84,424.21a26.27,26.27,0,0,1-.16,3.74,11.62,11.62,0,0,1-.57,2.44,4.58,4.58,0,0,1-.9,1.38,2,2,0,0,1-1.22.49h-24.23v78.05a2.16,2.16,0,0,1-.49,1.38,3.37,3.37,0,0,1-1.62,1,12.49,12.49,0,0,1-3,.57,39.17,39.17,0,0,1-4.72.24,27,27,0,0,1-4.71-.24,16.68,16.68,0,0,1-3-.57,3.46,3.46,0,0,1-1.63-1,2.05,2.05,0,0,1-.48-1.38V432.26h-24.23a2.05,2.05,0,0,1-1.31-.49,3.74,3.74,0,0,1-.89-1.38,13.81,13.81,0,0,1-.57-2.44,26.27,26.27,0,0,1-.16-3.74,27.54,27.54,0,0,1,.16-3.83,13.26,13.26,0,0,1,.57-2.52,3.74,3.74,0,0,1,.89-1.38,2.13,2.13,0,0,1,1.31-.4h68.21a2,2,0,0,1,1.22.4,3.17,3.17,0,0,1,.9,1.38,14.08,14.08,0,0,1,.57,2.52,27.54,27.54,0,0,1,.16,3.83Z" transform="translate(-374.4 -211.5)"/><path class="cls-1" d="M1240.1,510.39a2.47,2.47,0,0,1-.33,1.39c-.16.4-.65.65-1.38.89a13.88,13.88,0,0,1-3.25.49c-1.46.08-3.42.16-5.94.16a45,45,0,0,1-5-.16,15.46,15.46,0,0,1-2.92-.57,3.2,3.2,0,0,1-1.55-1.06A3.88,3.88,0,0,1,1219,510l-8.7-21.63a70.66,70.66,0,0,0-3.09-6.51,19.47,19.47,0,0,0-3.33-4.71,12.59,12.59,0,0,0-4.23-2.85,14.63,14.63,0,0,0-5.53-1H1188v36.91a2.16,2.16,0,0,1-.49,1.38,3.37,3.37,0,0,1-1.62,1,11.82,11.82,0,0,1-3,.57,38.77,38.77,0,0,1-4.8.24,26.61,26.61,0,0,1-4.72-.24,16.54,16.54,0,0,1-3-.57,2.79,2.79,0,0,1-1.55-1,2.06,2.06,0,0,1-.49-1.38V422.34c0-2.2.57-3.74,1.71-4.72a6.14,6.14,0,0,1,4.15-1.46h25c2.52,0,4.64,0,6.26.16s3.17.24,4.47.41a39.65,39.65,0,0,1,10.49,2.84,26,26,0,0,1,8,5.29,21.27,21.27,0,0,1,5,7.72,28.45,28.45,0,0,1,1.71,10.25,30.41,30.41,0,0,1-1.22,8.86,21.91,21.91,0,0,1-3.66,7.15,23.69,23.69,0,0,1-5.94,5.45,33.73,33.73,0,0,1-8,3.74,23.09,23.09,0,0,1,4.06,2.52,19.48,19.48,0,0,1,3.58,3.66,28.17,28.17,0,0,1,3.17,4.88c1,1.79,2,3.9,2.93,6.18l8.13,19.11c.73,1.87,1.22,3.25,1.46,4.14a8.58,8.58,0,0,1,.41,2Zm-25.37-65.69a14.2,14.2,0,0,0-2.19-8.05,11.91,11.91,0,0,0-7.08-4.64,18.74,18.74,0,0,0-3.41-.57c-1.3-.08-3-.24-5.29-.24h-8.86v27.48h10a25,25,0,0,0,7.32-1,13.91,13.91,0,0,0,5.2-2.85,12.16,12.16,0,0,0,3.17-4.39,14.25,14.25,0,0,0,1.06-5.69Z" transform="translate(-374.4 -211.5)"/><path class="cls-1" d="M1290.75,476.24v34.07a2.21,2.21,0,0,1-.48,1.38,3.46,3.46,0,0,1-1.63,1,12.49,12.49,0,0,1-3,.57,39,39,0,0,1-4.71.24,28.06,28.06,0,0,1-4.8-.24,18.22,18.22,0,0,1-3-.57,3.46,3.46,0,0,1-1.63-1,2.05,2.05,0,0,1-.48-1.38V476.24l-26.51-52.77a26.58,26.58,0,0,1-1.87-4.3,2.16,2.16,0,0,1,.49-2.36,5.56,5.56,0,0,1,3.17-1c1.54-.16,3.66-.16,6.42-.16a54.09,54.09,0,0,1,5.53.16,14,14,0,0,1,3.25.57,4,4,0,0,1,1.79,1.06,8.58,8.58,0,0,1,1.06,1.71L1275.06,443c1.06,2.28,2.12,4.71,3.09,7.24s2,5.2,3.09,8h.16c1-2.68,2-5.28,2.93-7.88s2-5,2.93-7.24l10.65-23.66a4.44,4.44,0,0,1,1-1.87,3.27,3.27,0,0,1,1.7-1.14,9.67,9.67,0,0,1,3.09-.57c1.3-.08,3-.16,5.13-.16,2.84,0,5,0,6.58.16a6.59,6.59,0,0,1,3.25,1,2.1,2.1,0,0,1,.41,2.36,28,28,0,0,1-1.79,4.22l-26.5,52.77Z" transform="translate(-374.4 -211.5)"/><path class="cls-1" d="M731.43,612.68a38.21,38.21,0,0,1-2.52,14.47,27.34,27.34,0,0,1-7.4,10.57,33.82,33.82,0,0,1-12,6.59,56.34,56.34,0,0,1-16.67,2.28h-8v30.89a2.21,2.21,0,0,1-.49,1.39,3.44,3.44,0,0,1-1.62,1,11.4,11.4,0,0,1-3,.57,38.49,38.49,0,0,1-4.8.25,25.56,25.56,0,0,1-4.72-.25,15.71,15.71,0,0,1-3-.57,2.8,2.8,0,0,1-1.55-1,2.05,2.05,0,0,1-.49-1.39V590.4c0-2.36.57-4.06,1.87-5.28a6.64,6.64,0,0,1,4.8-1.79h22.85c2.27,0,4.47.08,6.5.24a69.43,69.43,0,0,1,7.48,1.14,31.87,31.87,0,0,1,8.78,3.17,26,26,0,0,1,7.57,5.86A24.67,24.67,0,0,1,729.8,602,33.57,33.57,0,0,1,731.43,612.68Zm-20.57,1.38a17,17,0,0,0-1.79-8.37,12.91,12.91,0,0,0-4.39-4.88,13.59,13.59,0,0,0-5.53-1.95,46.28,46.28,0,0,0-5.94-.41h-8.37V631.3h8.86a20.38,20.38,0,0,0,7.89-1.3,13.17,13.17,0,0,0,5.2-3.58,15.52,15.52,0,0,0,3.09-5.45,20.91,20.91,0,0,0,1.06-6.91Z" transform="translate(-374.4 -211.5)"/><path class="cls-1" d="M818.51,677.57a2.54,2.54,0,0,1-.32,1.38c-.17.4-.65.65-1.39.89a13.37,13.37,0,0,1-3.25.49c-1.46.08-3.41.16-5.93.16a45.24,45.24,0,0,1-5-.16,15.46,15.46,0,0,1-2.92-.57,3.25,3.25,0,0,1-1.55-1.06,3.88,3.88,0,0,1-.73-1.54l-8.7-21.63a70.4,70.4,0,0,0-3.09-6.5,19.27,19.27,0,0,0-3.33-4.72,12.49,12.49,0,0,0-4.23-2.85,14.63,14.63,0,0,0-5.53-1h-6.1V677.4a2.16,2.16,0,0,1-.49,1.38,3.37,3.37,0,0,1-1.62,1,11.73,11.73,0,0,1-3,.57,38.77,38.77,0,0,1-4.8.24,26.49,26.49,0,0,1-4.71-.24,16.68,16.68,0,0,1-3-.57,2.83,2.83,0,0,1-1.55-1,2.05,2.05,0,0,1-.48-1.38V589.51c0-2.2.56-3.74,1.7-4.72a6.19,6.19,0,0,1,4.15-1.46h25c2.52,0,4.64,0,6.26.16s3.17.24,4.48.41a39.67,39.67,0,0,1,10.48,2.84,26.22,26.22,0,0,1,8,5.29,21.27,21.27,0,0,1,5,7.72A28.45,28.45,0,0,1,813.47,610a30.41,30.41,0,0,1-1.22,8.86,22.06,22.06,0,0,1-3.66,7.16,23.8,23.8,0,0,1-5.93,5.44,34,34,0,0,1-8,3.74,23.09,23.09,0,0,1,4.06,2.52,19.48,19.48,0,0,1,3.58,3.66,27.6,27.6,0,0,1,3.17,4.88c1,1.79,2,3.9,2.93,6.18l8.13,19.11c.73,1.87,1.22,3.25,1.46,4.15a8.43,8.43,0,0,1,.41,2Zm-25.37-65.7a14.2,14.2,0,0,0-2.19-8,11.88,11.88,0,0,0-7.08-4.64,19.64,19.64,0,0,0-3.41-.57c-1.3-.08-3-.24-5.29-.24h-8.86v27.48h10a24.92,24.92,0,0,0,7.32-1,13.91,13.91,0,0,0,5.2-2.85,12,12,0,0,0,3.17-4.39,14.08,14.08,0,0,0,1.06-5.69Z" transform="translate(-374.4 -211.5)"/><path class="cls-1" d="M912.18,672.77a33.8,33.8,0,0,1,1.14,4.23,2.44,2.44,0,0,1-.57,2.35,5.55,5.55,0,0,1-2.93,1,57.6,57.6,0,0,1-5.77.16c-2.44,0-4.55,0-5.94-.08a13.37,13.37,0,0,1-3.25-.49,2.81,2.81,0,0,1-1.54-1,4,4,0,0,1-.74-1.55L886.08,658H849.73l-6.09,18.95a5.15,5.15,0,0,1-.82,1.78,3.26,3.26,0,0,1-1.54,1.14,8.94,8.94,0,0,1-3.09.57c-1.38.08-3.09.16-5.21.16a33.34,33.34,0,0,1-5.36-.24,4.14,4.14,0,0,1-2.69-1.06,2.92,2.92,0,0,1-.48-2.44,21.4,21.4,0,0,1,1.14-4.22l29.84-85.87a8,8,0,0,1,1.05-2,4.75,4.75,0,0,1,1.87-1.22A13.93,13.93,0,0,1,862,583c1.55,0,3.58-.08,6.1-.08,2.93,0,5.28,0,7,.08a17,17,0,0,1,4.07.49,3.54,3.54,0,0,1,2.11,1.22,6.46,6.46,0,0,1,1.06,2.28l29.92,85.78Zm-44.4-71h0l-13.66,41.14h27.49L868,601.79Z" transform="translate(-374.4 -211.5)"/><path class="cls-1" d="M990.89,665.45c0,1.22,0,2.28-.08,3.17a16.75,16.75,0,0,1-.33,2.28,7,7,0,0,1-.57,1.62,6.16,6.16,0,0,1-1.22,1.55,16.28,16.28,0,0,1-3.17,2.19,35.64,35.64,0,0,1-5.77,2.61,45.84,45.84,0,0,1-7.81,2,57.21,57.21,0,0,1-9.43.81,50,50,0,0,1-18-3.09A34.92,34.92,0,0,1,931,669.43a41.36,41.36,0,0,1-8.62-15.2,67.25,67.25,0,0,1-3-21.22,68.38,68.38,0,0,1,3.26-22A46.32,46.32,0,0,1,931.77,595a37.34,37.34,0,0,1,14.15-9.84,47.14,47.14,0,0,1,18.22-3.34,49.65,49.65,0,0,1,7.8.65,41.2,41.2,0,0,1,6.91,1.79,30.62,30.62,0,0,1,5.69,2.52,21.8,21.8,0,0,1,3.58,2.44,5.66,5.66,0,0,1,1.38,1.71,5.14,5.14,0,0,1,.57,1.71c.09.65.25,1.54.33,2.44s.08,2.11.08,3.49a27.32,27.32,0,0,1-.16,3.82,15.13,15.13,0,0,1-.49,2.53,3.16,3.16,0,0,1-.89,1.38,1.7,1.7,0,0,1-1.22.49,5,5,0,0,1-2.85-1.31,35.53,35.53,0,0,0-4.47-2.92,37.31,37.31,0,0,0-6.51-2.93,27.23,27.23,0,0,0-9-1.3,22.66,22.66,0,0,0-10.33,2.36,21.69,21.69,0,0,0-7.72,6.75A30.7,30.7,0,0,0,942,618a56.25,56.25,0,0,0-1.63,14,53.46,53.46,0,0,0,1.79,14.8,29.31,29.31,0,0,0,5,10.33,20.34,20.34,0,0,0,7.89,6A26.31,26.31,0,0,0,965.44,665a29.33,29.33,0,0,0,9-1.22,35.32,35.32,0,0,0,6.59-2.76,47.67,47.67,0,0,0,4.47-2.68,5.4,5.4,0,0,1,2.76-1.22,2,2,0,0,1,1.22.32,1.78,1.78,0,0,1,.74,1.22,24,24,0,0,1,.48,2.52c.09,1.06.17,2.52.17,4.31Z" transform="translate(-374.4 -211.5)"/><path class="cls-1" d="M1070.24,591.38a26.27,26.27,0,0,1-.16,3.74,10.35,10.35,0,0,1-.57,2.44,4.57,4.57,0,0,1-.89,1.38,2,2,0,0,1-1.22.49h-24.23v78.05a2.21,2.21,0,0,1-.49,1.39,3.43,3.43,0,0,1-1.63,1,11.93,11.93,0,0,1-3,.57,38.94,38.94,0,0,1-4.72.25,26,26,0,0,1-4.72-.25,15.71,15.71,0,0,1-3-.57,3.43,3.43,0,0,1-1.63-1,2.05,2.05,0,0,1-.49-1.39V599.43H999.26a2,2,0,0,1-1.3-.49,3.74,3.74,0,0,1-.89-1.38,13,13,0,0,1-.57-2.44,24.74,24.74,0,0,1-.17-3.74,25.72,25.72,0,0,1,.17-3.82,12.37,12.37,0,0,1,.57-2.52,3.79,3.79,0,0,1,.89-1.39,2.1,2.1,0,0,1,1.3-.4h68.22a2,2,0,0,1,1.22.4,3.21,3.21,0,0,1,.89,1.39,12.37,12.37,0,0,1,.57,2.52,25.72,25.72,0,0,1,.17,3.82Z" transform="translate(-374.4 -211.5)"/><path class="cls-1" d="M1101.39,677.4a2.27,2.27,0,0,1-.49,1.39,3.53,3.53,0,0,1-1.63,1,11.73,11.73,0,0,1-3,.57,38.59,38.59,0,0,1-4.79.24,26.55,26.55,0,0,1-4.72-.24,16.68,16.68,0,0,1-3-.57,3.44,3.44,0,0,1-1.62-1,2.05,2.05,0,0,1-.49-1.39V586a2.18,2.18,0,0,1,.49-1.38,3.45,3.45,0,0,1,1.62-1,13,13,0,0,1,3-.57,38.25,38.25,0,0,1,4.72-.24,27.94,27.94,0,0,1,4.79.24,19.33,19.33,0,0,1,3,.57,3.54,3.54,0,0,1,1.63,1,2.08,2.08,0,0,1,.49,1.38Z" transform="translate(-374.4 -211.5)"/><path class="cls-1" d="M1189.44,665.45c0,1.22,0,2.28-.08,3.17a15.43,15.43,0,0,1-.32,2.28,8,8,0,0,1-.57,1.62,6.4,6.4,0,0,1-1.22,1.55,16.61,16.61,0,0,1-3.17,2.19,35.78,35.78,0,0,1-5.78,2.61,45.47,45.47,0,0,1-7.8,2,57.21,57.21,0,0,1-9.43.81,50,50,0,0,1-18-3.09,34.92,34.92,0,0,1-13.58-9.19,41.22,41.22,0,0,1-8.62-15.2,67.25,67.25,0,0,1-3-21.22,68.67,68.67,0,0,1,3.25-22,46.5,46.5,0,0,1,9.19-16.09,37.19,37.19,0,0,1,14.15-9.84,47.12,47.12,0,0,1,18.21-3.34,49.67,49.67,0,0,1,7.81.65,41.2,41.2,0,0,1,6.91,1.79,30.92,30.92,0,0,1,5.69,2.52,21.8,21.8,0,0,1,3.58,2.44,5.66,5.66,0,0,1,1.38,1.71,5.14,5.14,0,0,1,.57,1.71c.08.65.24,1.54.33,2.44s.08,2.11.08,3.49a25.72,25.72,0,0,1-.17,3.82,14.29,14.29,0,0,1-.48,2.53,3.17,3.17,0,0,1-.9,1.38,1.67,1.67,0,0,1-1.22.49,5,5,0,0,1-2.84-1.31,35.73,35.73,0,0,0-4.48-2.92,36.85,36.85,0,0,0-6.5-2.93,27.25,27.25,0,0,0-9-1.3,22.62,22.62,0,0,0-10.32,2.36,21.8,21.8,0,0,0-7.73,6.75,30.69,30.69,0,0,0-4.79,10.57,56.25,56.25,0,0,0-1.63,14,53.46,53.46,0,0,0,1.79,14.8,29.31,29.31,0,0,0,5,10.33,20.34,20.34,0,0,0,7.89,6A26.26,26.26,0,0,0,1164,665a29.35,29.35,0,0,0,9-1.22,35.32,35.32,0,0,0,6.59-2.76,49,49,0,0,0,4.47-2.68,5.4,5.4,0,0,1,2.76-1.22,2,2,0,0,1,1.22.32,1.74,1.74,0,0,1,.73,1.22,21.27,21.27,0,0,1,.49,2.52c.08,1.06.16,2.52.16,4.31Z" transform="translate(-374.4 -211.5)"/><path class="cls-1" d="M1261,672.36a23.05,23.05,0,0,1-.17,3.66,10.58,10.58,0,0,1-.57,2.36,3.29,3.29,0,0,1-.89,1.3,2.47,2.47,0,0,1-1.22.41h-48.62a6.14,6.14,0,0,1-4.15-1.47c-1.14-1-1.71-2.52-1.71-4.71v-84.4c0-2.2.57-3.74,1.71-4.72a6.19,6.19,0,0,1,4.15-1.46h48.29a2.19,2.19,0,0,1,1.22.4,2.39,2.39,0,0,1,.9,1.31,12.65,12.65,0,0,1,.57,2.35,25.14,25.14,0,0,1,.16,3.74,23.82,23.82,0,0,1-.16,3.58,11.17,11.17,0,0,1-.57,2.36,3.3,3.3,0,0,1-.9,1.3,2,2,0,0,1-1.22.41h-34.55v23.66h29.27a2,2,0,0,1,1.22.4,2.65,2.65,0,0,1,.89,1.31,10.48,10.48,0,0,1,.57,2.35,22.56,22.56,0,0,1,.17,3.58,22.05,22.05,0,0,1-.17,3.58,9.89,9.89,0,0,1-.57,2.28,3.09,3.09,0,0,1-.89,1.22,2.45,2.45,0,0,1-1.22.4h-29.27v27.32h34.88a2,2,0,0,1,1.22.41,2.58,2.58,0,0,1,.89,1.3,10.58,10.58,0,0,1,.57,2.36,23,23,0,0,1,.17,3.66Z" transform="translate(-374.4 -211.5)"/><path class="cls-1" d="M1334.17,651.06a30.41,30.41,0,0,1-2.84,13.41,27,27,0,0,1-7.73,9.6,32.69,32.69,0,0,1-11.38,5.77,47.9,47.9,0,0,1-13.9,1.95A48.67,48.67,0,0,1,1289,681a64.09,64.09,0,0,1-7.57-2,27.43,27.43,0,0,1-5.52-2.44,14.43,14.43,0,0,1-3.18-2.28,5.26,5.26,0,0,1-1.38-2.76,28.82,28.82,0,0,1-.4-5.29,28.09,28.09,0,0,1,.16-3.9,8.9,8.9,0,0,1,.49-2.52,2.5,2.5,0,0,1,.89-1.38,2.41,2.41,0,0,1,1.3-.41,5.92,5.92,0,0,1,2.93,1.22c1.3.81,2.93,1.71,4.88,2.77a57.84,57.84,0,0,0,7.15,2.76,31.45,31.45,0,0,0,9.6,1.22,22.63,22.63,0,0,0,6.42-.89,14.19,14.19,0,0,0,4.8-2.44,10.12,10.12,0,0,0,3-3.91,13.07,13.07,0,0,0,1-5.12,8.77,8.77,0,0,0-1.79-5.61,20.13,20.13,0,0,0-4.71-4.23,44.44,44.44,0,0,0-6.59-3.41q-3.66-1.59-7.56-3.42a68.7,68.7,0,0,1-7.56-4.06,32.91,32.91,0,0,1-6.59-5.45,24.35,24.35,0,0,1-4.63-7.48,26.8,26.8,0,0,1-1.79-10.41,27.49,27.49,0,0,1,2.6-12.2,25.74,25.74,0,0,1,7-8.78,29,29,0,0,1,10.33-5.2,45.29,45.29,0,0,1,12.6-1.71,49.39,49.39,0,0,1,6.91.49,47.45,47.45,0,0,1,6.43,1.38,32.77,32.77,0,0,1,5.28,2,12.77,12.77,0,0,1,3.09,1.87,4.11,4.11,0,0,1,1,1.31,9.5,9.5,0,0,1,.49,1.38,8.29,8.29,0,0,1,.24,2.19v3.26c0,1.46,0,2.68-.08,3.65a9.15,9.15,0,0,1-.41,2.44,3.08,3.08,0,0,1-.73,1.39,1.74,1.74,0,0,1-1.3.48,5.8,5.8,0,0,1-2.6-1.05c-1.22-.73-2.69-1.47-4.39-2.28a48.06,48.06,0,0,0-6.1-2.28,27.53,27.53,0,0,0-7.56-1,16.92,16.92,0,0,0-5.61.81,9.94,9.94,0,0,0-4,2.2,8.69,8.69,0,0,0-2.36,3.33,11.92,11.92,0,0,0-.81,4.15,9.08,9.08,0,0,0,1.79,5.61,17.16,17.16,0,0,0,4.72,4.23,52.29,52.29,0,0,0,6.66,3.41c2.52,1.06,5,2.2,7.65,3.42a75.91,75.91,0,0,1,7.64,4.06,31,31,0,0,1,6.67,5.45,24.87,24.87,0,0,1,6.5,17.64Z" transform="translate(-374.4 -211.5)"/></svg>