<svg id="Layer_1" data-name="Layer 1" xmlns="http://www.w3.org/2000/svg" viewBox="0 0 1273.16 719.18"><defs><style>.cls-1{fill:#f46060;}.cls-2{fill:#fff;stroke:#f46060;stroke-miterlimit:10;stroke-width:0.5px;}</style></defs><rect class="cls-1" y="0.25" width="1175.65" height="718.68" rx="73.96"/><rect class="cls-2" x="97.27" y="0.25" width="1175.65" height="718.68" rx="73.96"/><path class="cls-1" d="M802.11,310.38V422.06H779.35V310.38Z" transform="translate(-458.09 -207.07)"/><path class="cls-1" d="M827.42,422.06V310.38h29.06c33.15,68.05,38.52,79.07,40.23,84.37h.3c-1.12-13.26-1.28-31.5-1.28-49.75V310.38H916.5V422.06H888.63c-35.59-74.85-39.57-83.74-41.21-87.93h-.16c.81,14.11.92,33.41.92,53.35v34.58Z" transform="translate(-458.09 -207.07)"/><path class="cls-1" d="M941.67,310.38h38.81c33.93,0,52.58,20.77,52.58,53.48,0,36.3-19.6,58.2-53.47,58.2H941.67Zm22.9,93.74h14.78c19.76,0,30.17-14.8,30.17-39.92,0-20.75-9.33-35.6-30-35.6H964.57Z" transform="translate(-458.09 -207.07)"/><path class="cls-1" d="M1075.15,310.38v71c0,12.6,3.47,24.14,20.7,24.14s20.21-11,20.21-24.15v-71h23V381.9c0,23.39-9.93,41.79-43.65,41.79-33.17,0-43-17.8-43-41.63V310.38Z" transform="translate(-458.09 -207.07)"/><path class="cls-1" d="M1176.81,389.08c1.6,10.14,8.21,16.76,20.11,16.76,12.73,0,17.17-5.53,17.17-13.43,0-10.14-6.14-14.31-22.28-18.89-25.87-7.17-34.71-16.46-34.71-32.59,0-20.71,16.57-32,37.84-32,26.8,0,38.14,13.93,39.42,31.88H1212c-1.39-8.24-5.39-14.51-17.27-14.51-10,0-15,4.65-15,12.41,0,8.33,5.6,10.69,21.43,15.29,28.51,8.33,36,19.72,36,35.74,0,18.21-12.09,33.75-41.33,33.75-24.38,0-40.21-12.28-41.57-34.4Z" transform="translate(-458.09 -207.07)"/><path class="cls-1" d="M1274.36,329.21h-30.27V310.38h83.48v18.83h-30.28v92.85h-22.93Z" transform="translate(-458.09 -207.07)"/><path class="cls-1" d="M1364.44,375.92v46.14h-22.35V310.38h45.49c21.08,0,36.14,10.46,36.14,30.21,0,15.22-8,22.54-17.36,26.11,11.07,4.29,15.06,13,15.06,26.9v2.9a193.57,193.57,0,0,0,1.48,25.56H1401c-1.61-4.69-2.08-12.2-2.08-25.93v-2.94c0-12.78-4.65-17.27-19.24-17.27Zm0-18.07h17c10.82,0,19.73-2.9,19.73-15.25,0-10.34-7.47-14.14-16.6-14.14h-20.13Z" transform="translate(-458.09 -207.07)"/><path class="cls-1" d="M1466.56,422.06V380a6.28,6.28,0,0,0-1-3.61l-35.33-66h25.65c7.85,16.82,18.1,38.13,23.08,48.53,7.32-15.88,15.82-33,23.1-48.53h23.72l-35.57,65.5a5.76,5.76,0,0,0-.92,3.43v42.75Z" transform="translate(-458.09 -207.07)"/><path class="cls-1" d="M912.5,506h22.76v93h49.87l-2.49,18.66H912.5Z" transform="translate(-458.09 -207.07)"/><path class="cls-1" d="M1070.42,568.9h-48.55V599h53.6l-2.73,18.66H999.68V506h72.78v18.81h-50.59v25.31h48.55Z" transform="translate(-458.09 -207.07)"/><path class="cls-1" d="M1119.84,617.62l-36-111.67h24.42l14.82,50.76c4.37,14.85,8.47,29,10.53,39.55h.32c2.28-9.93,6.77-25,11.06-39L1160.75,506H1184l-37,111.67Z" transform="translate(-458.09 -207.07)"/><path class="cls-1" d="M1267.29,568.9h-48.55V599h53.6l-2.74,18.66h-73V506h72.77v18.81h-50.58v25.31h48.55Z" transform="translate(-458.09 -207.07)"/><path class="cls-1" d="M1288.63,506h22.77v93h49.87l-2.49,18.66h-70.15Z" transform="translate(-458.09 -207.07)"/><path class="cls-1" d="M783.83,701.52H825c21,0,39.41,10.78,39.41,33.4,0,23.21-17.08,35.18-41.34,35.18H806.61v43.1H783.83Zm22.78,50.63h15c12.14,0,19.67-4.52,19.67-16.78,0-11.16-7.8-15.77-19-15.77H806.61Z" transform="translate(-458.09 -207.07)"/><path class="cls-1" d="M903.48,767.06V813.2H881.12V701.52h45.49c21.08,0,36.15,10.46,36.15,30.21,0,15.23-8,22.54-17.37,26.11,11.07,4.29,15.06,13,15.06,26.9v2.9a193.57,193.57,0,0,0,1.48,25.56H940c-1.61-4.69-2.08-12.2-2.08-25.93v-2.94c0-12.78-4.65-17.27-19.24-17.27Zm0-18.07h17c10.82,0,19.73-2.9,19.73-15.25,0-10.34-7.47-14.14-16.59-14.14H903.48Z" transform="translate(-458.09 -207.07)"/><path class="cls-1" d="M1077.16,756.83c0,32.15-15.53,58-50.71,58-34.45,0-49.17-26.51-49.17-58.25,0-27.5,15.06-56.54,50.74-56.54C1061.78,700,1077.16,726.79,1077.16,756.83Zm-76.34-.16c0,22.28,8.89,40,26.56,40,19.42,0,26.42-16.5,26.42-39.86,0-20.56-6.91-38.7-26.81-38.7C1008.54,718.15,1000.82,735.19,1000.82,756.67Z" transform="translate(-458.09 -207.07)"/><path class="cls-1" d="M1127.61,778.32c0,23.46-8.17,36.34-32.77,36.34a64.38,64.38,0,0,1-12.88-1.1V795.61a73.51,73.51,0,0,0,9.45.51c11.58,0,13.43-6.82,13.43-17.29V701.52h22.77Z" transform="translate(-458.09 -207.07)"/><path class="cls-1" d="M1221.25,764.47h-48.54v30.06h53.6l-2.74,18.67h-73V701.52h72.77v18.81h-50.58v25.31h48.54Z" transform="translate(-458.09 -207.07)"/><path class="cls-1" d="M1330.71,778.05c-3,18.85-15.68,36.78-44.34,36.78-35.19,0-47.86-25.62-47.86-57.48,0-31.52,16.19-57.31,48.8-57.31,30.15,0,41.69,19.24,42.76,36.56h-22.24c-2.26-9.21-5.95-18.31-21.28-18.31-18.58,0-24.65,18.86-24.65,38.93,0,21.25,5.86,39.49,24.94,39.49,14.91,0,19.39-10.33,21.49-18.66Z" transform="translate(-458.09 -207.07)"/><path class="cls-1" d="M1370.27,720.35H1340V701.52h83.48v18.83H1393.2V813.2h-22.93Z" transform="translate(-458.09 -207.07)"/><path class="cls-1" d="M1455.09,780.22c1.6,10.14,8.21,16.76,20.11,16.76,12.73,0,17.16-5.53,17.16-13.43,0-10.14-6.13-14.3-22.27-18.89-25.88-7.17-34.72-16.46-34.72-32.59,0-20.71,16.58-32,37.85-32,26.79,0,38.13,13.93,39.42,31.88h-22.36c-1.38-8.24-5.39-14.51-17.26-14.51-10,0-15,4.65-15,12.41,0,8.33,5.6,10.69,21.43,15.29,28.51,8.33,36,19.72,36,35.74,0,18.21-12.09,33.75-41.33,33.75-24.38,0-40.21-12.28-41.57-34.4Z" transform="translate(-458.09 -207.07)"/></svg>