<svg id="Layer_1" data-name="Layer 1" xmlns="http://www.w3.org/2000/svg" viewBox="0 0 1477.88 834.84"><defs><style>.cls-1{fill:#f46060;}.cls-2{fill:#fff;stroke:#f46060;stroke-miterlimit:10;stroke-width:0.5px;}</style></defs><rect class="cls-1" y="0.25" width="1364.66" height="834.34" rx="148.22"/><rect class="cls-2" x="112.97" y="0.25" width="1364.66" height="834.34" rx="148.22"/><path class="cls-1" d="M689.27,372.31a14.44,14.44,0,0,1-.88,4.94,14,14,0,0,1-2.64,3.7,9.17,9.17,0,0,1-3.88,2.11,18.82,18.82,0,0,1-4.58.71H663.72a27.88,27.88,0,0,1-7.23-.88,15.94,15.94,0,0,1-5.64-3,24.73,24.73,0,0,1-4.93-6c-1.59-2.47-3.35-5.82-5.47-9.87l-38.77-73c-2.29-4.4-4.58-9-6.87-14.1-2.3-4.93-4.41-9.87-6.35-14.62h-.18c.36,5.81.53,11.63.71,17.27,0,5.81.18,11.63.18,17.8V379a4.74,4.74,0,0,1-.71,2.11,3.79,3.79,0,0,1-2.29,1.59,32.71,32.71,0,0,1-4.41,1.06c-1.93.17-4.23.35-7,.35a42,42,0,0,1-7.05-.35,12.45,12.45,0,0,1-4.4-1.06,4.19,4.19,0,0,1-2.12-1.59,4.71,4.71,0,0,1-.53-2.11V238.9c0-3.71,1.06-6.7,3.35-8.46a12,12,0,0,1,8.11-2.82H589a33.1,33.1,0,0,1,7.75.7,16.58,16.58,0,0,1,5.64,2.64A20.81,20.81,0,0,1,607,235.9a53.09,53.09,0,0,1,4.4,7.93l30.32,56.93c1.76,3.52,3.52,6.87,5.28,10.22s3.35,6.7,4.94,10,3.17,6.69,4.76,9.86,3,6.35,4.4,9.7h0c-.17-5.64-.35-11.46-.52-17.63s0-12,0-17.44V232.37a4.72,4.72,0,0,1,.7-2.11,7.37,7.37,0,0,1,2.47-1.76,13.5,13.5,0,0,1,4.4-1.06c1.77-.18,4.23-.35,7-.35a40.86,40.86,0,0,1,6.88.35,11.36,11.36,0,0,1,4.23,1.06,4.35,4.35,0,0,1,2.11,1.76,4.71,4.71,0,0,1,.53,2.11V372.49Z" transform="translate(-209.18 -56.41)"/><path class="cls-1" d="M863.4,303.58c0,12.86-1.58,24.5-4.76,34.72a68.47,68.47,0,0,1-14.27,25.91,62.35,62.35,0,0,1-23.62,16.21c-9.34,3.7-20.09,5.64-32.43,5.64s-22.73-1.59-31.72-4.76A54.71,54.71,0,0,1,734,366.85c-6-6.52-10.58-14.81-13.57-24.85s-4.58-21.86-4.58-35.6c0-12.69,1.58-24,4.76-34a69.08,69.08,0,0,1,14.27-25.73,62.24,62.24,0,0,1,23.62-16.21c9.34-3.71,20.27-5.64,32.6-5.64s22.21,1.58,31.2,4.75A56.64,56.64,0,0,1,845.07,244c6,6.52,10.58,14.62,13.75,24.67,3.17,9.87,4.58,21.68,4.58,35.07Zm-33.13,1.76A124.8,124.8,0,0,0,828.33,283a48.9,48.9,0,0,0-6.52-17.28,31.45,31.45,0,0,0-12.34-11.1c-5.11-2.64-11.63-3.88-19.21-3.88s-14.27,1.41-19.56,4.41A35.5,35.5,0,0,0,758,266.92,51.39,51.39,0,0,0,751.13,284a98.14,98.14,0,0,0-1.93,20.8,128.1,128.1,0,0,0,1.93,22.91,50,50,0,0,0,6.53,17.45A31.2,31.2,0,0,0,770,356.27c5.11,2.47,11.64,3.88,19.39,3.88s14.28-1.41,19.56-4.4a34.07,34.07,0,0,0,12.69-11.81,51.52,51.52,0,0,0,6.88-17.45,102.67,102.67,0,0,0,1.93-21.15Z" transform="translate(-209.18 -56.41)"/><path class="cls-1" d="M1033.3,240.48a32.52,32.52,0,0,1-.35,6.17,16.16,16.16,0,0,1-.88,3.88,4.87,4.87,0,0,1-1.41,2.11,2.65,2.65,0,0,1-1.94.71H977.79v41.94h47.76a6.51,6.51,0,0,1,1.94.53,4.1,4.1,0,0,1,1.41,2.12,10.53,10.53,0,0,1,.88,3.87,56.83,56.83,0,0,1,.35,6,30.61,30.61,0,0,1-.35,6,20.28,20.28,0,0,1-.88,4.05,5.66,5.66,0,0,1-1.41,2.29,3.66,3.66,0,0,1-1.94.71H977.79v58a3.53,3.53,0,0,1-.71,2.29,4.81,4.81,0,0,1-2.64,1.59,45.37,45.37,0,0,1-4.94,1.06c-1.94.17-4.58.35-7.75.35a46.63,46.63,0,0,1-7.58-.35,26.17,26.17,0,0,1-4.94-1.06,8.65,8.65,0,0,1-2.64-1.59,3.52,3.52,0,0,1-.7-2.29V237.49c0-3.53.88-6.17,2.64-7.58a10.59,10.59,0,0,1,6.7-2.29h73.31a4.25,4.25,0,0,1,1.94.7,4.85,4.85,0,0,1,1.41,2.12,11.35,11.35,0,0,1,.88,4.05,57.23,57.23,0,0,1,.36,6.17Z" transform="translate(-209.18 -56.41)"/><path class="cls-1" d="M1174.83,379.36a3.41,3.41,0,0,1-.53,2.29,5.07,5.07,0,0,1-2.29,1.59,18.28,18.28,0,0,1-5.29.88c-2.29,0-5.46.18-9.52.18-3.35,0-6,0-8.1-.18a16.44,16.44,0,0,1-4.76-.88,4.49,4.49,0,0,1-2.47-1.76,10.75,10.75,0,0,1-1.23-2.47l-13.93-34.9c-1.76-3.87-3.35-7.4-4.93-10.39a31.94,31.94,0,0,0-5.29-7.58,18.15,18.15,0,0,0-6.87-4.59,23.59,23.59,0,0,0-9-1.58h-9.87v59.39a4.8,4.8,0,0,1-.71,2.12,4.86,4.86,0,0,1-2.64,1.58,24.52,24.52,0,0,1-4.76.88c-1.94.18-4.58.36-7.75.36a45.29,45.29,0,0,1-7.58-.36c-1.94-.35-3.7-.52-4.94-.88a3.78,3.78,0,0,1-2.46-1.58,4.94,4.94,0,0,1-.71-2.12V237.84c0-3.53.88-6.17,2.64-7.58a10.63,10.63,0,0,1,6.7-2.29h40.36c4,0,7.4,0,10,.17s5.11.36,7.22.53a65.48,65.48,0,0,1,16.92,4.59,36.3,36.3,0,0,1,12.69,8.46,39.39,39.39,0,0,1,8.11,12.33,47,47,0,0,1,2.82,16.39,51,51,0,0,1-1.94,14.28,36.73,36.73,0,0,1-5.82,11.45,41.3,41.3,0,0,1-9.51,8.82,48.23,48.23,0,0,1-12.87,6,31.47,31.47,0,0,1,6.52,4,36.37,36.37,0,0,1,5.82,5.82,66.27,66.27,0,0,1,5.11,7.75c1.59,3,3.17,6.17,4.76,9.87L1172,369.14c1.23,3,1.93,5.29,2.46,6.7a13.81,13.81,0,0,1,.53,3.35Zm-40.89-105.92a23.6,23.6,0,0,0-3.53-13c-2.29-3.53-6.17-6-11.45-7.4a43.74,43.74,0,0,0-5.47-.89c-1.93-.17-4.93-.35-8.46-.35h-14.27V296H1107a39.81,39.81,0,0,0,11.81-1.59,24.33,24.33,0,0,0,8.46-4.58,20.15,20.15,0,0,0,5.11-7.05,24.91,24.91,0,0,0,1.76-9.16Z" transform="translate(-209.18 -56.41)"/><path class="cls-1" d="M1290.44,371.08a28.65,28.65,0,0,1-.35,5.81,18.54,18.54,0,0,1-.88,3.88,4.79,4.79,0,0,1-1.59,2.12,2.9,2.9,0,0,1-1.93.7h-78.26a9.64,9.64,0,0,1-6.69-2.29c-1.77-1.59-2.65-4.05-2.65-7.58V237.84c0-3.53.88-6.17,2.65-7.58a10.58,10.58,0,0,1,6.69-2.29h77.9a6.21,6.21,0,0,1,1.94.53,4,4,0,0,1,1.41,2.11,17.93,17.93,0,0,1,.88,3.88,51.38,51.38,0,0,1,.35,6,26.09,26.09,0,0,1-.35,5.64,17.93,17.93,0,0,1-.88,3.88,6.28,6.28,0,0,1-1.41,2.11,3.63,3.63,0,0,1-1.94.71h-55.69v38.07h47.06a4.25,4.25,0,0,1,1.94.7,7.5,7.5,0,0,1,1.58,2.12,14,14,0,0,1,.88,3.7,49.54,49.54,0,0,1,.36,5.64,28.76,28.76,0,0,1-.36,5.81,14.23,14.23,0,0,1-.88,3.71,3.52,3.52,0,0,1-1.58,1.93,4,4,0,0,1-1.94.53h-47.06v44.06h56.22a4.3,4.3,0,0,1,1.94.71,7.39,7.39,0,0,1,1.59,2.11,16.39,16.39,0,0,1,.88,3.88,53.14,53.14,0,0,1,.35,5.82Z" transform="translate(-209.18 -56.41)"/><path class="cls-1" d="M1410.82,371.08a28.65,28.65,0,0,1-.35,5.81,17.88,17.88,0,0,1-.89,3.88,4.85,4.85,0,0,1-1.58,2.12,2.94,2.94,0,0,1-1.94.7h-78.25a9.65,9.65,0,0,1-6.7-2.29c-1.76-1.59-2.64-4.05-2.64-7.58V237.84c0-3.53.88-6.17,2.64-7.58a10.59,10.59,0,0,1,6.7-2.29h77.9a6.21,6.21,0,0,1,1.94.53,4.08,4.08,0,0,1,1.41,2.11,18.54,18.54,0,0,1,.88,3.88,53.69,53.69,0,0,1,.35,6,26.09,26.09,0,0,1-.35,5.64,18.54,18.54,0,0,1-.88,3.88,6.59,6.59,0,0,1-1.41,2.11,3.66,3.66,0,0,1-1.94.71H1350v38.07h47.06a4.25,4.25,0,0,1,1.94.7,7.32,7.32,0,0,1,1.59,2.12,14.45,14.45,0,0,1,.88,3.7,52.18,52.18,0,0,1,.35,5.64,29.57,29.57,0,0,1-.35,5.81,14.65,14.65,0,0,1-.88,3.71,3.54,3.54,0,0,1-1.59,1.93,3.91,3.91,0,0,1-1.94.53H1350v44.06h56.23a4.24,4.24,0,0,1,1.93.71,7.39,7.39,0,0,1,1.59,2.11,15.91,15.91,0,0,1,.88,3.88,50.76,50.76,0,0,1,.35,5.82Z" transform="translate(-209.18 -56.41)"/><path class="cls-1" d="M505.8,556.84a63.16,63.16,0,0,1-4.05,23.27,43.6,43.6,0,0,1-12,17.09,54.7,54.7,0,0,1-19.21,10.58c-7.57,2.46-16.56,3.7-26.79,3.7h-13v49.7a4.72,4.72,0,0,1-.7,2.11,4.8,4.8,0,0,1-2.65,1.59,26.18,26.18,0,0,1-4.75.88c-1.94.18-4.59.35-7.76.35a46.63,46.63,0,0,1-7.58-.35c-1.94-.35-3.7-.53-4.93-.88a3.75,3.75,0,0,1-2.47-1.59,5,5,0,0,1-.71-2.11V520.89c0-3.7,1.06-6.7,3-8.46a10.52,10.52,0,0,1,7.76-2.82h36.65a103.27,103.27,0,0,1,10.58.35c3.35.35,7.4.88,12,1.76a52.72,52.72,0,0,1,14.1,5.11,40.76,40.76,0,0,1,19.92,22.92,52,52,0,0,1,2.64,17.09Zm-33.13,2.29c0-5.46-.88-9.87-2.82-13.57a17.92,17.92,0,0,0-7.05-7.75,21.38,21.38,0,0,0-8.81-3.18,87.26,87.26,0,0,0-9.52-.7H430.9V586.8h14.27a32.84,32.84,0,0,0,12.69-2.11,21.92,21.92,0,0,0,13.22-14.45,36.59,36.59,0,0,0,1.77-11.11Z" transform="translate(-209.18 -56.41)"/><path class="cls-1" d="M616,652.19a31.63,31.63,0,0,1-.36,6.17,19.91,19.91,0,0,1-.88,4,4.6,4.6,0,0,1-1.41,2.29,3.79,3.79,0,0,1-2.11.71H539.82a9.7,9.7,0,0,1-6.7-2.29c-1.76-1.59-2.64-4.06-2.64-7.58V514a4.72,4.72,0,0,1,.7-2.11,4.8,4.8,0,0,1,2.65-1.59,25.62,25.62,0,0,1,4.93-.88c2.12-.18,4.58-.35,7.58-.35a51.17,51.17,0,0,1,7.75.35,23.4,23.4,0,0,1,4.76.88,5.56,5.56,0,0,1,2.65,1.59,3.42,3.42,0,0,1,.7,2.11V639.5h49a4.86,4.86,0,0,1,2.11.7,6.33,6.33,0,0,1,1.41,2.12,17.46,17.46,0,0,1,.88,4,54.56,54.56,0,0,1,.36,6.17Z" transform="translate(-209.18 -56.41)"/><path class="cls-1" d="M762.41,653.6a39.09,39.09,0,0,1,1.77,6.87c.17,1.76,0,3-.88,3.88s-2.47,1.41-4.76,1.59-5.29.35-9.34.35-7.23,0-9.52-.18a29.47,29.47,0,0,1-5.29-.7,3.84,3.84,0,0,1-2.47-1.59,15.72,15.72,0,0,1-1.23-2.47L720.29,630H661.78l-9.87,30.49a10.54,10.54,0,0,1-1.23,2.82,5.2,5.2,0,0,1-2.47,1.76,24.88,24.88,0,0,1-4.94.89c-2.11,0-4.93.17-8.46.17a59,59,0,0,1-8.63-.35,6.85,6.85,0,0,1-4.41-1.76,5.34,5.34,0,0,1-.88-3.88,43,43,0,0,1,1.76-6.7l48.12-138.35a12,12,0,0,1,1.76-3.35,6.4,6.4,0,0,1,3-1.94,34.85,34.85,0,0,1,5.81-.88c2.47,0,5.82-.17,9.87-.17,4.76,0,8.46,0,11.28.17a20.65,20.65,0,0,1,6.52.88,6.73,6.73,0,0,1,3.35,1.94,11.82,11.82,0,0,1,1.76,3.7L762.24,653.6ZM690.86,539.22h0l-22,66.26h44.24l-22-66.26Z" transform="translate(-209.18 -56.41)"/><path class="cls-1" d="M868.69,522.47a30.71,30.71,0,0,1-.35,6,20.61,20.61,0,0,1-.88,4,5.73,5.73,0,0,1-1.41,2.29,2.65,2.65,0,0,1-1.94.7h-39V661.18a3.86,3.86,0,0,1-3.35,3.7,25.62,25.62,0,0,1-4.93.88c-2.12.18-4.59.35-7.58.35a47.73,47.73,0,0,1-7.58-.35c-1.94-.35-3.7-.53-4.94-.88a4.81,4.81,0,0,1-2.64-1.59,3.36,3.36,0,0,1-.7-2.11V535.51h-39a5.51,5.51,0,0,1-2.12-.7,5.62,5.62,0,0,1-1.41-2.29,18,18,0,0,1-.88-4,54.26,54.26,0,0,1-.35-6,33.55,33.55,0,0,1,.35-6.17,18,18,0,0,1,.88-4,4,4,0,0,1,1.41-2.11,3.72,3.72,0,0,1,2.12-.71h109.8a4.24,4.24,0,0,1,1.93.71,6.18,6.18,0,0,1,1.41,2.11,17,17,0,0,1,.88,4,57.56,57.56,0,0,1,.36,6.17Z" transform="translate(-209.18 -56.41)"/><path class="cls-1" d="M974.61,522.47a32.52,32.52,0,0,1-.35,6.17,16.16,16.16,0,0,1-.88,3.88c-.53.88-.88,1.76-1.59,2.11a2.65,2.65,0,0,1-1.94.71H918.92v41.95h47.76a6.4,6.4,0,0,1,1.94.52,5.52,5.52,0,0,1,1.59,2.12,16.16,16.16,0,0,1,.88,3.88,56.45,56.45,0,0,1,.35,6,30.61,30.61,0,0,1-.35,6,20.28,20.28,0,0,1-.88,4.05,5.84,5.84,0,0,1-1.59,2.3,3.7,3.7,0,0,1-1.94.7H918.92v58a3.56,3.56,0,0,1-.71,2.3,4.78,4.78,0,0,1-2.64,1.58,45.11,45.11,0,0,1-4.93,1.06c-1.94.18-4.59.35-7.76.35a46.63,46.63,0,0,1-7.58-.35,25.88,25.88,0,0,1-4.93-1.06,8.81,8.81,0,0,1-2.65-1.58,3.61,3.61,0,0,1-.7-2.3V519.48c0-3.53.88-6.17,2.64-7.58a10.63,10.63,0,0,1,6.7-2.29h73.32a4.25,4.25,0,0,1,1.94.7,7.31,7.31,0,0,1,1.58,2.12,16.85,16.85,0,0,1,.88,4.05,57.23,57.23,0,0,1,.36,6.17Z" transform="translate(-209.18 -56.41)"/><path class="cls-1" d="M1138.87,585.57c0,12.86-1.58,24.5-4.76,34.72a68.47,68.47,0,0,1-14.27,25.91,62.24,62.24,0,0,1-23.62,16.21c-9.34,3.7-20.27,5.64-32.43,5.64s-22.73-1.59-31.72-4.76a54.71,54.71,0,0,1-22.56-14.45c-6-6.52-10.57-14.8-13.57-24.85s-4.58-21.85-4.58-35.6c0-12.69,1.58-24,4.76-34a69.08,69.08,0,0,1,14.27-25.73A62.24,62.24,0,0,1,1034,512.43c9.34-3.7,20.27-5.64,32.6-5.64s22.21,1.58,31.2,4.76A56.45,56.45,0,0,1,1120.54,526c6,6.52,10.58,14.63,13.75,24.67,3,9.87,4.58,21.68,4.58,35.07Zm-33.31,1.76a124,124,0,0,0-1.94-22.38,48.77,48.77,0,0,0-6.52-17.27,32.57,32.57,0,0,0-12.33-11.11c-5.12-2.64-11.64-3.88-19.21-3.88s-14.28,1.41-19.57,4.41a35.67,35.67,0,0,0-12.69,11.81,51.13,51.13,0,0,0-6.87,17.1,98,98,0,0,0-1.94,20.79,128,128,0,0,0,1.94,22.91,49.74,49.74,0,0,0,6.52,17.45,31.4,31.4,0,0,0,12.34,11.11c5.11,2.46,11.63,3.87,19.38,3.87s14.28-1.41,19.57-4.4a34.23,34.23,0,0,0,12.69-11.81,51.71,51.71,0,0,0,6.87-17.45,102.66,102.66,0,0,0,1.94-21.15Z" transform="translate(-209.18 -56.41)"/><path class="cls-1" d="M1281.1,661.35a3.41,3.41,0,0,1-.53,2.29,5,5,0,0,1-2.29,1.59,17.8,17.8,0,0,1-5.28.88c-2.3,0-5.47.18-9.52.18-3.35,0-6,0-8.11-.18a16.5,16.5,0,0,1-4.76-.88,4.53,4.53,0,0,1-2.47-1.76,11.17,11.17,0,0,1-1.23-2.47L1233,626.1c-1.77-3.87-3.35-7.4-4.94-10.39a31.93,31.93,0,0,0-5.28-7.58,18,18,0,0,0-6.88-4.58,23.33,23.33,0,0,0-9-1.59H1197v59.39a4.75,4.75,0,0,1-.7,2.12,4.85,4.85,0,0,1-2.65,1.58,25.25,25.25,0,0,1-4.75.89c-1.94.17-4.59.35-7.76.35a46.63,46.63,0,0,1-7.58-.35c-1.94-.36-3.7-.53-4.93-.89a3.78,3.78,0,0,1-2.47-1.58,5.05,5.05,0,0,1-.7-2.12V519.83c0-3.53.88-6.17,2.64-7.58a10.59,10.59,0,0,1,6.7-2.29h40.36c4,0,7.4,0,10,.18s5.11.35,7.23.52a66.11,66.11,0,0,1,16.92,4.59,38,38,0,0,1,12.69,8.46A36,36,0,0,1,1270,536a43.2,43.2,0,0,1,2.82,16.39,51,51,0,0,1-1.94,14.28,36.89,36.89,0,0,1-5.82,11.46,41.48,41.48,0,0,1-9.51,8.81,47.93,47.93,0,0,1-12.87,6,31.47,31.47,0,0,1,6.52,4,36.37,36.37,0,0,1,5.82,5.82,66.27,66.27,0,0,1,5.11,7.75c1.59,3,3.17,6.17,4.76,9.87l13.22,30.67c1.23,3,1.93,5.29,2.46,6.7a13.88,13.88,0,0,1,.53,3.35Zm-40.89-105.92a23.6,23.6,0,0,0-3.52-13c-2.29-3.53-6.17-6-11.46-7.4a38.68,38.68,0,0,0-5.46-.89c-2.12-.17-4.94-.35-8.46-.35H1197V578h16.22a39,39,0,0,0,11.81-1.59,24.17,24.17,0,0,0,8.46-4.58,20.19,20.19,0,0,0,5.11-7.05,24.86,24.86,0,0,0,1.76-9.16Z" transform="translate(-209.18 -56.41)"/><path class="cls-1" d="M1486.07,661a4.75,4.75,0,0,1-.7,2.12,4.31,4.31,0,0,1-2.47,1.58,23.13,23.13,0,0,1-4.58.88c-1.94.18-4.41.36-7.4.36a42,42,0,0,1-7.23-.36,42.85,42.85,0,0,1-4.58-.88,5,5,0,0,1-2.47-1.58,3.39,3.39,0,0,1-.7-2.12V534.11h-.18l-45.12,126.72a6.63,6.63,0,0,1-1.59,2.64,6.92,6.92,0,0,1-3,1.58,16.73,16.73,0,0,1-4.76.71c-1.94,0-4.23.18-7,.18a40.81,40.81,0,0,1-7-.36c-1.94-.35-3.52-.53-4.76-.88a9.58,9.58,0,0,1-3-1.58,3.86,3.86,0,0,1-1.41-2.3L1334.5,534.1h-.17V661a4.8,4.8,0,0,1-.71,2.12,4.31,4.31,0,0,1-2.47,1.58,26.09,26.09,0,0,1-4.58.88c-1.94.18-4.4.36-7.22.36a43,43,0,0,1-7.23-.36,42.35,42.35,0,0,1-4.58-.88,4.31,4.31,0,0,1-2.47-1.58,3.4,3.4,0,0,1-.71-2.12V522.12c0-4,1.06-7.23,3.18-9.34a11.82,11.82,0,0,1,8.63-3.17H1337a48.62,48.62,0,0,1,9.52.88,17.42,17.42,0,0,1,6.87,3,16.05,16.05,0,0,1,4.76,5.47,38.51,38.51,0,0,1,3.35,8.46l33.66,92.88h.53l34.9-92.71a43.74,43.74,0,0,1,3.52-8.63,17.82,17.82,0,0,1,4.41-5.64,13.07,13.07,0,0,1,5.81-3,34.71,34.71,0,0,1,7.76-.88h21.32a18,18,0,0,1,5.64.88,9.77,9.77,0,0,1,3.88,2.47,10.18,10.18,0,0,1,2.29,4.05,16.69,16.69,0,0,1,.71,5.29V661Z" transform="translate(-209.18 -56.41)"/><path class="cls-1" d="M1564.68,649.55a37.08,37.08,0,0,1-.71,8.28,10.74,10.74,0,0,1-2.82,5.46,12,12,0,0,1-5.28,3,28,28,0,0,1-8.11.88,37.19,37.19,0,0,1-8.28-.88,10.49,10.49,0,0,1-5.29-3,12.14,12.14,0,0,1-2.64-5.46,37.08,37.08,0,0,1-.71-8.28,38.76,38.76,0,0,1,.71-8.46,12.13,12.13,0,0,1,2.64-5.47,9.7,9.7,0,0,1,5.29-3,34.79,34.79,0,0,1,8.28-.89,33.31,33.31,0,0,1,8.11.89,11.17,11.17,0,0,1,5.28,3,10.73,10.73,0,0,1,2.82,5.47A38.76,38.76,0,0,1,1564.68,649.55ZM1561,614.3a9.22,9.22,0,0,1-.71,2.11,3.39,3.39,0,0,1-2.11,1.59,32.51,32.51,0,0,1-4.06,1,60.74,60.74,0,0,1-6.34.36,32.53,32.53,0,0,1-6.34-.36,19,19,0,0,1-4.06-1,4.17,4.17,0,0,1-2.11-1.59,4.9,4.9,0,0,1-.71-2.11l-3.17-109.45a4.54,4.54,0,0,1,3.35-4.76,17.21,17.21,0,0,1,5.11-1.06c2.11-.17,4.76-.35,7.93-.35a52.54,52.54,0,0,1,7.93.35,22,22,0,0,1,4.94,1.24,6.42,6.42,0,0,1,2.64,1.93,4.27,4.27,0,0,1,.71,2.65L1560.8,614.3Z" transform="translate(-209.18 -56.41)"/></svg>