<svg id="Layer_1" data-name="Layer 1" xmlns="http://www.w3.org/2000/svg" viewBox="0 0 1229.35 694.51"><defs><style>.cls-1{fill:#f46060;}.cls-2{fill:#fff;stroke:#f46060;stroke-miterlimit:10;stroke-width:0.5px;}</style></defs><rect class="cls-1" y="0.25" width="1135.13" height="694.01" rx="123.29"/><rect class="cls-2" x="93.97" y="0.25" width="1135.13" height="694.01" rx="123.29"/><path class="cls-1" d="M1034.5,409.62a12,12,0,0,1-.74,4.1,11.49,11.49,0,0,1-2.2,3.08,7.62,7.62,0,0,1-3.22,1.76,16.06,16.06,0,0,1-3.81.59h-11.29a23.12,23.12,0,0,1-6-.74,13.18,13.18,0,0,1-4.69-2.49,20.6,20.6,0,0,1-4.11-5c-1.32-2.06-2.78-4.84-4.54-8.21L961.63,342c-1.9-3.66-3.81-7.47-5.71-11.72s-3.67-8.21-5.28-12.17h-.15c.3,4.84.44,9.67.59,14.37,0,4.83.15,9.67.15,14.8v67.88a4,4,0,0,1-.59,1.76,3.25,3.25,0,0,1-1.91,1.32,28.79,28.79,0,0,1-3.66.88c-1.61.14-3.52.29-5.87.29a35,35,0,0,1-5.86-.29,10.3,10.3,0,0,1-3.66-.88,3.49,3.49,0,0,1-1.76-1.32,3.85,3.85,0,0,1-.44-1.76V298.64c0-3.08.88-5.57,2.78-7a10,10,0,0,1,6.75-2.34h14.07a27.68,27.68,0,0,1,6.45.58,13.83,13.83,0,0,1,4.69,2.2,17.32,17.32,0,0,1,3.81,4.11,43.39,43.39,0,0,1,3.67,6.6l25.21,47.35c1.47,2.93,2.94,5.71,4.4,8.5s2.79,5.57,4.11,8.36,2.63,5.57,4,8.21,2.5,5.27,3.67,8.06h0c-.15-4.69-.29-9.53-.44-14.66s0-10,0-14.51V293.22a4,4,0,0,1,.59-1.76,6.11,6.11,0,0,1,2-1.47,11.28,11.28,0,0,1,3.66-.88c1.47-.15,3.52-.29,5.87-.29a34.15,34.15,0,0,1,5.72.29,9.44,9.44,0,0,1,3.51.88,3.6,3.6,0,0,1,1.76,1.47,3.79,3.79,0,0,1,.44,1.76V409.76Z" transform="translate(-406.9 -146.8)"/><path class="cls-1" d="M1179.34,352.44a97.52,97.52,0,0,1-4,28.88,56.82,56.82,0,0,1-11.88,21.55,51.62,51.62,0,0,1-19.64,13.49,72.62,72.62,0,0,1-27,4.69c-10.27,0-18.92-1.32-26.39-4a45.42,45.42,0,0,1-18.77-12,52.14,52.14,0,0,1-11.29-20.67c-2.49-8.35-3.81-18.18-3.81-29.61a93.57,93.57,0,0,1,4-28.3,57.4,57.4,0,0,1,11.88-21.4,51.73,51.73,0,0,1,19.64-13.49,73.44,73.44,0,0,1,27.12-4.69c10.26,0,18.47,1.32,26,4a47.06,47.06,0,0,1,18.91,12,53.47,53.47,0,0,1,11.44,20.53c2.63,8.21,3.81,18,3.81,29.17Zm-27.71,1.47a104.25,104.25,0,0,0-1.61-18.62,40.92,40.92,0,0,0-5.43-14.37,26.08,26.08,0,0,0-10.26-9.23c-4.25-2.2-9.68-3.23-16-3.23s-11.87,1.18-16.27,3.67a29.6,29.6,0,0,0-10.56,9.82,42.47,42.47,0,0,0-5.71,14.22,81.08,81.08,0,0,0-1.62,17.3,105.9,105.9,0,0,0,1.62,19.06,41.48,41.48,0,0,0,5.42,14.51,26,26,0,0,0,10.26,9.24,37.17,37.17,0,0,0,16.13,3.22c6.45,0,11.87-1.17,16.27-3.66a28.36,28.36,0,0,0,10.56-9.83,43,43,0,0,0,5.71-14.51,84.82,84.82,0,0,0,1.62-17.59Z" transform="translate(-406.9 -146.8)"/><path class="cls-1" d="M703.91,563.11a52.4,52.4,0,0,1-3.37,19.35,36.28,36.28,0,0,1-10,14.22,45.7,45.7,0,0,1-16,8.8,72.46,72.46,0,0,1-22.28,3.08H641.46V649.9a4,4,0,0,1-.59,1.76,5.18,5.18,0,0,1-2.2,1.32,21.74,21.74,0,0,1-4,.73c-1.61.15-3.81.29-6.45.29a38.83,38.83,0,0,1-6.3-.29c-1.61-.29-3.08-.44-4.11-.73a3.23,3.23,0,0,1-2.05-1.32,4.25,4.25,0,0,1-.58-1.76V533.2c0-3.08.88-5.57,2.49-7a9.36,9.36,0,0,1,6.45-2.35h30.49a86.32,86.32,0,0,1,8.8.29c2.78.3,6.15.74,10,1.47a43.59,43.59,0,0,1,11.72,4.25,33.88,33.88,0,0,1,16.57,19.06,43.09,43.09,0,0,1,2.2,14.22ZM676.35,565A23.73,23.73,0,0,0,674,553.73a14.94,14.94,0,0,0-5.86-6.45,20.09,20.09,0,0,0-7.33-2.64,67.8,67.8,0,0,0-7.92-.59H641.6v44h11.88A27.18,27.18,0,0,0,664,586.27a21.8,21.8,0,0,0,7-4.69,17.89,17.89,0,0,0,4.11-7.33,30.75,30.75,0,0,0,1.46-9.24Z" transform="translate(-406.9 -146.8)"/><path class="cls-1" d="M820.6,649.9a2.83,2.83,0,0,1-.44,1.9,4,4,0,0,1-1.9,1.32,15.16,15.16,0,0,1-4.4.74c-1.91.14-4.54.14-7.92.14-2.78,0-5,0-6.74-.14a19,19,0,0,1-4-.74,3.77,3.77,0,0,1-2-1.46,9.23,9.23,0,0,1-1-2.06l-11.58-29c-1.46-3.23-2.78-6.16-4.1-8.65a26.88,26.88,0,0,0-4.4-6.31,17,17,0,0,0-5.72-3.81,19.45,19.45,0,0,0-7.48-1.32h-8.21V649.9a3.94,3.94,0,0,1-.58,1.76,5.18,5.18,0,0,1-2.2,1.32,22.08,22.08,0,0,1-4,.73c-1.61.15-3.81.29-6.45.29a38.83,38.83,0,0,1-6.3-.29c-1.62-.29-3.08-.44-4.11-.73a3.2,3.2,0,0,1-2.05-1.32,4.27,4.27,0,0,1-.59-1.76V532.18c0-2.94.74-5.13,2.2-6.31a8.84,8.84,0,0,1,5.57-1.9h33.58c3.37,0,6.15,0,8.35.14s4.25.3,6,.44a55.51,55.51,0,0,1,14.08,3.81,31.73,31.73,0,0,1,10.55,7,30.16,30.16,0,0,1,6.6,10.26,39.22,39.22,0,0,1,2.34,13.64,42.12,42.12,0,0,1-1.61,11.87,30.4,30.4,0,0,1-4.84,9.53,31.41,31.41,0,0,1-7.91,7.33,40.38,40.38,0,0,1-10.7,5,25.87,25.87,0,0,1,5.42,3.37,30.31,30.31,0,0,1,4.84,4.84,54.59,54.59,0,0,1,4.25,6.45,86,86,0,0,1,4,8.21l11,25.5c1,2.5,1.61,4.4,2,5.57a7.23,7.23,0,0,1,.44,2.79Zm-34-88a19.58,19.58,0,0,0-2.93-10.85c-1.91-2.93-5.13-5-9.53-6.16a32.23,32.23,0,0,0-4.54-.73c-1.76-.15-4.11-.3-7-.3H750.68v36.8h13.48a32.46,32.46,0,0,0,9.82-1.32,20.21,20.21,0,0,0,7-3.81,16.66,16.66,0,0,0,4.25-5.86,18.11,18.11,0,0,0,1.47-7.63Z" transform="translate(-406.9 -146.8)"/><path class="cls-1" d="M954.6,587a97.57,97.57,0,0,1-4,28.88,57,57,0,0,1-11.88,21.55,51.71,51.71,0,0,1-19.64,13.48,73.19,73.19,0,0,1-27,4.69q-15.18,0-26.39-4a45.54,45.54,0,0,1-18.77-12A52.14,52.14,0,0,1,835.7,619c-2.49-8.35-3.81-18.17-3.81-29.61a93.51,93.51,0,0,1,4-28.29,57.45,57.45,0,0,1,11.88-21.41,51.6,51.6,0,0,1,19.64-13.48,73.44,73.44,0,0,1,27.12-4.7c10.26,0,18.47,1.32,26,4a45.52,45.52,0,0,1,18.76,12A53.47,53.47,0,0,1,950.64,558c2.64,8.21,3.81,18,3.81,29.17Zm-27.71,1.46a104.25,104.25,0,0,0-1.61-18.62,40.6,40.6,0,0,0-5.43-14.36,26,26,0,0,0-10.26-9.24c-4.25-2.2-9.67-3.23-16-3.23s-11.87,1.18-16.27,3.67a29.6,29.6,0,0,0-10.56,9.82,42.56,42.56,0,0,0-5.71,14.22,81.15,81.15,0,0,0-1.62,17.3,105.9,105.9,0,0,0,1.62,19.06,42.56,42.56,0,0,0,5.42,14.51,25,25,0,0,0,10.26,9.24c4.25,2.2,9.68,3.22,16.13,3.22s11.87-1.17,16.27-3.66a29.6,29.6,0,0,0,10.56-9.82,43,43,0,0,0,5.71-14.52A84.82,84.82,0,0,0,927,588.47Z" transform="translate(-406.9 -146.8)"/><path class="cls-1" d="M1014.56,617.35a74.43,74.43,0,0,1-1.61,15.83,29.43,29.43,0,0,1-5.58,12,25,25,0,0,1-10.4,7.62q-6.39,2.64-15.84,2.64a41.91,41.91,0,0,1-6-.44,54.41,54.41,0,0,1-5.42-1.17c-1.61-.44-3.08-1-4.25-1.47a5.3,5.3,0,0,1-2.35-1.47c-.29-.44-.73-.88-1-1.32a8.58,8.58,0,0,1-.73-1.9,16.46,16.46,0,0,1-.44-2.79v-10a20.54,20.54,0,0,1,.44-3.66,4.62,4.62,0,0,1,1-1.91,3.08,3.08,0,0,1,1.61-.58,4,4,0,0,1,2,.58c.74.44,1.76.88,2.64,1.32a30.32,30.32,0,0,0,3.52,1.32,15.19,15.19,0,0,0,4.69.59,15,15,0,0,0,4.69-.74,6.49,6.49,0,0,0,3.37-2.63,14.24,14.24,0,0,0,2.06-5,38.74,38.74,0,0,0,.73-8.06V527a4,4,0,0,1,.59-1.75,8.26,8.26,0,0,1,2-1.32,20.6,20.6,0,0,1,4.1-.74c1.76-.14,3.82-.29,6.45-.29a39,39,0,0,1,6.31.29,22.74,22.74,0,0,1,4.1.74,4,4,0,0,1,2.2,1.32,2.32,2.32,0,0,1,.59,1.75V617.2Z" transform="translate(-406.9 -146.8)"/><path class="cls-1" d="M1119.52,643a23.9,23.9,0,0,1-.29,4.83,15.57,15.57,0,0,1-.73,3.23,4,4,0,0,1-1.32,1.76,2.46,2.46,0,0,1-1.61.59h-65.09a8.08,8.08,0,0,1-5.58-1.91c-1.46-1.32-2.19-3.37-2.19-6.3v-113c0-2.94.73-5.14,2.19-6.31a8.86,8.86,0,0,1,5.58-1.9h64.79a5.16,5.16,0,0,1,1.62.44,3.32,3.32,0,0,1,1.17,1.76,15.31,15.31,0,0,1,.73,3.22,42.74,42.74,0,0,1,.29,5,21.83,21.83,0,0,1-.29,4.69,15.46,15.46,0,0,1-.73,3.22,5.25,5.25,0,0,1-1.17,1.76,3.12,3.12,0,0,1-1.62.59H1069V576.3h39.14a3.57,3.57,0,0,1,1.61.59,6.07,6.07,0,0,1,1.32,1.76,11.7,11.7,0,0,1,.73,3.08,41.25,41.25,0,0,1,.3,4.69,24,24,0,0,1-.3,4.84,11.81,11.81,0,0,1-.73,3.08,3,3,0,0,1-1.32,1.61,3.34,3.34,0,0,1-1.61.44H1069V633h46.76a3.54,3.54,0,0,1,1.62.58,5.9,5.9,0,0,1,1.31,1.76,13.14,13.14,0,0,1,.74,3.23,44.44,44.44,0,0,1,.29,4.84Z" transform="translate(-406.9 -146.8)"/><path class="cls-1" d="M1229.47,633.77a38.83,38.83,0,0,1-.14,4.25c-.15,1.17-.29,2.2-.44,3.08a8,8,0,0,1-.73,2.2,8.75,8.75,0,0,1-1.62,2.05,21.72,21.72,0,0,1-4.25,2.93,55.57,55.57,0,0,1-7.77,3.52,58.42,58.42,0,0,1-10.41,2.79,68.39,68.39,0,0,1-12.6,1.17,65.82,65.82,0,0,1-24-4.1,47.72,47.72,0,0,1-18.18-12.32A56.31,56.31,0,0,1,1137.7,619c-2.64-8.21-4-17.59-4-28.44a90.75,90.75,0,0,1,4.4-29.32,62,62,0,0,1,12.32-21.55,50.14,50.14,0,0,1,18.91-13.19,62.77,62.77,0,0,1,24.48-4.55,60.41,60.41,0,0,1,10.41.88,53.25,53.25,0,0,1,9.24,2.35,46.33,46.33,0,0,1,7.62,3.37,27.19,27.19,0,0,1,4.69,3.23,19.59,19.59,0,0,1,1.91,2.2,7.43,7.43,0,0,1,.73,2.34c.15,1,.29,2.05.44,3.37a43.23,43.23,0,0,1,.15,4.69c0,2.06,0,3.67-.15,5.14a9.72,9.72,0,0,1-.73,3.37,4.77,4.77,0,0,1-1.18,1.9,2.2,2.2,0,0,1-1.61.59,6.69,6.69,0,0,1-3.81-1.76c-1.61-1.17-3.52-2.49-6-4a48.56,48.56,0,0,0-8.65-4,36.54,36.54,0,0,0-12-1.76,28.52,28.52,0,0,0-13.78,3.23,27.63,27.63,0,0,0-10.27,9.09,44,44,0,0,0-6.45,14.22,73.54,73.54,0,0,0-2.19,18.76,72,72,0,0,0,2.34,19.8,39.08,39.08,0,0,0,6.74,13.78,27,27,0,0,0,10.56,8.06,35.2,35.2,0,0,0,13.93,2.64,43.18,43.18,0,0,0,12.17-1.61,45.71,45.71,0,0,0,8.79-3.67,49.75,49.75,0,0,0,6-3.66c1.61-1,2.79-1.62,3.67-1.62a2.1,2.1,0,0,1,1.61.44,3.51,3.51,0,0,1,1,1.61,14.17,14.17,0,0,1,.58,3.38c0,1.46.15,3.37.15,5.71Z" transform="translate(-406.9 -146.8)"/><path class="cls-1" d="M1335.76,534.52a25.6,25.6,0,0,1-.29,5,17.15,17.15,0,0,1-.73,3.37,3.78,3.78,0,0,1-1.32,1.9,2.46,2.46,0,0,1-1.62.59h-32.4V649.9a3.94,3.94,0,0,1-.58,1.76,4.09,4.09,0,0,1-2.2,1.32,21.59,21.59,0,0,1-4.11.73c-1.75.15-3.81.29-6.3.29a39.79,39.79,0,0,1-6.3-.29c-1.62-.29-3.08-.44-4.11-.73a4.13,4.13,0,0,1-2.2-1.32,2.83,2.83,0,0,1-.58-1.76V545.37h-32.4a3,3,0,0,1-2.93-2.49,14.5,14.5,0,0,1-.74-3.37,47.53,47.53,0,0,1-.29-5,28,28,0,0,1,.29-5.13,14.38,14.38,0,0,1,.74-3.37,3.32,3.32,0,0,1,1.17-1.76,3.15,3.15,0,0,1,1.76-.59H1332a3.57,3.57,0,0,1,1.61.59,9.25,9.25,0,0,1,1.32,1.76,14.38,14.38,0,0,1,.74,3.37,50.69,50.69,0,0,1,.29,5.13Z" transform="translate(-406.9 -146.8)"/><path class="cls-1" d="M1427,614.42a40.51,40.51,0,0,1-3.82,17.88,38.44,38.44,0,0,1-10.26,12.91,46.87,46.87,0,0,1-15.24,7.77,64.61,64.61,0,0,1-18.62,2.63,55.32,55.32,0,0,1-12.46-1.17,70.68,70.68,0,0,1-10.12-2.64,38.86,38.86,0,0,1-7.33-3.22,24.94,24.94,0,0,1-4.25-3.08,7.75,7.75,0,0,1-1.91-3.81,39.82,39.82,0,0,1-.58-7c0-2,0-3.81.14-5.28a10.06,10.06,0,0,1,.59-3.37,4.59,4.59,0,0,1,1.17-1.9,2.34,2.34,0,0,1,1.76-.59,9.62,9.62,0,0,1,4,1.61c1.76,1,4,2.35,6.6,3.67a68,68,0,0,0,9.53,3.66,43.19,43.19,0,0,0,12.9,1.61,31.8,31.8,0,0,0,8.65-1.17,20.41,20.41,0,0,0,6.45-3.22,14.62,14.62,0,0,0,4.1-5.28,17.54,17.54,0,0,0,1.47-6.89,12.38,12.38,0,0,0-2.35-7.63,21.43,21.43,0,0,0-6.3-5.57,54.77,54.77,0,0,0-8.8-4.54c-3.22-1.47-6.59-2.93-10.11-4.55a83.81,83.81,0,0,1-10.12-5.42,46.33,46.33,0,0,1-8.79-7.33,34.59,34.59,0,0,1-6.31-10.12,41.22,41.22,0,0,1,1.17-30.34,33.67,33.67,0,0,1,9.39-11.73,42.32,42.32,0,0,1,13.78-7,57.93,57.93,0,0,1,16.86-2.34,65.35,65.35,0,0,1,9.23.73,67.46,67.46,0,0,1,8.65,1.91,65.85,65.85,0,0,1,7.18,2.64,22.94,22.94,0,0,1,4.11,2.49c.59.73,1.17,1.17,1.32,1.76a4.94,4.94,0,0,1,.59,1.9,15.76,15.76,0,0,1,.29,2.93v4.4a46.12,46.12,0,0,1-.15,4.84c-.14,1.32-.29,2.49-.44,3.37a4.61,4.61,0,0,1-1,1.91,2.34,2.34,0,0,1-1.76.58,7.64,7.64,0,0,1-3.52-1.46,66.22,66.22,0,0,0-5.87-3.08,62.72,62.72,0,0,0-8.06-3.08,36.7,36.7,0,0,0-10.11-1.32,22.53,22.53,0,0,0-7.48,1,14.66,14.66,0,0,0-5.42,2.93,11.75,11.75,0,0,0-3.23,4.4,13.53,13.53,0,0,0-1,5.57,11.73,11.73,0,0,0,2.35,7.48,23.61,23.61,0,0,0,6.3,5.57,56.6,56.6,0,0,0,9,4.54c3.37,1.47,6.74,2.93,10.26,4.55a97.84,97.84,0,0,1,10.26,5.42,43.23,43.23,0,0,1,8.94,7.33,33.22,33.22,0,0,1,6.31,10,35,35,0,0,1,2.34,13.63Z" transform="translate(-406.9 -146.8)"/><path class="cls-1" d="M1484.27,640.22a30.83,30.83,0,0,1-.59,6.89,9,9,0,0,1-2.34,4.55,10.05,10.05,0,0,1-4.4,2.49,23.45,23.45,0,0,1-6.75.73,31.1,31.1,0,0,1-6.89-.73,9.34,9.34,0,0,1-4.39-2.49,10.15,10.15,0,0,1-2.2-4.55,30.83,30.83,0,0,1-.59-6.89,32.39,32.39,0,0,1,.59-7,10.11,10.11,0,0,1,2.2-4.54,8.11,8.11,0,0,1,4.39-2.49,30,30,0,0,1,6.89-.74,27.75,27.75,0,0,1,6.75.74,9.42,9.42,0,0,1,4.4,2.49,9,9,0,0,1,2.34,4.54A32.39,32.39,0,0,1,1484.27,640.22ZM1481,610.9a8,8,0,0,1-.58,1.76,2.83,2.83,0,0,1-1.76,1.32,27,27,0,0,1-3.38.88,50.65,50.65,0,0,1-5.27.29,28.05,28.05,0,0,1-5.28-.29,15.72,15.72,0,0,1-3.37-.88,3.44,3.44,0,0,1-1.76-1.32,4.22,4.22,0,0,1-.59-1.76l-2.64-91a3.81,3.81,0,0,1,2.79-4,14.43,14.43,0,0,1,4.25-.88c1.76-.14,4-.29,6.74-.29a42.92,42.92,0,0,1,6.6.29,18.89,18.89,0,0,1,4.11,1,5.35,5.35,0,0,1,2.19,1.61,3.54,3.54,0,0,1,.59,2.2l-2.64,91Z" transform="translate(-406.9 -146.8)"/></svg>