<svg id="Layer_1" data-name="Layer 1" xmlns="http://www.w3.org/2000/svg" xmlns:xlink="http://www.w3.org/1999/xlink" viewBox="0 0 821.75 743.27"><defs><style>.cls-1{fill:#d69532;}.cls-2{fill:#faae3a;}.cls-3{fill:#bd642c;}.cls-4{fill:#a15525;}.cls-5{fill:#706593;}.cls-6{fill:#827d93;}.cls-7{fill:#578e9b;}.cls-8{fill:#375a64;}.cls-9{fill:#ffbf9d;}.cls-10{fill:#ff4f5b;}.cls-11{fill:#c6c3e2;}.cls-12{fill:#ffceb8;}.cls-13{fill:#002833;}.cls-14{fill:#cfcfff;}.cls-15{fill:#002c44;}.cls-16{fill:#1a2e35;}.cls-17,.cls-27{fill:#fff;}.cls-18{fill:#032f4f;}.cls-19{fill:#ff6473;}.cls-20{fill:#ffa37b;}.cls-21{fill:#f56;}.cls-22{fill:#cac7e2;}.cls-23{fill:#ffc3a9;}.cls-24{fill:#ff8f8f;}.cls-25{fill:#f66;}.cls-26{fill:#9fb3e9;opacity:0.77;}.cls-26,.cls-27,.cls-29{isolation:isolate;}.cls-27{opacity:0.22;}.cls-28{fill:#1e2d72;}.cls-29{opacity:0.61;fill:url(#linear-gradient);}.cls-30{fill:#636363;}.cls-31{fill:#777;}.cls-32{fill:#5e9aa8;}.cls-33{fill:#6fd888;}.cls-34{fill:#44b767;}.cls-35{fill:#273350;}.cls-36{fill:#4a5c85;}.cls-37{fill:#fcbebe;}.cls-38{fill:#e6e7f7;}.cls-39{fill:#bf654e;}</style><linearGradient id="linear-gradient" x1="756.75" y1="418.65" x2="805.42" y2="418.65" gradientTransform="matrix(1, 0, 0, -1, 0, 1082)" gradientUnits="userSpaceOnUse"><stop offset="0" stop-color="#e50028"/><stop offset="0.87" stop-color="#375a64" stop-opacity="0"/></linearGradient></defs><path class="cls-1" d="M1236.35,773.7h141.94v304.64a1.94,1.94,0,0,1-1.94,1.94H1238.29a1.93,1.93,0,0,1-1.94-1.94V773.7Z" transform="translate(-572.45 -337.6)"/><rect class="cls-2" x="676.62" y="446.82" width="116.49" height="64.15"/><rect class="cls-3" x="711.06" y="456.87" width="54.3" height="6.86"/><rect class="cls-2" x="676.62" y="525.25" width="116.49" height="64.15"/><rect class="cls-3" x="711.06" y="535.32" width="54.3" height="6.86"/><rect class="cls-2" x="676.62" y="603.68" width="116.49" height="64.15"/><rect class="cls-3" x="711.06" y="613.75" width="54.3" height="6.86"/><path class="cls-3" d="M1234.41,1080.28h-150a1.94,1.94,0,0,1-1.94-1.94V773.7h153.91v304.64a1.94,1.94,0,0,1-1.94,1.94Z" transform="translate(-572.45 -337.6)"/><polygon class="cls-4" points="509.99 436.1 509.99 601.13 512.26 603.32 663.9 442.91 663.41 436.1 509.99 436.1"/><path class="cls-5" d="M881.48,908.3h-99.9a9.63,9.63,0,0,0,9.64,9.64h67.1V1021h23.19V917.94h95.57a9.63,9.63,0,0,0,9.64-9.64H881.48Z" transform="translate(-572.45 -337.6)"/><rect class="cls-6" x="274.8" y="632.86" width="45.3" height="59.94"/><path class="cls-6" d="M977.87,1061.18H965V1049a18.21,18.21,0,0,0-18.19-18.19H799.76A18.21,18.21,0,0,0,781.58,1049v12.19H768.75V1049a31.07,31.07,0,0,1,31-31H946.88a31.08,31.08,0,0,1,31,31v12.19Z" transform="translate(-572.45 -337.6)"/><path d="M791.29,1060.21a18,18,0,1,1-17.95-18A18,18,0,0,1,791.29,1060.21Z" transform="translate(-572.45 -337.6)"/><path d="M990.83,1060.21a18,18,0,1,1-18-18A18,18,0,0,1,990.83,1060.21Z" transform="translate(-572.45 -337.6)"/><path class="cls-7" d="M727.55,606.51h167.2a32,32,0,0,1,31.39,25.79l54.87,276H768.62a22.36,22.36,0,0,1-22.14-19.18l-37.72-260.9a19,19,0,0,1,18.79-21.7Z" transform="translate(-572.45 -337.6)"/><path class="cls-8" d="M832.41,858.71h204.48A27.28,27.28,0,0,1,1064.16,886V908.3H832.41V858.71Z" transform="translate(-572.45 -337.6)"/><path class="cls-8" d="M708.76,628.22l37.72,260.9a22.36,22.36,0,0,0,22.14,19.18H896.48V894.14A35.45,35.45,0,0,0,861,858.69H783.31l-37-236.16a19,19,0,0,0-18.75-16h0a19,19,0,0,0-18.79,21.7Z" transform="translate(-572.45 -337.6)"/><path class="cls-9" d="M1021.64,657.78c17.24,24.46,25.76,45.3,34.46,63,9.08,18.41-8.06,27.7-31.27,27.7-11.15,0-15.61-4.95-26.89-22.09l-52.67-83.61c-5.43-8.62-13-24.49-11.17-34.18,3.93-20.91,17-29.13,17-29.13,11.81,5.9,48.15,46.73,70.47,78.38Z" transform="translate(-572.45 -337.6)"/><path class="cls-10" d="M1014.39,647.86c-22.24-29.69-52.61-63.16-63.22-68.46,0,0-13.12,8.21-17,29.13-1.84,9.69,5.74,25.55,11.17,34.17l21.07,33.42a171.14,171.14,0,0,1,48.08-28.29Z" transform="translate(-572.45 -337.6)"/><path class="cls-11" d="M1015.21,642.12a3.39,3.39,0,0,0-3.21-1.28c-31.53,5.1-47.39,22.29-54.79,34.28l.69,1.07,5.15,8.19a3.33,3.33,0,0,0,5.69-.08c9-15,30.76-24.33,50-30a3.32,3.32,0,0,0,1.73-5.17c-1.7-2.3-3.46-4.62-5.25-7Z" transform="translate(-572.45 -337.6)"/><path class="cls-9" d="M1007.53,740.75c-6.45-14.67,1.79-36.65,30.46-49.89,30.35-14,78.78-16.53,78.78-16.53l8.45,17.14s-7.09,13.7-42.78,36.32c-37.31,23.65-69.65,25.51-74.91,13Z" transform="translate(-572.45 -337.6)"/><path class="cls-12" d="M1072,697.82s-5.94,8.93-20.66,5.1,25-22.16,25-22.16Z" transform="translate(-572.45 -337.6)"/><path class="cls-12" d="M1136.39,686.57c-4.62-7.88-15.53-13.08-26.5-13l-17.17.12v0c-8.16.39-15.4,3-19.64,9.31-10.81,19.87-1.58,40.51,3.57,41.4,7.55,1.33,10.84-26,12.88-31.53-1.63,5.51-.25,27.27,7.58,30.13,8.06,2.73,7.5-17.4,8.49-25.25.31,6.42,5.64,24.74,13.37,26.19,7,1.12,4.87-26,5.15-25.86-.28-.1,5,18.62,13.21,21.07,7.73,2.21,4.54-12.71,4.42-16.61a39.16,39.16,0,0,0-5.39-16Z" transform="translate(-572.45 -337.6)"/><path class="cls-13" d="M1082.72,802.78c-20.58-21.76-206.06-25.89-206.06-25.89s-10.58,41.4-2.47,62.11c7.17,18.26,115.92,18.26,155.94,19-2.09,2.85-17.09,25-10.41,60.45L1053,1058.76l25.76-1,18.47-214.48c1.45-11.07-.23-25.53-14.47-40.56Z" transform="translate(-572.45 -337.6)"/><polygon class="cls-14" points="480.53 721.18 480.53 721.18 506.3 720.22 510.94 666.12 469.67 675.32 480.53 721.18"/><path class="cls-15" d="M1042.86,1033.4c-.23-1.48,2.09-2.27,3.21-1.09,1.89,2,4,3.8,7.25,4.36,10.25,1.78,14.76-10.51,23.36-14.67s17.62,12.27,17.62,12.27c.77,0,1.56-.1,2.38-.18v.18c15.68-3.57,40.17-5.92,55.62,10.23,5.64,5.89,8.47,19.41,6.92,30.38,0,0-68.74,16.27-110.06-4.93-2.76-1.42-4.69-3.67-5.08-6.3l-1.17-30.22Z" transform="translate(-572.45 -337.6)"/><path class="cls-16" d="M1028.24,811.65C1009,788.67,824.15,771,824.15,771s-23.85,48.26-4.44,76.9c13.82,20.41,84.12,24.31,142,23.62v.08s-16.09,28-13.65,54.12l12.71,141.53h25.76l49-210c2.22-13.31,5.81-29.81-7.37-45.58Z" transform="translate(-572.45 -337.6)"/><polygon class="cls-17" points="384.27 683.82 388.41 729.65 414.17 729.65 426.64 676.22 384.27 683.82"/><path class="cls-18" d="M956.67,1033.4c-.23-1.48,2.1-2.27,3.22-1.09,1.89,2,4,3.8,7.24,4.36,10.26,1.78,14.77-10.51,23.37-14.67s17.62,12.27,17.62,12.27c.76,0,1.56-.1,2.37-.18v.18c15.69-3.57,40.17-5.92,55.63,10.23,5.64,5.89,8.47,19.41,6.91,30.38,0,0-68.74,16.27-110.06-4.93-2.75-1.42-4.69-3.67-5.07-6.3l-1.17-30.22Z" transform="translate(-572.45 -337.6)"/><path class="cls-19" d="M967.82,649.77l-5.18-51.91a24,24,0,0,0-15.48-21.06c-17.93-6.79-41.78-14.87-53.54-14.87S858,570,840.09,576.8a24.06,24.06,0,0,0-15.51,21.47l-3,119.24-5.86,64.4,6.17,1.79c2.22.64,55,15.71,96.85,15.71h0c27.39,0,44.17-6.37,51.36-19.46l1-1.73V715a644.49,644.49,0,0,0-3.21-65.19Z" transform="translate(-572.45 -337.6)"/><path class="cls-20" d="M875,550.42l4.54-30.5L921.48,530l1,26.75a17.17,17.17,0,0,0,11.63,15.54l.1,0c7,13.67,16,37.31-1.28,43-26.75,8.77-30.81-29.26-75.54-44v-.69c9.25-3.08,16.14-10.51,17.59-20.15Z" transform="translate(-572.45 -337.6)"/><path class="cls-10" d="M970.37,685.81c-20.89,13.36-41.85,19.51-61.39,19.94-28.72.67-52.34-22.57-53-51.26l-1-44.66-30.58-3.32-1.31,51.09h0l-1.53,59.94-5.86,64.4,6.17,1.79c2.22.63,55,15.71,96.85,15.71h0c27.39,0,44.17-6.38,51.36-19.46l1-1.74V715c0-9.69-.23-19.44-.66-29.16Z" transform="translate(-572.45 -337.6)"/><path class="cls-10" d="M938.39,636.23h23.08v20.2A11.53,11.53,0,0,1,949.94,668h0a11.53,11.53,0,0,1-11.53-11.52v-20.2Z" transform="translate(-572.45 -337.6)"/><path class="cls-9" d="M732.55,754.5c-2.11-15.89,11.89-34.72,43.11-39.49,33.05-5,102.58-5.12,102.58-5.12L873.17,742s-45.43,11.38-70.6,23.49c-39.82,19.16-68.49,2.48-70-11Z" transform="translate(-572.45 -337.6)"/><path class="cls-12" d="M910.05,712.18a77.16,77.16,0,0,0,11.43,3.88c6.09-2.3,17.67-7,22.9-11.56,5-4.28,2.4-10.2,2.4-10.2s-18.95,3-32.55,5.23a29.83,29.83,0,0,1-4.79.33,22.3,22.3,0,0,1,.61,12.32Z" transform="translate(-572.45 -337.6)"/><path class="cls-12" d="M957.41,735.67c3.17-2.55-4.56-21.19-23.67-35.27a21,21,0,0,0-7.55-3,8,8,0,0,0-1.19-.15,20.33,20.33,0,0,0-7.58.56c-6.94.69-23.49,5.71-23.57,5.74-12.16,2.75-18.74,8.6-25.07,12.75C851.62,727.51,860,738.4,860,738.4c14.82,19.92,32.17-2.65,32.17-2.65,2.14,3.52,10.58,20,14.84,15.43,4.49-5-.94-20.2-1.1-20,.13-.2,12.14,23.55,16.53,20.18,4.67-3.9,0-20.92-3.49-26.76,5.23,6.69,14.36,23.67,18.56,18.52,4-5.2-5.53-23.92-9.87-28.31,4.6,4.21,25.15,24.64,29.77,20.89Z" transform="translate(-572.45 -337.6)"/><path class="cls-9" d="M732.35,745.8c-.94,6.83,23.75,12.5,23.75,12.5l38.84-34.41s39-52.57,48.36-72.16c4.41-9.23,13.39-28.87,12.19-39-1.09-9.18-8.06-34.69-17.29-35.07-4-.16-25.89,17.93-30.35,22.55-31,32.16-66.6,81.74-75.47,145.61Z" transform="translate(-572.45 -337.6)"/><path class="cls-21" d="M843.27,651.73c4.42-9.23,13.4-28.87,12.2-39-1.1-9.18-8.06-34.69-17.3-35.07-4-.15-25.88,17.93-30.35,22.55a320,320,0,0,0-35.07,43.25c13.49,1.43,33.75,8.17,57,30.92,5.84-8.88,10.86-17.07,13.51-22.63Z" transform="translate(-572.45 -337.6)"/><path class="cls-22" d="M840.55,661.12c-14.36-17.5-38.88-27.73-58.92-33.46a6.26,6.26,0,0,0-6.81,2.29c-.87,1.17-1.71,2.35-2.55,3.55a6.26,6.26,0,0,0,3.67,9.76c14.21,3.3,32.57,11.51,53.15,30.1a6.34,6.34,0,0,0,9.59-1.25l2.35-3.7a6.29,6.29,0,0,0-.43-7.29Z" transform="translate(-572.45 -337.6)"/><path class="cls-16" d="M836.41,547.39c-10-3.11-20.5-7.91-25.68-17.4-4.59-8.41-4.08-18.79-2.81-28.41.51-4,1.15-8.06.26-12a23.85,23.85,0,0,0-3.34-7.43c-5.41-8.44-13.39-14.94-18.19-23.79-5.56-10.28-6.22-23.09-2.78-34.33s10.74-21,19.72-28.19,20-12.37,26.24-22.24c4.11-6.45,5.77-14.28,9.42-21,4.76-8.75,13.74-15.56,23.36-15,9.13.53,16.76,7.24,25.43,10.28,15.56,5.45,32.26-1.3,48.36-4.62,14.33-3,29.51-3.11,43.28,2s26,16.07,30.86,30.48c2.35,6.91,3,14.31,3.57,21.6,1.53,19,2.25,40.25-9.54,54.84-8.54,10.59-21.83,15.25-34.43,19.49-20.07,6.73-41,14.15-55.42,30.25-7.07,7.9-12.14,17.49-17.14,27,0,4.49-7.45,14.87-10,18.75s-4.59,5.84-9,6.48c-13.22,1.94-29.72-2.91-42.29-6.81Z" transform="translate(-572.45 -337.6)"/><path class="cls-9" d="M962.62,484c-7.73,14.77-4.49,31.71,7.22,37.83s27.47-.9,35.19-15.66,4.49-31.71-7.21-37.83-27.47.89-35.2,15.66Z" transform="translate(-572.45 -337.6)"/><path class="cls-9" d="M844.14,484c7.73,14.77,4.49,31.71-7.22,37.83s-27.47-.9-35.19-15.66-4.49-31.71,7.21-37.83S836.41,469.26,844.14,484Z" transform="translate(-572.45 -337.6)"/><path class="cls-23" d="M966.57,453.88c-8.14-10.1-21.12-28.49-35.15-57.33,0,0-76,10.61-96.36,55.09a56.33,56.33,0,0,0-3.75,10.53v28.88l.23,5.1c0,43.15,32,78.12,71.57,78.12s71.57-35,71.57-78.12l.56-13v-4.95a38.9,38.9,0,0,0-8.64-24.41Z" transform="translate(-572.45 -337.6)"/><ellipse class="cls-16" cx="298.06" cy="137.99" rx="4.23" ry="10.18"/><path class="cls-16" d="M849.57,464.57s23.24-13.36,35.74-15.07c0,0,1.73-20.36-14.87-12.88s-20.87,28-20.87,28Z" transform="translate(-572.45 -337.6)"/><ellipse class="cls-16" cx="363.23" cy="137.99" rx="4.23" ry="10.18"/><path class="cls-16" d="M957.82,464.44s-23.36-13.13-35.88-14.74c0,0-.59-20.43,16.09-13.14s19.79,27.86,19.79,27.86Z" transform="translate(-572.45 -337.6)"/><path class="cls-24" d="M893.62,499.62a9.48,9.48,0,1,0,18.93,0c0-5.54-4.23-20.23-9.46-20.23S893.62,494.11,893.62,499.62Z" transform="translate(-572.45 -337.6)"/><path class="cls-16" d="M915.33,529.69a9.13,9.13,0,0,1,1,.71c.36.28.28,1.07-.15,1.74s-1.07,1-1.43.68-6.86-5.45-13.75,3.78c-.48.64-1.1.84-1.4.48s-.16-1.17.3-1.81c6-8.08,12.22-7.45,15.41-5.58Z" transform="translate(-572.45 -337.6)"/><path class="cls-25" d="M945.86,510.1a1.81,1.81,0,0,0,.82-.18,1.86,1.86,0,0,0,.86-2.5l-5.94-12.27a1.87,1.87,0,0,0-3.37,1.63l5.95,12.27a1.89,1.89,0,0,0,1.68,1.07Z" transform="translate(-572.45 -337.6)"/><path class="cls-25" d="M957.72,510.1a1.81,1.81,0,0,0,.82-.18,1.86,1.86,0,0,0,.86-2.5l-5.94-12.27a1.87,1.87,0,0,0-3.37,1.63L956,509.05a1.89,1.89,0,0,0,1.68,1.07Z" transform="translate(-572.45 -337.6)"/><path class="cls-25" d="M861.46,510.1a1.82,1.82,0,0,0,1.68-1.07l5.92-12.27a1.86,1.86,0,0,0-.87-2.5,1.89,1.89,0,0,0-2.5.87l-5.94,12.26a1.86,1.86,0,0,0,.87,2.5,1.76,1.76,0,0,0,.82.18Z" transform="translate(-572.45 -337.6)"/><path class="cls-25" d="M849.6,510.1a1.82,1.82,0,0,0,1.68-1.07l6-12.27a1.86,1.86,0,0,0-.87-2.5,1.89,1.89,0,0,0-2.5.87l-5.94,12.26a1.87,1.87,0,0,0,.86,2.5,1.81,1.81,0,0,0,.82.18Z" transform="translate(-572.45 -337.6)"/><circle class="cls-26" cx="293.82" cy="144.31" r="28.49"/><path class="cls-27" d="M892.55,470.9l-43.66,33.56a28.47,28.47,0,0,0,43.64-33.56Z" transform="translate(-572.45 -337.6)"/><path class="cls-27" d="M868.19,453.5l-28.74,18.82A28.2,28.2,0,0,0,838,485.26l39.74-29.41a28.25,28.25,0,0,0-9.52-2.32Z" transform="translate(-572.45 -337.6)"/><path class="cls-28" d="M866.26,453.4a28.49,28.49,0,1,1-28.49,28.49,28.49,28.49,0,0,1,28.49-28.49m0-2.45a31,31,0,1,0,31,31,31,31,0,0,0-31-31Z" transform="translate(-572.45 -337.6)"/><path class="cls-26" d="M966.88,481.91a28.49,28.49,0,1,1-28.49-28.49A28.49,28.49,0,0,1,966.88,481.91Z" transform="translate(-572.45 -337.6)"/><path class="cls-27" d="M954.38,458.32,915.58,499a28.45,28.45,0,0,0,13.34,9.8l36.3-36.37a28.63,28.63,0,0,0-10.82-14.06Z" transform="translate(-572.45 -337.6)"/><path class="cls-28" d="M938.39,453.4a28.49,28.49,0,1,1-28.49,28.49,28.49,28.49,0,0,1,28.49-28.49m0-2.45a31,31,0,1,0,31,31,31,31,0,0,0-31-31Z" transform="translate(-572.45 -337.6)"/><path class="cls-28" d="M892.76,470.44l-1.66-1.81a17.72,17.72,0,0,1,20.12-1.51l-1.2,2.14A15.15,15.15,0,0,0,892.76,470.44Z" transform="translate(-572.45 -337.6)"/><path class="cls-28" d="M831.31,479.39a1.2,1.2,0,0,1-1-.56,1.24,1.24,0,0,1,.36-1.71l6-3.95a1.23,1.23,0,1,1,1.36,2.06l-6,4a1.31,1.31,0,0,1-.66.2Z" transform="translate(-572.45 -337.6)"/><path class="cls-28" d="M975.22,479.39a1.41,1.41,0,0,1-.62-.15l-8.34-4.72a1.23,1.23,0,0,1,1.23-2.14l8.34,4.71a1.24,1.24,0,0,1,.46,1.69,1.21,1.21,0,0,1-1.07.63Z" transform="translate(-572.45 -337.6)"/><path class="cls-3" d="M1207.55,750.19H654.1a18.23,18.23,0,0,0-18.24,18.23v5.1h571.69V750.19Z" transform="translate(-572.45 -337.6)"/><path class="cls-3" d="M865.62,1080.28H673.69a1.93,1.93,0,0,1-1.94-1.94V773.7H867.53v304.64a1.94,1.94,0,0,1-1.94,1.94Z" transform="translate(-572.45 -337.6)"/><polygon class="cls-4" points="99.32 534.79 295.11 436.1 99.32 436.1 99.32 534.79"/><path class="cls-1" d="M867.56,773.7h26v304.64a1.94,1.94,0,0,1-1.94,1.94H869.5a1.93,1.93,0,0,1-1.94-1.94V773.7Z" transform="translate(-572.45 -337.6)"/><path class="cls-2" d="M1379,750.19H842a19.49,19.49,0,0,0-19.49,19.48v3.88H1394.2v-8.14A15.21,15.21,0,0,0,1379,750.19Z" transform="translate(-572.45 -337.6)"/><path class="cls-29" d="M786.14,665.58c-5.48-4.33-3.7-12.29,2.5-16,2.86-1.73,6.68-2.95,7.86-5.61,1.25-2.83-1.18-5.86-4.08-7.85-6.87-4.75-17.07-6.38-25.79-4.13,3.42-.13,7.5,0,9.31,2.29,2.22,2.78-.94,6.43-4.67,8s-8.16,2.17-11.2,4.47a8.52,8.52,0,0,0-2.5,10.46c1.59,3.54,5.06,6.37,8.86,8.64a19.45,19.45,0,0,1,4.48,3.16c1.15,1.31,1.61,3.12.51,4.44a10.24,10.24,0,0,1-3.36,2,11.57,11.57,0,0,0-5.64,5.18c-2,4.31.72,9.41,5.51,12.11,8.32,4.72,28.8,4.13,34.82-3.44,3.24-4.06,3.64-10.23.58-14.36-3.87-5.23-12.06-5.31-17.16-9.34Z" transform="translate(-572.45 -337.6)"/><path class="cls-30" d="M820.68,738.25a23.06,23.06,0,1,1,23.05-23.06A23.08,23.08,0,0,1,820.68,738.25Zm0-35.66a12.6,12.6,0,1,0,12.6,12.6A12.6,12.6,0,0,0,820.68,702.59Z" transform="translate(-572.45 -337.6)"/><path class="cls-31" d="M821.62,684v54.81a12.09,12.09,0,0,1-12.09,12.09H759.92a12.09,12.09,0,0,1-12.09-12.09V684Z" transform="translate(-572.45 -337.6)"/><path class="cls-30" d="M748.29,741.85a12.3,12.3,0,0,0,11.84,9H809.3a12.29,12.29,0,0,0,12.29-12.29V713.2C798.69,737.56,768.64,742.1,748.29,741.85Z" transform="translate(-572.45 -337.6)"/><polygon class="cls-8" points="494.69 412.59 375.04 412.59 375.04 390.75 494.69 380.76 494.69 412.59"/><rect class="cls-32" x="494.69" y="380.76" width="131.36" height="31.81"/><path class="cls-7" d="M1110.53,485.69h240.24a10.82,10.82,0,0,1,10.81,10.81V680.68a10.83,10.83,0,0,1-10.81,10.82H1110.53V485.71h0Z" transform="translate(-572.45 -337.6)"/><path class="cls-8" d="M1308.2,575.55H1176.92a7.32,7.32,0,0,1-7.32-7.32h0a7.32,7.32,0,0,1,7.32-7.32H1308.2a7.32,7.32,0,0,1,7.32,7.32h0A7.32,7.32,0,0,1,1308.2,575.55Z" transform="translate(-572.45 -337.6)"/><path class="cls-8" d="M1110.53,691.5h-11.76A10.83,10.83,0,0,1,1088,680.68V496.5a10.83,10.83,0,0,1,10.82-10.81h11.76V691.47h0Z" transform="translate(-572.45 -337.6)"/><polygon class="cls-8" points="636.76 278.99 636.76 412.59 718.66 412.59 693.25 278.99 636.76 278.99"/><path class="cls-7" d="M1220.33,616.59v133.6h81.9l-23.29-122.33a13.85,13.85,0,0,0-13.59-11.25h-45Z" transform="translate(-572.45 -337.6)"/><path class="cls-33" d="M654.48,966c-7.86-11.14-16.86-22-28.75-28.67s-30.65-10.48-41.39-3.11c-2.19,1.51-12.07,9.34-11.89,18.75.18,10,8.39,22.67,17.63,26.93,4.89,2.27,10.4,2.83,15.25,5.23,8.54,4.24,13.54,13.21,18.54,21.38s11.53,16.68,20.79,18.46c8.52,1.66,17.14-3.39,21.09-10.81s3.78-16.71,1.2-25.05-7.39-15.89-12.47-23.08Z" transform="translate(-572.45 -337.6)"/><path class="cls-34" d="M654.48,966c-7.86-11.14-16.86-22-28.75-28.67-10.27-5.74-25.71-9.36-36.62-5.48,7.93,7.65,19.18,12.6,25.3,22.16,8.32,13,.13,22.6-5.53,33.32,6.45,4.69,10.73,12.21,15,19.18,5,8.13,11.53,16.68,20.78,18.46,8.55,1.66,17.14-3.39,21.1-10.81s3.77-16.71,1.2-25.05-7.4-15.89-12.48-23.08Z" transform="translate(-572.45 -337.6)"/><path class="cls-35" d="M605.71,946.91a89.59,89.59,0,0,0-23.87-10.66c-.38.33-.77.69-1.17,1.07,18.44,4.93,54.94,22.27,79.75,83.3.36-.28.69-.56,1-.86-17-41.53-39.2-62.47-55.73-72.85Z" transform="translate(-572.45 -337.6)"/><path class="cls-34" d="M694.93,933.42c-6.12-18.95-14-38.08-27.9-52.64s-38.92-28.44-57.59-23.16c-3.8,1.07-21.45,7.39-25.51,20.43-4.28,13.82,1.63,35.12,12.86,45.19,6,5.36,13.54,8.65,19.35,14.16,10.26,9.72,13.27,24.41,16.66,37.9s8.85,28.26,21.22,35c11.4,6.17,26,3.14,35-5.31s13-21.32,13.14-34S698.89,945.69,694.93,933.42Z" transform="translate(-572.45 -337.6)"/><path class="cls-33" d="M646.57,910.41c-14.43-11.07-42.21-20-63.63-16.37,1.37,11,6.45,22.57,13.85,29.23,6,5.35,13.54,8.65,19.35,14.15,10.26,9.72,13.27,24.41,16.66,37.91s8.85,28.26,21.22,35c11.4,6.18,26,3.14,35-5.3s13-21.32,13.14-34a79.27,79.27,0,0,0-.62-10.1c-2.06-1.12-4.1-2.27-6.07-3.49-19.1-12.12-30.94-33.16-48.92-46.94Z" transform="translate(-572.45 -337.6)"/><path class="cls-36" d="M634.15,884.81A134.54,134.54,0,0,0,605,859.22c-.69.28-1.4.59-2.16.95,24.05,15.17,68.15,55.73,75.67,151.22.61-.23,1.25-.48,1.84-.74C675,945.61,653,906.64,634.15,884.81Z" transform="translate(-572.45 -337.6)"/><polygon class="cls-37" points="13.78 654.1 141.59 654.1 114.93 743.27 48.23 743.27 13.78 654.1"/><polygon class="cls-38" points="138.3 665.07 141.59 654.1 13.78 654.1 18.01 665.07 138.3 665.07"/><path class="cls-39" d="M979.88,500.38c.16-.05.36.51,1,1.2a5.29,5.29,0,0,0,3.58,1.45c3.34.05,7.57-3.67,9.61-8.59a16.6,16.6,0,0,0,1.28-7.42c-.08-2.35-.84-4.26-2.22-5.11a2.65,2.65,0,0,0-3.34.23c-.67.64-.72,1.25-.87,1.25s-.41-.69.23-1.76a3.24,3.24,0,0,1,1.76-1.32,4,4,0,0,1,2.93.3c2.09,1,3.27,3.68,3.39,6.23A17.46,17.46,0,0,1,996,495.2c-2.3,5.51-7.17,9.64-11.61,9.29a5.53,5.53,0,0,1-4.13-2.43c-.58-1-.51-1.68-.38-1.7Z" transform="translate(-572.45 -337.6)"/><path class="cls-39" d="M829.76,504.31c-.16-.08-.44.46-1.2,1a5,5,0,0,1-3.75.9c-3.32-.46-6.94-4.75-8.21-9.95a17.47,17.47,0,0,1-.18-7.52c.43-2.33,1.48-4.09,3-4.7a2.65,2.65,0,0,1,3.29.74c.56.72.51,1.35.66,1.35s.51-.61,0-1.76a3.34,3.34,0,0,0-1.53-1.55,3.89,3.89,0,0,0-3-.13c-2.19.64-3.75,3.14-4.28,5.64a17.69,17.69,0,0,0,0,8.44c1.45,5.79,5.63,10.61,10.1,10.89a5.46,5.46,0,0,0,4.43-1.78c.74-.92.74-1.59.64-1.64Z" transform="translate(-572.45 -337.6)"/></svg>