<?xml version="1.0" encoding="utf-8"?>
<!-- Generator: Adobe Illustrator 26.0.1, SVG Export Plug-In . SVG Version: 6.00 Build 0)  -->
<svg version="1.1" id="Layer_1" xmlns="http://www.w3.org/2000/svg" xmlns:xlink="http://www.w3.org/1999/xlink" x="0px" y="0px"
	 viewBox="0 0 5000 5000" style="enable-background:new 0 0 5000 5000;" xml:space="preserve">
<style type="text/css">
	.st0{fill-rule:evenodd;clip-rule:evenodd;fill:#F74141;}
</style>
<g id="Layer_2_00000172434538021750520830000007003494104559997060_">
	<path class="st0" d="M4660.27,701.93c-172.68-172.68-506.89-500.55-555.77-558.04c-3.29-3.87-6.34-7.97-9.72-11.69
		c-9.63-10.61-39.49-42.48-142.05-17.26c-45.01,18.37-91.38,73.91-91.38,73.91c-23.67,59.59-14.2,113.62,0,168.66l323.12,323.12
		c-1003.09,0-1754.08,369.28-2157.09,976.46c-115.4,173.99-145.58,379.93-248.55,580.55l-536.17,271.63
		c-474.03,305.37-880.59,740.34-1004.87,1393.68c-33.73,177.54-79.89,875.26,58.59,953.38c30.18,37.28,138.48,55.04,191.74,21.3
		c39.06-19.53,69.24-53.26,79.89-95.87c-17.75-122.5-33.73-245-51.49-367.5c-31.96-198.84,8.88-434.97,58.59-594.75
		c173.99-569.9,630.26-992.44,1159.33-1210.81c-3.55,630.26,216.6,1065.23,601.86,1306.68
		c490.01,305.37,1068.78,92.32,1335.09-264.53c74.57-99.42,127.83-221.92,168.66-351.53c78.12-245-7.1-546.82-95.87-697.73
		c-317.79-541.49-823.78-601.85-1599.62-470.48c216.6-724.36,1100.74-1127.37,2032.81-1150.45
		c-85.22,108.3-491.78,369.28-257.43,543.27c213.05,53.26,328.45-163.34,433.19-271.63c94.1-97.65,291.16-213.05,337.32-344.42
		C4713.53,838.63,4688.68,742.76,4660.27,701.93z M2650.53,2367.24c923.2-12.43,1219.69,896.57,520.19,1306.68
		c-129.6,76.34-337.32,101.2-498.88,44.38c-438.52-154.46-683.52-623.16-616.06-1232.12
		C2231.54,2416.95,2471.22,2434.7,2650.53,2367.24L2650.53,2367.24z"/>
</g>
<path class="st0" d="M5900.17,1368.06"/>
</svg>
