<?xml version="1.0" encoding="utf-8"?>
<!-- Generator: Adobe Illustrator 26.0.1, SVG Export Plug-In . SVG Version: 6.00 Build 0)  -->
<svg version="1.1" id="Layer_1" xmlns="http://www.w3.org/2000/svg" xmlns:xlink="http://www.w3.org/1999/xlink" x="0px" y="0px"
	 viewBox="0 0 800 800" style="enable-background:new 0 0 800 800;" xml:space="preserve">
<style type="text/css">
	.st0{fill-rule:evenodd;clip-rule:evenodd;fill:#F74141;}
</style>
<g id="Layer_2_00000172434538021750520830000007003494104559997060_">
	<path class="st0" d="M764.55,109.51c-27.94-27.94-82.01-80.98-89.92-90.29c-0.53-0.63-1.03-1.29-1.57-1.89
		c-1.56-1.72-6.39-6.87-22.98-2.79c-7.28,2.97-14.79,11.96-14.79,11.96c-3.83,9.64-2.3,18.38,0,27.29l52.28,52.28
		c-162.29,0-283.8,59.75-349,157.98c-18.67,28.15-23.55,61.47-40.21,93.93l-86.75,43.95C134.91,451.32,69.13,521.7,49.03,627.4
		c-5.46,28.72-12.93,141.61,9.48,154.25c4.88,6.03,22.4,8.9,31.02,3.45c6.32-3.16,11.2-8.62,12.93-15.51
		c-2.87-19.82-5.46-39.64-8.33-59.46c-5.17-32.17,1.44-70.37,9.48-96.23C131.75,521.7,205.57,453.34,291.17,418
		c-0.57,101.97,35.04,172.35,97.38,211.41c79.28,49.41,172.92,14.94,216.01-42.8c12.06-16.09,20.68-35.91,27.29-56.87
		c12.64-39.64-1.15-88.47-15.51-112.89c-51.42-87.61-133.28-97.38-258.81-76.12c35.04-117.2,178.09-182.4,328.89-186.13
		c-13.79,17.52-79.57,59.75-41.65,87.9c34.47,8.62,53.14-26.43,70.09-43.95c15.22-15.8,47.11-34.47,54.58-55.73
		C773.17,131.62,769.14,116.11,764.55,109.51z M439.39,378.94c149.37-2.01,197.34,145.06,84.16,211.41
		c-20.97,12.35-54.58,16.37-80.72,7.18c-70.95-24.99-110.59-100.82-99.67-199.35C371.6,386.98,410.38,389.85,439.39,378.94
		L439.39,378.94z"/>
</g>
</svg>
